<?xml version="1.0" standalone="no"?>
<!DOCTYPE svg PUBLIC "-//W3C//DTD SVG 1.1//EN" "http://www.w3.org/Graphics/SVG/1.1/DTD/svg11.dtd">
<svg xmlns="http://www.w3.org/2000/svg">
	<defs>
		<font id="AlbertSans" horiz-adv-x="556">
			<font-face font-family="Albert Sans Thin" units-per-em="1000" panose-1="0 0 0 0 0 0 0 0 0 0" ascent="950"
				descent="-250" alphabetic="0" />
			<glyph unicode=" " horiz-adv-x="280" />
			<glyph unicode="!" horiz-adv-x="218"
				d="M92 700H118L115 158H95L92 700ZM108 0Q99 0 92 7T85 24Q85 35 92 42T108 49Q119 49 125 42T132 24Q132 14 126 7T108 0Z" />
			<glyph unicode="&quot;" horiz-adv-x="233"
				d="M57 700H90L82 520H65L57 700ZM143 700H176L169 520H152L143 700Z" />
			<glyph unicode="#" horiz-adv-x="754"
				d="M305 700H327L279 475H529L577 700H599L551 475H707V455H547L507 266H663V247H503L452 0H430L481 247H231L180 0H158L209 247H48V266H213L253 455H91V475H257L305 700ZM235 266H485L525 455H275L235 266Z" />
			<glyph unicode="$" horiz-adv-x="544"
				d="M263 775H284V-75H263V775ZM76 147Q84 118 105 87T167 35T276 14Q371 14 418 57T465 168Q465 221 439 254T369 308T272 345Q230 357 193 370T127 402T82 450T65 523Q65 577 90 618T162 683T273 707Q333 707 374 688T439
640T474 579L455 572Q447 596 425 623T366 668T274 687Q224 687 181 669T113 614T87 527Q87 475 113 446T184 399T281 365Q323 353 360 338T426 301T471 247T487 170Q487 123 467 83T401 18T278 -7Q209 -7 164 13T93 66T57 139L76 147Z" />
			<glyph unicode="%" horiz-adv-x="678"
				d="M57 578Q57 633 93 670T184 707Q239 707 275 670T312 578Q312 522 276 485T184 448Q129 448 93 485T57 578ZM184 688Q137 688 108 657T78 577Q78 529 107 498T184 467Q231 467 260 498T290 577Q290 625 261 656T184 688ZM537
700H562L140 0H115L537 700ZM366 122Q366 178 402 215T493 252Q548 252 584 215T621 122Q621 67 585 30T493 -7Q438 -7 402 30T366 122ZM493 233Q446 233 417 202T387 122Q387 75 416 44T493 12Q540 12 569 43T599 122Q599 170 570 201T493 233Z" />
			<glyph unicode="&amp;" horiz-adv-x="720" d="M443 630Q413 660 372 673T287 687Q201 687 156 644T111 532Q111 483 136 447T215 392T357 373H563V352H358Q237 352 168 310T98 179Q98 134 118 97T181 37T288 15Q383 15 431 58T479 204V305H501V204Q501 125 475
79T402 13T288 -7Q213 -7 167 18T98 86T76 179Q76 235 100 273T167 332T262 360V366Q195 372 158 397T105 459T89 533Q89 582 111 621T178 684T287 707Q343 707 387 691T461 643L443 630ZM461 643L443 630L461 643ZM452 372Q462 372 468 376T476 386T479 402V495H501V372H486V352H501V134Q501
84 535 51T621 17Q629 17 638 18T656 21V3Q646 0 636 -1T615 -3Q579 -3 548 14T498 63T479 134V352H397V372H452Z" />
			<glyph unicode="&apos;" horiz-adv-x="163" d="M62 700H102L91 520H74L62 700Z" />
			<glyph unicode="(" horiz-adv-x="350"
				d="M267 -100Q211 -41 166 23T93 166T66 350Q66 454 93 533T166 677T268 800H293V796Q226 727 181 659T112 515T88 350Q88 260 111 185T180 42T292 -96V-100H267Z" />
			<glyph unicode=")" horiz-adv-x="351"
				d="M83 -100H58V-96Q125 -26 170 42T238 185T262 350Q262 440 239 515T170 658T57 796V800H82Q139 742 184 677T257 533T284 350Q284 246 257 167T185 23T83 -100Z" />
			<glyph unicode="*" horiz-adv-x="462"
				d="M240 560L383 643L394 623L247 545L396 468L385 448L240 530L242 360H221L223 530L78 448L67 468L216 545L69 623L80 643L223 560L221 728H242L240 560Z" />
			<glyph unicode="+" horiz-adv-x="652" d="M336 605V95H315V605H336ZM71 359H580V340H71V359Z" />
			<glyph unicode="," horiz-adv-x="219" d="M120 94H148L64 -155H43L120 94Z" />
			<glyph unicode="-" horiz-adv-x="507" d="M71 290H436V270H71V290Z" />
			<glyph unicode="." horiz-adv-x="190"
				d="M94 -2Q84 -2 78 5T71 22Q71 33 77 40T94 47Q105 47 111 40T118 22Q118 12 112 5T94 -2Z" />
			<glyph unicode="/" horiz-adv-x="263" d="M240 800H263L22 -100H0L240 800Z" />
			<glyph unicode="0" horiz-adv-x="601"
				d="M76 350Q76 426 85 491T117 604T185 680T300 707Q371 707 415 680T483 605T516 491T525 350Q525 273 516 208T483 95T415 20T300 -7Q230 -7 186 20T118 95T85 208T76 350ZM503 350Q503 422 496 483T467 590T405 661T300
687Q236 687 196 662T135 591T106 484T98 350Q98 277 105 216T134 109T196 38T300 13Q365 13 405 38T466 108T495 215T503 350Z" />
			<glyph unicode="1" horiz-adv-x="270" d="M154 680H48V700H176V0H154V680Z" />
			<glyph unicode="2" horiz-adv-x="604" d="M64 13L297 235Q366 301 407 348T467 434T486 516Q486 593 437 640T305 687Q239 687 194 659T125 583T102 476H80Q80 548 109 599T188 679T305 707Q366 707 411 683T482 616T508 516Q508 472 490 431T430 342T317 225L102
20H531V0H64V13Z" />
			<glyph unicode="3" horiz-adv-x="594"
				d="M76 512Q82 572 111 615T189 683T307 707Q372 707 416 684T482 622T505 533Q505 496 490 460T437 398T332 366V360Q385 354 427 333T493 273T518 179Q518 129 496 87T428 19T306 -7Q235 -7 184 13T103 78T63 197H85Q96
104 150 60T306 15Q371 15 413 37T475 96T496 179Q496 267 427 309T236 352H219V373H237Q325 373 379 392T458 447T483 532Q483 600 438 643T307 687Q258 687 213 670T137 614T98 512H76Z" />
			<glyph unicode="4" horiz-adv-x="649"
				d="M443 189H47V207L442 700H465V209H586V189H465V0H443V189ZM443 209V666L74 209H443Z" />
			<glyph unicode="5" horiz-adv-x="615" d="M510 700V680H109V367Q138 408 193 434T315 461Q377 461 421 443T492 392T531 320T544 236Q544 174 521 119T447 28T311 -7Q248 -7 199 17T118 85T76 192H98Q115 104 172 60T310 15Q383 15 429 44T499 123T522 236Q522
330 469 385T314 441Q245 441 191 412T107 332H87V700H510Z" />
			<glyph unicode="6" horiz-adv-x="602" d="M305 -7Q228 -7 174 25T92 112T64 231Q64 275 76 315T118 399L314 700H338L140 394L80 303Q101 377 159 421T305 466Q377 466 431 437T515 354T545 231Q545 161 515 107T431 23T305 -7ZM86 233Q86 168 113 119T190 41T305
13Q370 13 419 41T495 118T523 231Q523 295 496 343T419 418T305 446Q240 446 191 419T114 344T86 233Z" />
			<glyph unicode="7" horiz-adv-x="548" d="M501 700V681L221 0H198L482 680H48V700H501Z" />
			<glyph unicode="8" horiz-adv-x="635"
				d="M240 369Q159 386 124 430T88 532Q88 584 115 623T193 685T317 707Q389 707 440 685T519 624T546 532Q546 474 511 430T394 369Q474 356 520 310T566 191Q566 130 537 86T452 17T317 -7Q238 -7 183 17T98 85T68 191Q68
264 114 310T240 369ZM524 531Q524 608 467 647T317 687Q225 687 168 648T110 531Q110 456 166 417T317 378Q413 378 468 417T524 531ZM317 359Q257 359 205 343T122 290T90 191Q90 103 152 58T317 13Q419 13 481 58T544 191Q544 253 513 290T430 343T317 359Z" />
			<glyph unicode="9" horiz-adv-x="602" d="M297 707Q374 707 428 675T510 588T538 469Q538 426 526 386T484 301L288 0H264L462 306L522 397Q501 323 443 279T297 234Q225 234 171 263T87 346T57 469Q57 540 87 593T171 677T297 707ZM516 467Q516 532 489 581T412
659T297 687Q232 687 183 659T107 582T79 469Q79 406 106 358T183 282T297 254Q362 254 411 281T488 356T516 467Z" />
			<glyph unicode=":" horiz-adv-x="199"
				d="M99 -2Q89 -2 83 5T76 22Q76 33 82 40T99 47Q110 47 116 40T123 22Q123 12 117 5T99 -2ZM99 450Q89 450 83 457T76 474Q76 485 82 492T99 499Q110 499 116 492T123 474Q123 464 117 457T99 450Z" />
			<glyph unicode=";" horiz-adv-x="236"
				d="M135 452Q125 452 119 459T112 476Q112 487 118 494T135 501Q146 501 152 494T159 476Q159 466 153 459T135 452ZM125 94H153L69 -155H48L125 94Z" />
			<glyph unicode="&lt;" horiz-adv-x="469" d="M374 113H346L71 350L346 587H374L98 350L374 113Z" />
			<glyph unicode="=" horiz-adv-x="656" d="M85 251H570V231H85V251ZM85 429H570V409H85V429Z" />
			<glyph unicode="&gt;" horiz-adv-x="469" d="M370 350L95 587H123L398 350L123 113H95L370 350Z" />
			<glyph unicode="?" horiz-adv-x="543" d="M269 707Q330 707 377 682T452 613T479 510Q479 429 446 382T353 314T217 293L215 149H197L195 312H211Q256 312 299 319T378 346T435 405T457 510Q457 565 433 604T367 665T269 687Q185 687 135 641T84 518H63Q63 579
90 621T165 685T269 707ZM208 -2Q198 -2 192 5T185 22Q185 33 191 40T208 47Q218 47 225 40T232 22Q232 12 225 5T208 -2Z" />
			<glyph unicode="@" horiz-adv-x="955"
				d="M609 164L618 154Q593 78 536 37T411 -5Q336 -5 295 41T253 163Q253 217 270 266T318 353T393 414T489 437Q556 437 597 396T637 278L627 269L654 422H673L621 127Q613 78 630 46T688 14Q725 14 754 38T805 103T836 192T847
290Q847 385 806 456T689 566T513 605Q420 605 340 569T201 470T108 324T74 147Q74 49 115 -21T230 -129T402 -167Q446 -167 487 -159T566 -135L571 -154Q532 -169 487 -177T396 -186Q295 -186 218 -146T96 -33T52 142Q52 244 86 331T184 485T331 587T516 624Q620
624 699 582T824 466T869 294Q869 238 857 185T822 89T764 21T685 -5Q634 -5 614 33T602 126L609 164ZM487 418Q422 418 375 382T301 288T275 165Q275 95 312 55T416 14Q463 14 504 37T576 105T618 217Q629 272 619 317T576 390T487 418Z" />
			<glyph unicode="A" horiz-adv-x="613"
				d="M324 680H292L32 0H10L278 700H337L604 0H582L324 680ZM103 230H511V210H103V230Z" />
			<glyph unicode="B" horiz-adv-x="634" d="M533 525Q533 590 489 635T347 680H117V370H353Q442 370 487 412T533 525ZM95 0V700H348Q422 700 467 677T534 614T555 526Q555 476 536 442T487 389T422 362V357Q463 351 497 328T551 268T571 185Q571 134 547 92T474
25T348 0H95ZM117 20H348Q443 20 496 64T549 185Q549 261 495 305T346 350H117V20Z" />
			<glyph unicode="C" horiz-adv-x="759" d="M48 350Q48 429 72 494T140 607T245 681T377 707Q498 707 576 653T692 508L674 501Q652 555 612 597T513 663T377 687Q292 687 223 647T112 531T70 350Q70 245 111 170T222 54T377 13Q455 12 515 37T616 108T678 208L696
201Q659 107 580 50T377 -7Q305 -7 245 19T141 93T72 206T48 350Z" />
			<glyph unicode="D" horiz-adv-x="719"
				d="M300 700Q423 700 505 659T630 539T672 350Q672 239 630 161T506 42T300 0H95V700H300ZM300 20Q476 20 563 108T650 350Q650 503 563 591T300 680H117V20H300Z" />
			<glyph unicode="E" horiz-adv-x="604" d="M529 680H117V370H426V350H117V20H529V0H95V700H529V680Z" />
			<glyph unicode="F" horiz-adv-x="579" d="M95 700H529V680H117V370H426V350H117V0H95V700Z" />
			<glyph unicode="G" horiz-adv-x="764" d="M670 502Q637 582 564 634T385 687Q297 687 226 647T112 531T70 350Q70 245 112 170T225 54T385 13Q455 13 516 40T621 119T685 242V339H385V359H707V240Q687 166 641 110T530 24T385 -7Q311 -7 250 19T143 92T73 205T48
350Q48 429 72 494T142 607T249 681T385 707Q459 707 517 683T619 614T688 509L670 502Z" />
			<glyph unicode="H" horiz-adv-x="681" d="M95 700H117V370H564V700H586V0H564V350H117V0H95V700Z" />
			<glyph unicode="I" horiz-adv-x="212" d="M95 700H117V0H95V700Z" />
			<glyph unicode="J" horiz-adv-x="472"
				d="M360 700H382V155Q382 114 364 77T310 16T225 -7Q155 -7 115 31T63 136L84 143Q89 108 104 78T149 31T225 13Q277 13 306 36T348 93T360 155V700Z" />
			<glyph unicode="K" horiz-adv-x="541"
				d="M95 700H117V370H151L497 700H527L171 360L527 0H497L151 350H117V0H95V700Z" />
			<glyph unicode="L" horiz-adv-x="498" d="M117 700V20H466V0H95V700H117Z" />
			<glyph unicode="M" horiz-adv-x="819"
				d="M117 0H95V700H117L410 29L702 700H724V0H702V647L420 0H399L117 647V0Z" />
			<glyph unicode="N" horiz-adv-x="681" d="M586 700V0H565L117 661V0H95V700H116L564 39V700H586Z" />
			<glyph unicode="O" horiz-adv-x="768" d="M385 -7Q311 -7 250 19T143 92T73 205T48 350Q48 429 72 494T142 607T249 681T385 707Q458 707 519 681T626 608T696 495T721 350Q721 271 696 206T626 93T520 19T385 -7ZM385 13Q472 13 542 53T655 169T698 350Q698 455
656 530T543 646T385 687Q297 687 226 647T113 531T71 350Q71 245 113 170T226 54T385 13Z" />
			<glyph unicode="P" horiz-adv-x="578"
				d="M304 325Q379 325 424 348T488 411T508 503Q508 584 463 632T304 680H117V325H304ZM530 503Q530 455 516 418T472 356T401 318T304 305H117V0H95V700H304Q389 700 438 675T508 606T530 503Z" />
			<glyph unicode="Q" horiz-adv-x="768" d="M376 102H398V-100H376V102ZM385 -7Q311 -7 250 19T143 92T73 205T48 350Q48 429 72 494T142 607T249 681T385 707Q458 707 519 681T626 608T696 495T721 350Q721 271 696 206T626 93T520 19T385 -7ZM385 13Q472 13 542
53T655 169T698 350Q698 455 656 530T543 646T385 687Q297 687 226 647T113 531T71 350Q71 245 113 170T226 54T385 13Z" />
			<glyph unicode="R" horiz-adv-x="588"
				d="M508 503Q508 583 462 631T302 680H117V325H304Q376 325 421 348T487 411T508 503ZM302 700Q387 700 436 675T508 606T530 503Q530 456 516 419T472 357T401 318T304 305H117V0H95V700H302ZM343 313L540 0H515L318 313H343Z" />
			<glyph unicode="S" horiz-adv-x="544"
				d="M76 147Q84 118 105 87T167 35T276 14Q371 14 418 57T465 168Q465 221 439 254T369 308T272 345Q230 357 193 370T127 402T82 450T65 523Q65 577 90 618T162 683T273 707Q333 707 374 688T439 640T474 579L455 572Q447
596 425 623T366 668T274 687Q224 687 181 669T113 614T87 527Q87 475 113 446T184 399T281 365Q323 353 360 338T426 301T471 247T487 170Q487 123 467 83T401 18T278 -7Q209 -7 164 13T93 66T57 139L76 147Z" />
			<glyph unicode="T" horiz-adv-x="586" d="M48 700H539V680H305V0H283V680H48V700Z" />
			<glyph unicode="U" horiz-adv-x="672"
				d="M90 700H112V265Q112 173 143 118T225 38T338 13Q399 13 449 37T529 117T559 265V700H581V265Q581 193 563 142T512 57T435 9T338 -7Q269 -7 213 21T124 109T90 265V700Z" />
			<glyph unicode="V" horiz-adv-x="624" d="M569 700H593L323 0H301L32 700H57L312 32L569 700Z" />
			<glyph unicode="W" horiz-adv-x="900"
				d="M242 0H221L32 700H56L232 41L438 700H462L668 41L844 700H869L679 0H658L450 664L242 0Z" />
			<glyph unicode="X" horiz-adv-x="649"
				d="M63 700H88L324 367L560 700H585L335 350L585 0H560L324 333L88 0H63L313 350L63 700Z" />
			<glyph unicode="Y" horiz-adv-x="583" d="M530 700H552L304 294V0H282V294L32 700H56L293 316L530 700Z" />
			<glyph unicode="Z" horiz-adv-x="585" d="M511 679L87 21H521V0H63V20L487 678H75V700H511V679Z" />
			<glyph unicode="[" horiz-adv-x="244" d="M90 800H187V780H112V-80H187V-100H90V800Z" />
			<glyph unicode="\" horiz-adv-x="266" d="M266 -100H243L0 800H25L266 -100Z" />
			<glyph unicode="]" horiz-adv-x="244" d="M154 800V-100H57V-80H132V780H57V800H154Z" />
			<glyph unicode="^" horiz-adv-x="597" d="M300 668L84 250H62L292 700H306L536 250H514L300 668Z" />
			<glyph unicode="_" horiz-adv-x="451" d="M-2 -30H453V-50H-2V-30Z" />
			<glyph unicode="`" horiz-adv-x="216" d="M14 740L201 606V585L14 715V740Z" />
			<glyph unicode="a" horiz-adv-x="524" d="M425 0V138Q406 68 355 31T224 -7Q169 -7 131 8T73 54T53 128Q53 190 100 227T248 275L425 295V341Q425 413 384 450T267 487Q195 487 149 454T89 360L70 367Q87 436 136 471T265 507Q352 507 399 466T447 349V0H425ZM425
274L247 255Q155 245 115 214T75 129Q75 73 113 43T221 12Q284 12 330 38T400 114T425 231V274Z" />
			<glyph unicode="b" horiz-adv-x="601" d="M107 354Q124 419 177 463T317 507Q387 507 439 475T521 386T550 250Q550 172 521 114T440 25T317 -7Q235 -7 181 36T108 145V0H86V720H108V351L107 354ZM528 250Q528 359 471 423T317 487Q253 487 206 457T134 374T108
250Q108 180 134 127T207 43T317 13Q414 13 471 77T528 250Z" />
			<glyph unicode="c" horiz-adv-x="553" d="M290 -7Q217 -7 164 24T81 113T51 249Q51 326 80 384T163 475T289 507Q365 507 421 471T499 371L480 365Q460 422 409 454T289 487Q224 487 176 458T100 375T73 249Q73 141 132 77T290 13Q356 13 405 43T481 133L501 128Q473
63 419 28T290 -7Z" />
			<glyph unicode="d" horiz-adv-x="601" d="M494 354L493 351V720H515V0H493V145Q474 80 420 37T284 -7Q214 -7 162 24T80 114T51 250Q51 328 80 385T161 475T284 507Q371 507 424 463T494 354ZM73 250Q73 141 130 77T284 13Q347 13 394 43T467 126T493 250Q493
320 468 373T395 457T284 487Q187 487 130 423T73 250Z" />
			<glyph unicode="e" horiz-adv-x="554" d="M280 -7Q212 -7 161 26T80 118T51 255Q51 329 80 386T161 475T280 507Q344 507 394 479T473 402T502 291Q502 284 502 273T502 250H73Q74 180 100 127T173 43T280 13Q350 13 401 45T477 136L495 129Q470 64 414 29T280
-7ZM480 270Q482 334 458 383T388 459T280 487Q222 487 176 459T103 382T73 270H480Z" />
			<glyph unicode="f" horiz-adv-x="327"
				d="M124 569Q124 618 139 653T191 706T288 719V698Q207 704 177 670T146 569V500H288V478H146V0H124V478H38V500H124V569Z" />
			<glyph unicode="g" horiz-adv-x="601" d="M493 500H515V117Q515 15 475 -55T357 -163T168 -200L165 -180Q325 -179 409 -103T493 117V147H494Q475 84 424 40T283 -7Q213 -7 161 24T80 114T51 250Q51 328 80 385T161 475T283 507Q343 507 386 486T455 431T493 357V500ZM73
250Q73 140 130 77T285 13Q348 13 394 43T467 127T493 250Q493 320 467 373T395 457T285 487Q187 487 130 423T73 250Z" />
			<glyph unicode="h" horiz-adv-x="561"
				d="M86 720H108V369Q126 438 175 472T294 507Q349 507 392 484T460 411T485 281V0H463V282Q463 381 419 434T293 487Q209 487 159 427T108 251V0H86V720Z" />
			<glyph unicode="i" horiz-adv-x="215"
				d="M97 500H119V0H97V500ZM108 635Q99 635 93 641T86 657Q86 668 92 674T108 680Q117 680 123 674T130 657Q130 647 124 641T108 635Z" />
			<glyph unicode="j" horiz-adv-x="212"
				d="M97 -21Q97 -92 63 -133T-35 -180L-32 -200Q10 -197 44 -177T99 -118T119 -21V500H97V-21ZM108 635Q99 635 93 641T86 657Q86 668 92 674T108 680Q117 680 123 674T130 657Q130 647 124 641T108 635Z" />
			<glyph unicode="k" horiz-adv-x="454"
				d="M86 720H108V263H168L403 500H433L186 253L437 0H407L168 243H108V0H86V720Z" />
			<glyph unicode="l" horiz-adv-x="193" d="M86 711H108V0H86V711Z" />
			<glyph unicode="m" horiz-adv-x="908" d="M86 500H108V371Q123 430 165 468T284 506Q347 506 395 470T460 359Q477 437 527 471T645 506Q697 506 739 482T807 409T832 281V0H810V282Q810 381 766 433T645 486Q565 486 517 427T468 250V0H446V282Q446 381 404 433T283
486Q202 486 155 427T108 250V0H86V500Z" />
			<glyph unicode="n" horiz-adv-x="562"
				d="M86 500H108V370Q124 433 169 470T293 507Q347 507 390 483T460 410T486 282V0H464V283Q464 382 418 435T292 488Q208 488 158 430T108 256V0H86V500Z" />
			<glyph unicode="o" horiz-adv-x="581" d="M291 -7Q222 -7 168 24T83 112T51 250Q51 329 82 387T168 476T291 507Q360 507 413 476T498 387T529 250Q529 170 498 113T414 24T291 -7ZM291 13Q347 13 396 38T476 116T507 250Q507 331 477 383T397 461T291 487Q235
487 186 462T105 384T74 250Q74 169 105 117T185 39T291 13Z" />
			<glyph unicode="p" horiz-adv-x="601" d="M107 147L108 149V-200H86V500H108V357Q125 419 177 463T317 507Q387 507 439 476T521 387T550 250Q550 172 521 115T440 25T318 -7Q233 -7 179 37T107 147ZM528 250Q528 359 471 423T317 487Q253 487 206 457T134 374T108
250Q108 180 134 127T207 43T318 13Q414 13 471 77T528 250Z" />
			<glyph unicode="q" horiz-adv-x="601" d="M494 147Q476 82 422 38T283 -7Q213 -7 161 25T80 114T51 250Q51 329 80 386T161 475T284 507Q371 507 423 463T493 357V500H515V-200H493V149L494 147ZM73 250Q73 141 130 77T283 13Q347 13 394 43T467 126T493 250Q493
320 468 373T395 457T284 487Q187 487 130 423T73 250Z" />
			<glyph unicode="r" horiz-adv-x="345"
				d="M86 500H108V380Q120 418 149 449T221 495T317 500V479Q273 489 235 478T169 438T124 369T108 278V0H86V500Z" />
			<glyph unicode="s" horiz-adv-x="461"
				d="M71 131Q78 93 96 67T148 27T230 13Q309 13 348 45T387 127Q387 169 365 191T307 224T233 244Q211 249 181 256T123 276T76 313T57 376Q57 415 79 445T139 491T228 507Q288 507 335 480T398 390L380 385Q368 428 343 450T287
479T229 487Q162 487 121 458T79 377Q79 346 94 327T132 296T184 278T238 266Q267 260 297 251T352 227T393 188T409 126Q409 84 387 54T325 9T229 -7Q155 -7 110 24T51 125L71 131Z" />
			<glyph unicode="t" horiz-adv-x="336"
				d="M120 500V640H142V500H297V480H142V134Q142 93 164 64T222 23T297 21V3Q265 -6 234 -1T177 22T136 68T120 134V480H38V500H120Z" />
			<glyph unicode="u" horiz-adv-x="561"
				d="M476 0H455L454 124Q438 62 393 28T270 -7Q216 -7 172 15T103 87T77 213V500H99V211Q99 112 143 63T270 13Q355 13 404 68T454 239V500H476V0Z" />
			<glyph unicode="v" horiz-adv-x="501" d="M53 500L252 33L450 500H473L260 0H242L29 500H53Z" />
			<glyph unicode="w" horiz-adv-x="766"
				d="M204 0H187L29 500H52L197 38L375 500H392L571 38L715 500H738L581 0H563L384 461L204 0Z" />
			<glyph unicode="x" horiz-adv-x="436"
				d="M34 500H59L218 268L377 500H402L230 253L402 0H377L218 237L59 0H34L206 253L34 500Z" />
			<glyph unicode="y" horiz-adv-x="475" d="M431 500H453L180 -200H157L236 0L21 500H43L246 25L431 500Z" />
			<glyph unicode="z" horiz-adv-x="474" d="M407 477L80 20H417V0H56V22L383 480H65V500H407V477Z" />
			<glyph unicode="{" horiz-adv-x="359"
				d="M52 361Q106 375 129 395T159 437T165 478Q165 512 158 546T144 616T136 689Q136 750 173 775T275 800H307V784H276Q221 784 190 763T158 689Q158 650 165 613T180 542T187 477Q187 434 159 400T66 352V350Q131 337 159
303T187 223Q187 193 180 159T166 88T158 12Q158 -40 189 -62T276 -84H307V-100H275Q211 -100 174 -74T136 12Q136 50 143 85T158 155T165 223Q165 242 159 264T130 307T52 341V361Z" />
			<glyph unicode="|" horiz-adv-x="250" d="M136 800V-100H114V800H136Z" />
			<glyph unicode="}" horiz-adv-x="360"
				d="M307 361V341Q254 328 230 308T200 265T194 223Q194 190 201 156T216 86T223 12Q223 -48 186 -74T84 -100H52V-84H83Q138 -84 169 -62T201 12Q201 51 194 88T180 159T172 223Q172 269 200 303T293 350V352Q229 365 201
399T172 477Q172 508 179 542T194 613T201 689Q201 742 170 763T83 784H52V800H84Q149 800 186 775T223 689Q223 652 216 617T202 547T194 478Q194 460 200 438T230 395T307 361Z" />
			<glyph unicode="~" horiz-adv-x="468"
				d="M67 305Q74 345 94 370T154 395Q179 395 200 385T240 361T278 337T318 326Q348 326 363 347T381 395H402Q396 355 377 330T318 305Q292 305 272 315T232 340T193 364T152 375Q124 375 108 353T88 305H67Z" />
			<glyph unicode="&#xa0;" horiz-adv-x="280" />
			<glyph unicode="&#xa1;" horiz-adv-x="218"
				d="M108 552Q119 552 125 546T132 528Q132 517 126 510T108 503Q99 503 92 510T85 528Q85 539 92 545T108 552ZM92 -148L95 394H115L118 -148H92Z" />
			<glyph unicode="&#xa2;" horiz-adv-x="553" d="M282 600H303V500H282V600ZM282 5H303V-100H282V5ZM290 -7Q217 -7 164 24T81 113T51 249Q51 326 80 384T163 475T289 507Q365 507 421 471T499 371L480 365Q460 422 409 454T289 487Q224 487 176 458T100 375T73
249Q73 141 132 77T290 13Q356 13 405 43T481 133L501 128Q473 63 419 28T290 -7Z" />
			<glyph unicode="&#xa3;" horiz-adv-x="584" d="M322 707Q383 707 426 682T495 615T528 521H506Q498 594 449 641T322 688Q279 688 241 672T179 619T155 523Q155 478 166 439T192 362T218 287T230 208Q230 152 209 109T146 22H522V0H128L123 20Q146 49 165 75T197
133T210 203Q210 245 198 283T171 358T145 435T133 524Q133 577 156 618T221 683T322 707ZM391 346V327H67V346H391Z" />
			<glyph unicode="&#xa4;" horiz-adv-x="510"
				d="M255 549Q295 549 329 528T385 468T407 377Q407 325 386 287T330 227T255 205Q212 205 178 226T125 286T105 377Q105 429 125 467T179 527T255 549ZM255 530Q200 530 163 489T126 377Q126 305 163 265T255 224Q289
224 319 242T367 295T386 377Q386 424 368 458T319 511T255 530ZM150 481L77 553L91 567L156 502L150 481ZM354 502L418 567L433 553L360 481L354 502ZM360 275L433 203L418 189L354 254L360 275ZM156 254L91 189L77 203L150 275L156 254Z" />
			<glyph unicode="&#xa5;" horiz-adv-x="583"
				d="M317 347H504V328H309L317 347ZM82 229H504V208H82V229ZM82 347H268L277 328H82V347ZM530 700H552L304 294V0H282V294L32 700H56L293 316L530 700Z" />
			<glyph unicode="&#xa6;" horiz-adv-x="250" d="M136 269V-100H114V269H136ZM114 432V800H136V432H114Z" />
			<glyph unicode="&#xa7;" horiz-adv-x="432"
				d="M74 604Q74 649 106 678T199 707Q261 707 301 673T350 574H334Q332 600 318 627T275 673T199 692Q151 692 120 671T89 604Q89 578 101 559T140 525T211 499Q255 488 292 471T352 426T375 350Q375 315 356 284T300
234T211 221V218Q244 211 278 198T335 161T358 97Q358 52 326 23T236 -7Q173 -7 132 27T82 125H98Q101 97 115 70T159 26T236 8Q282 8 312 29T343 97Q343 123 331 142T292 175T221 201Q177 213 140 229T80 274T57 350Q57 386 76 417T131 466T221 479V481Q189 489
155 502T98 539T74 604ZM359 350Q359 402 321 434T214 467Q144 467 109 432T73 350Q73 298 111 266T218 233Q288 233 323 268T359 350Z" />
			<glyph unicode="&#xa8;" horiz-adv-x="223"
				d="M44 629Q32 629 23 638T14 659Q14 672 23 681T44 690Q57 690 66 681T75 659Q75 647 66 638T44 629ZM179 629Q167 629 158 638T148 659Q148 672 157 681T179 690Q191 690 200 681T209 659Q209 647 200 638T179 629Z" />
			<glyph unicode="&#xa9;" horiz-adv-x="811" d="M406 707Q508 707 584 661T704 535T747 352Q747 250 704 169T585 40T406 -7Q305 -7 228 40T108 168T64 353Q64 455 107 535T228 661T406 707ZM406 687Q307 687 235 643T124 523T84 352Q84 257 123 180T235 58T406
12Q504 12 576 57T687 180T726 352Q726 447 687 523T576 643T406 687ZM406 95Q334 95 281 126T198 215T168 350Q168 428 197 486T280 576T405 609Q481 609 537 573T616 473L597 467Q576 523 525 556T405 589Q340 589 292 560T217 477T190 351Q190 243 248 179T406
115Q473 115 522 145T598 235L618 230Q590 164 535 130T406 95Z" />
			<glyph unicode="&#xaa;" horiz-adv-x="429" d="M40 528Q40 582 60 622T116 686T202 709Q260 709 298 680T350 601V703H372V354H350V455Q336 406 298 377T202 347Q153 347 117 370T60 434T40 528ZM61 528Q61 454 101 410T202 366Q268 366 309 410T350 528Q350 602
309 646T202 690Q141 690 101 646T61 528Z" />
			<glyph unicode="&#xab;" horiz-adv-x="386"
				d="M183 75H154L48 250L154 425H183L74 250L183 75ZM329 75H300L194 250L300 425H329L220 250L329 75Z" />
			<glyph unicode="&#xac;" horiz-adv-x="654" d="M43 424H597V254H577V403H43V424Z" />
			<glyph unicode="&#xad;" horiz-adv-x="488" d="M62 290H427V270H62V290Z" />
			<glyph unicode="&#xae;" horiz-adv-x="499"
				d="M64 515Q64 569 87 612T153 681T249 707Q304 707 346 682T411 613T435 515Q435 462 412 419T346 350T249 324Q195 324 153 349T88 418T64 515ZM84 515Q84 467 105 428T163 367T249 344Q298 344 335 366T393 428T414
515Q414 564 393 602T335 664T249 687Q200 687 163 664T105 603T84 515ZM182 623V409H203V503H265Q296 503 313 519T331 563Q331 592 314 607T265 623H182ZM310 409L334 410L262 508H239L310 409ZM263 603Q284 603 297 594T310 563Q310 542 297 533T263 523H203V603H263Z" />
			<glyph unicode="&#xaf;" horiz-adv-x="339" d="M14 678H324V658H14V678Z" />
			<glyph unicode="&#xb0;" horiz-adv-x="355" d="M28 525Q28 577 47 616T99 677T177 700Q222 700 255 678T307 616T326 525Q326 474 308 435T256 373T177 350Q111 350 70 399T28 525ZM304 525Q304 598 270 639T177 681Q120 681 85 640T50 525Q50 453 85 411T177
369Q235 369 269 411T304 525Z" />
			<glyph unicode="&#xb1;" horiz-adv-x="775"
				d="M398 622V152H377V622H398ZM133 397H642V378H133V397ZM133 98H642V79H133V98Z" />
			<glyph unicode="&#xb2;" horiz-adv-x="313"
				d="M43 598Q46 641 72 674T155 707Q183 707 205 696T241 663T254 610Q254 579 243 553T211 503T164 454L68 361L63 369H265V350H43V361L157 475Q184 502 208 533T232 610Q232 651 209 669T155 688Q115 688 92 665T65 598H43Z" />
			<glyph unicode="&#xb3;" horiz-adv-x="317"
				d="M43 619Q48 644 62 663T100 695T158 707Q188 707 212 695T251 662T265 611Q265 581 249 559T198 527V525Q228 517 247 494T266 435Q266 401 239 372T155 343Q106 343 77 367T42 440H64Q69 394 94 378T155 362Q198
362 221 382T244 435Q244 473 218 494T152 516H92V535H155Q194 535 218 554T243 611Q243 644 220 665T158 686Q117 686 95 668T65 619H43Z" />
			<glyph unicode="&#xb4;" horiz-adv-x="216" d="M201 740V715L14 585V606L201 740Z" />
			<glyph unicode="&#xb5;" horiz-adv-x="589"
				d="M504 0H482V130Q461 56 410 23T299 -11Q260 -11 222 1T153 45T107 130V-200H86V500H107V244Q107 123 161 66T299 9Q378 9 430 64T482 235V500H504V0Z" />
			<glyph unicode="&#xb6;" horiz-adv-x="529"
				d="M435 700V0H413V681H306V0H284V313H283Q204 313 152 337T74 405T48 506Q48 565 74 608T152 676T283 700H435Z" />
			<glyph unicode="&#xb7;" horiz-adv-x="174"
				d="M86 332Q76 332 70 339T63 356Q63 367 69 374T86 381Q97 381 103 374T110 356Q110 346 104 339T86 332Z" />
			<glyph unicode="&#xb8;" horiz-adv-x="200"
				d="M59 -88Q100 -85 128 -94T170 -121T185 -168Q185 -193 173 -212T137 -243T78 -254H14V-234H75Q125 -234 144 -215T163 -168Q163 -143 144 -125T75 -107H37V7H59V-88Z" />
			<glyph unicode="&#xb9;" horiz-adv-x="170" d="M86 681H32V700H107V350H86V681Z" />
			<glyph unicode="&#xba;" horiz-adv-x="412" d="M38 526Q38 581 60 622T120 686T206 709Q254 709 292 686T351 622T373 526Q373 472 352 431T292 366T206 343Q158 343 120 366T60 430T38 526ZM352 526Q352 604 310 646T206 688Q146 688 103 646T60 526Q60 448 102
406T206 364Q267 364 309 406T352 526Z" />
			<glyph unicode="&#xbb;" horiz-adv-x="385"
				d="M203 75L312 250L203 425H232L338 250L232 75H203ZM57 75L166 250L57 425H86L192 250L86 75H57Z" />
			<glyph unicode="&#xbc;" horiz-adv-x="514"
				d="M427 700H449L69 0H47L427 700ZM476 97V76H421V0H399V76H227V94L404 355H421V97H476ZM400 97V308L253 97H400ZM86 681H32V700H107V350H86V681Z" />
			<glyph unicode="&#xbd;" horiz-adv-x="599" d="M418 700H440L60 0H38L418 700ZM86 681H32V700H107V350H86V681ZM314 248Q317 291 343 324T426 357Q454 357 476 346T512 313T525 260Q525 229 514 203T482 153T435 104L339 11L334 19H536V0H314V11L428 125Q455 152
479 183T503 260Q503 301 480 319T426 338Q386 338 363 315T336 248H314Z" />
			<glyph unicode="&#xbe;" horiz-adv-x="600"
				d="M520 700H542L162 0H141L520 700ZM569 97V76H514V0H493V76H320V94L497 355H514V97H569ZM493 97V308L346 97H493ZM33 619Q37 644 51 663T90 695T148 707Q178 707 202 695T240 662T255 611Q255 581 238 559T188 527V525Q218
517 237 494T256 435Q256 401 229 372T145 343Q96 343 67 367T32 440H54Q59 394 84 378T145 362Q187 362 210 382T234 435Q234 473 208 494T142 516H82V535H145Q184 535 208 554T233 611Q233 644 210 665T148 686Q106 686 84 668T55 619H33Z" />
			<glyph unicode="&#xbf;" horiz-adv-x="543"
				d="M335 539Q345 539 351 533T358 515Q358 504 352 497T335 490Q325 490 318 497T311 515Q311 526 318 532T335 539ZM273 -170Q213 -170 166 -145T91 -76T63 27Q63 109 96 156T189 223T325 244L327 388H345L347 225H331Q287
225 244 218T164 191T107 132T85 27Q85 -27 109 -67T176 -128T273 -150Q358 -150 408 -104T458 19H479Q479 -41 452 -83T378 -148T273 -170Z" />
			<glyph unicode="&#xc0;" horiz-adv-x="613"
				d="M202 909L389 776V755L202 884V909ZM324 680H292L32 0H10L278 700H337L604 0H582L324 680ZM103 230H511V210H103V230Z" />
			<glyph unicode="&#xc1;" horiz-adv-x="613"
				d="M389 909V884L202 755V776L389 909ZM324 680H292L32 0H10L278 700H337L604 0H582L324 680ZM103 230H511V210H103V230Z" />
			<glyph unicode="&#xc2;" horiz-adv-x="613"
				d="M433 788L309 869L185 788V810L309 891L433 810V788ZM324 680H292L32 0H10L278 700H337L604 0H582L324 680ZM103 230H511V210H103V230Z" />
			<glyph unicode="&#xc3;" horiz-adv-x="613" d="M192 764Q195 794 210 812T253 830Q278 830 293 818T322 793T361 781Q376 781 389 792T405 827H424Q422 800 404 781T361 762Q335 762 319 774T288 799T253 811Q235 811 225 800T211 764H192ZM324 680H292L32 0H10L278
700H337L604 0H582L324 680ZM103 230H511V210H103V230Z" />
			<glyph unicode="&#xc4;" horiz-adv-x="613" d="M242 798Q229 798 221 807T212 828Q212 841 220 850T242 859Q254 859 263 850T273 828Q273 816 264 807T242 798ZM377 798Q364 798 355 807T346 828Q346 841 355 850T377 859Q389 859 398 850T407 828Q407 816 398
807T377 798ZM324 680H292L32 0H10L278 700H337L604 0H582L324 680ZM103 230H511V210H103V230Z" />
			<glyph unicode="&#xc5;" horiz-adv-x="613" d="M399 844Q399 802 372 779T308 755Q271 755 245 778T218 844Q218 886 244 910T308 935Q344 935 371 911T399 844ZM378 844Q378 878 358 897T308 916Q278 916 259 897T239 844Q239 811 258 793T308 774Q338 774 358
792T378 844ZM324 680H292L32 0H10L278 700H337L604 0H582L324 680ZM103 230H511V210H103V230Z" />
			<glyph unicode="&#xc6;" horiz-adv-x="864"
				d="M466 680V370H699V350H466V20H789V0H444V210H165L36 0H10L442 700H789V680H466ZM177 230H444V662L177 230Z" />
			<glyph unicode="&#xc7;" horiz-adv-x="759"
				d="M412 -87Q453 -85 481 -93T523 -121T538 -167Q538 -192 526 -211T490 -242T431 -253H367V-233H428Q477 -233 496 -214T516 -167Q516 -142 497 -124T428 -106H390V7H412V-87ZM48 350Q48 429 72 494T140 607T245 681T377
707Q498 707 576 653T692 508L674 501Q652 555 612 597T513 663T377 687Q292 687 223 647T112 531T70 350Q70 245 111 170T222 54T377 13Q455 12 515 37T616 108T678 208L696 201Q659 107 580 50T377 -7Q305 -7 245 19T141 93T72 206T48 350Z" />
			<glyph unicode="&#xc8;" horiz-adv-x="604"
				d="M205 909L392 776V755L205 884V909ZM529 680H117V370H426V350H117V20H529V0H95V700H529V680Z" />
			<glyph unicode="&#xc9;" horiz-adv-x="604"
				d="M392 909V884L205 755V776L392 909ZM529 680H117V370H426V350H117V20H529V0H95V700H529V680Z" />
			<glyph unicode="&#xca;" horiz-adv-x="604"
				d="M436 788L312 869L188 788V810L312 891L436 810V788ZM529 680H117V370H426V350H117V20H529V0H95V700H529V680Z" />
			<glyph unicode="&#xcb;" horiz-adv-x="604" d="M245 798Q232 798 224 807T215 828Q215 841 223 850T245 859Q258 859 267 850T276 828Q276 816 267 807T245 798ZM380 798Q367 798 358 807T349 828Q349 841 358 850T380 859Q392 859 401 850T410 828Q410 816 401
807T380 798ZM529 680H117V370H426V350H117V20H529V0H95V700H529V680Z" />
			<glyph unicode="&#xcc;" horiz-adv-x="212" d="M-1 909L186 776V755L-1 884V909ZM95 700H117V0H95V700Z" />
			<glyph unicode="&#xcd;" horiz-adv-x="212" d="M186 909V884L-1 755V776L186 909ZM95 700H117V0H95V700Z" />
			<glyph unicode="&#xce;" horiz-adv-x="212"
				d="M230 788L106 869L-18 788V810L106 891L230 810V788ZM95 700H117V0H95V700Z" />
			<glyph unicode="&#xcf;" horiz-adv-x="212" d="M39 798Q26 798 18 807T9 828Q9 841 17 850T39 859Q52 859 61 850T70 828Q70 816 61 807T39 798ZM174 798Q161 798 152 807T143 828Q143 841 152 850T174 859Q186 859 195 850T204 828Q204 816 195 807T174 798ZM95
700H117V0H95V700Z" />
			<glyph unicode="&#xd0;" horiz-adv-x="795"
				d="M75 360H189V700H375Q497 700 580 659T705 539T747 350Q747 239 705 161T580 42T375 0H189V340H75V360ZM211 19H375Q551 19 638 108T725 350Q725 503 638 592T375 681H211V360H443V340H211V19Z" />
			<glyph unicode="&#xd1;" horiz-adv-x="681" d="M223 764Q227 794 242 812T284 830Q309 830 324 818T354 793T392 781Q408 781 420 792T436 827H455Q454 800 436 781T392 762Q366 762 350 774T320 799T284 811Q267 811 256 800T242 764H223ZM586 700V0H565L117
661V0H95V700H116L564 39V700H586Z" />
			<glyph unicode="&#xd2;" horiz-adv-x="768"
				d="M288 909L475 776V755L288 884V909ZM385 -7Q311 -7 250 19T143 92T73 205T48 350Q48 429 72 494T142 607T249 681T385 707Q458 707 519 681T626 608T696 495T721 350Q721 271 696 206T626 93T520 19T385 -7ZM385
13Q472 13 542 53T655 169T698 350Q698 455 656 530T543 646T385 687Q297 687 226 647T113 531T71 350Q71 245 113 170T226 54T385 13Z" />
			<glyph unicode="&#xd3;" horiz-adv-x="768"
				d="M475 909V884L288 755V776L475 909ZM385 -7Q311 -7 250 19T143 92T73 205T48 350Q48 429 72 494T142 607T249 681T385 707Q458 707 519 681T626 608T696 495T721 350Q721 271 696 206T626 93T520 19T385 -7ZM385
13Q472 13 542 53T655 169T698 350Q698 455 656 530T543 646T385 687Q297 687 226 647T113 531T71 350Q71 245 113 170T226 54T385 13Z" />
			<glyph unicode="&#xd4;" horiz-adv-x="768"
				d="M519 788L395 869L271 788V810L395 891L519 810V788ZM385 -7Q311 -7 250 19T143 92T73 205T48 350Q48 429 72 494T142 607T249 681T385 707Q458 707 519 681T626 608T696 495T721 350Q721 271 696 206T626 93T520
19T385 -7ZM385 13Q472 13 542 53T655 169T698 350Q698 455 656 530T543 646T385 687Q297 687 226 647T113 531T71 350Q71 245 113 170T226 54T385 13Z" />
			<glyph unicode="&#xd5;" horiz-adv-x="768" d="M278 764Q281 794 296 812T339 830Q364 830 379 818T408 793T447 781Q462 781 475 792T491 827H510Q508 800 490 781T447 762Q421 762 405 774T374 799T339 811Q321 811 311 800T297 764H278ZM385 -7Q311 -7 250
19T143 92T73 205T48 350Q48 429 72 494T142 607T249 681T385 707Q458 707 519 681T626 608T696 495T721 350Q721 271 696 206T626 93T520 19T385 -7ZM385 13Q472 13 542 53T655 169T698 350Q698 455 656 530T543 646T385 687Q297 687 226 647T113 531T71 350Q71
245 113 170T226 54T385 13Z" />
			<glyph unicode="&#xd6;" horiz-adv-x="768" d="M328 798Q315 798 307 807T298 828Q298 841 306 850T328 859Q340 859 349 850T359 828Q359 816 350 807T328 798ZM463 798Q450 798 441 807T432 828Q432 841 441 850T463 859Q475 859 484 850T493 828Q493 816 484
807T463 798ZM385 -7Q311 -7 250 19T143 92T73 205T48 350Q48 429 72 494T142 607T249 681T385 707Q458 707 519 681T626 608T696 495T721 350Q721 271 696 206T626 93T520 19T385 -7ZM385 13Q472 13 542 53T655 169T698 350Q698 455 656 530T543 646T385 687Q297
687 226 647T113 531T71 350Q71 245 113 170T226 54T385 13Z" />
			<glyph unicode="&#xd7;" horiz-adv-x="533"
				d="M86 545L461 170L446 155L71 530L86 545ZM72 170L446 544L460 530L86 156L72 170Z" />
			<glyph unicode="&#xd8;" horiz-adv-x="768"
				d="M615 609L629 596L164 93L148 104L615 609ZM385 -7Q311 -7 250 19T143 92T73 205T48 350Q48 429 72 494T142 607T249 681T385 707Q458 707 519 681T626 608T696 495T721 350Q721 271 696 206T626 93T520 19T385 -7ZM385
13Q472 13 542 53T655 169T698 350Q698 455 656 530T543 646T385 687Q297 687 226 647T113 531T71 350Q71 245 113 170T226 54T385 13Z" />
			<glyph unicode="&#xd9;" horiz-adv-x="672"
				d="M228 909L415 776V755L228 884V909ZM90 700H112V265Q112 173 143 118T225 38T338 13Q399 13 449 37T529 117T559 265V700H581V265Q581 193 563 142T512 57T435 9T338 -7Q269 -7 213 21T124 109T90 265V700Z" />
			<glyph unicode="&#xda;" horiz-adv-x="672"
				d="M415 909V884L228 755V776L415 909ZM90 700H112V265Q112 173 143 118T225 38T338 13Q399 13 449 37T529 117T559 265V700H581V265Q581 193 563 142T512 57T435 9T338 -7Q269 -7 213 21T124 109T90 265V700Z" />
			<glyph unicode="&#xdb;" horiz-adv-x="672"
				d="M459 788L335 869L211 788V810L335 891L459 810V788ZM90 700H112V265Q112 173 143 118T225 38T338 13Q399 13 449 37T529 117T559 265V700H581V265Q581 193 563 142T512 57T435 9T338 -7Q269 -7 213 21T124 109T90 265V700Z" />
			<glyph unicode="&#xdc;" horiz-adv-x="672"
				d="M268 798Q256 798 247 807T238 828Q238 841 247 850T268 859Q281 859 290 850T299 828Q299 816 290 807T268 798ZM403 798Q391 798 382 807T372 828Q372 841 381 850T403 859Q415 859 424 850T433 828Q433 816 424
807T403 798ZM90 700H112V265Q112 173 143 118T225 38T338 13Q399 13 449 37T529 117T559 265V700H581V265Q581 193 563 142T512 57T435 9T338 -7Q269 -7 213 21T124 109T90 265V700Z" />
			<glyph unicode="&#xdd;" horiz-adv-x="583"
				d="M373 909V884L186 755V776L373 909ZM530 700H552L304 294V0H282V294L32 700H56L293 316L530 700Z" />
			<glyph unicode="&#xde;" horiz-adv-x="546"
				d="M274 180Q387 180 432 226T477 350Q477 431 432 476T274 522H117V180H274ZM499 350Q499 286 474 243T398 179T274 158H117V0H95V700H117V543H274Q354 543 403 519T476 452T499 350Z" />
			<glyph unicode="&#xdf;" horiz-adv-x="582"
				d="M86 517Q86 575 107 617T170 683T267 707Q321 707 359 690T418 643T439 572Q439 543 427 523T396 487T357 454Q331 432 312 411T292 362Q292 332 317 313T413 271Q475 251 503 215T531 129Q531 68 493 31T387 -7Q316
-7 270 36T215 151H237Q244 88 284 50T387 12Q444 12 476 44T509 129Q509 173 482 204T397 255Q323 278 297 301T270 361Q270 397 292 422T342 469Q370 492 393 513T417 572Q417 622 378 654T267 687Q217 687 181 666T127 607T108 517V0H86V517Z" />
			<glyph unicode="&#xe0;" horiz-adv-x="524"
				d="M161 694L334 570V551L161 671V694ZM425 0V138Q406 68 355 31T224 -7Q169 -7 131 8T73 54T53 128Q53 190 100 227T248 275L425 295V341Q425 413 384 450T267 487Q195 487 149 454T89 360L70 367Q87 436 136 471T265
507Q352 507 399 466T447 349V0H425ZM425 274L247 255Q155 245 115 214T75 129Q75 73 113 43T221 12Q284 12 330 38T400 114T425 231V274Z" />
			<glyph unicode="&#xe1;" horiz-adv-x="524"
				d="M334 694V671L161 551V570L334 694ZM425 0V138Q406 68 355 31T224 -7Q169 -7 131 8T73 54T53 128Q53 190 100 227T248 275L425 295V341Q425 413 384 450T267 487Q195 487 149 454T89 360L70 367Q87 436 136 471T265
507Q352 507 399 466T447 349V0H425ZM425 274L247 255Q155 245 115 214T75 129Q75 73 113 43T221 12Q284 12 330 38T400 114T425 231V274Z" />
			<glyph unicode="&#xe2;" horiz-adv-x="524"
				d="M375 582L260 657L145 582V603L260 678L375 603V582ZM425 0V138Q406 68 355 31T224 -7Q169 -7 131 8T73 54T53 128Q53 190 100 227T248 275L425 295V341Q425 413 384 450T267 487Q195 487 149 454T89 360L70 367Q87
436 136 471T265 507Q352 507 399 466T447 349V0H425ZM425 274L247 255Q155 245 115 214T75 129Q75 73 113 43T221 12Q284 12 330 38T400 114T425 231V274Z" />
			<glyph unicode="&#xe3;" horiz-adv-x="524" d="M152 559Q155 588 169 604T208 621Q231 621 245 610T272 587T308 575Q323 575 334 586T349 618H366Q365 593 349 575T308 557Q284 557 269 568T241 592T208 604Q192 604 182 593T169 559H152ZM425 0V138Q406 68 355
31T224 -7Q169 -7 131 8T73 54T53 128Q53 190 100 227T248 275L425 295V341Q425 413 384 450T267 487Q195 487 149 454T89 360L70 367Q87 436 136 471T265 507Q352 507 399 466T447 349V0H425ZM425 274L247 255Q155 245 115 214T75 129Q75 73 113 43T221 12Q284
12 330 38T400 114T425 231V274Z" />
			<glyph unicode="&#xe4;" horiz-adv-x="524" d="M198 592Q186 592 178 600T170 619Q170 631 178 639T198 648Q210 648 218 640T227 619Q227 608 219 600T198 592ZM323 592Q311 592 303 600T294 619Q294 631 302 639T323 648Q334 648 342 640T351 619Q351 608 343
600T323 592ZM425 0V138Q406 68 355 31T224 -7Q169 -7 131 8T73 54T53 128Q53 190 100 227T248 275L425 295V341Q425 413 384 450T267 487Q195 487 149 454T89 360L70 367Q87 436 136 471T265 507Q352 507 399 466T447 349V0H425ZM425 274L247 255Q155 245 115
214T75 129Q75 73 113 43T221 12Q284 12 330 38T400 114T425 231V274Z" />
			<glyph unicode="&#xe5;" horiz-adv-x="524" d="M343 634Q343 595 318 573T259 551Q225 551 201 573T176 634Q176 673 200 695T259 718Q293 718 318 696T343 634ZM324 634Q324 665 306 683T259 701Q231 701 213 683T195 634Q195 604 213 586T259 568Q287 568 305
586T324 634ZM425 0V138Q406 68 355 31T224 -7Q169 -7 131 8T73 54T53 128Q53 190 100 227T248 275L425 295V341Q425 413 384 450T267 487Q195 487 149 454T89 360L70 367Q87 436 136 471T265 507Q352 507 399 466T447 349V0H425ZM425 274L247 255Q155 245 115
214T75 129Q75 73 113 43T221 12Q284 12 330 38T400 114T425 231V274Z" />
			<glyph unicode="&#xe6;" horiz-adv-x="925"
				d="M653 -7Q584 -7 533 25T455 116T427 255Q427 373 488 440T653 507Q728 507 777 476T849 395T873 291Q873 284 873 274T873 250H446Q447 168 476 116T552 38T653 13Q726 13 776 45T850 136L866 129Q844 68 791 31T653
-7ZM853 270Q858 341 832 389T758 462T653 487Q600 487 554 464T478 394T446 270H853ZM434 250L441 180Q428 113 397 72T321 12T224 -7Q175 -7 136 9T75 56T53 132Q53 178 75 206T129 248T194 267T248 275L425 292V347Q425 408 386 447T267 487Q205 487 155 458T89
360L70 367Q88 440 139 473T265 507Q346 507 394 468T443 349V260L434 250ZM425 272L247 255Q171 247 123 221T75 132Q75 73 118 43T221 13Q287 13 332 41T401 120T425 234V272Z" />
			<glyph unicode="&#xe7;" horiz-adv-x="553"
				d="M298 -80Q336 -78 362 -86T401 -111T415 -154Q415 -178 404 -195T370 -223T316 -234H257V-215H313Q359 -215 377 -198T395 -154Q395 -132 377 -115T313 -98H278V7H298V-80ZM290 -7Q217 -7 164 24T81 113T51 249Q51
326 80 384T163 475T289 507Q365 507 421 471T499 371L480 365Q460 422 409 454T289 487Q224 487 176 458T100 375T73 249Q73 141 132 77T290 13Q356 13 405 43T481 133L501 128Q473 63 419 28T290 -7Z" />
			<glyph unicode="&#xe8;" horiz-adv-x="554"
				d="M185 694L358 570V551L185 671V694ZM280 -7Q212 -7 161 26T80 118T51 255Q51 329 80 386T161 475T280 507Q344 507 394 479T473 402T502 291Q502 284 502 273T502 250H73Q74 180 100 127T173 43T280 13Q350 13 401
45T477 136L495 129Q470 64 414 29T280 -7ZM480 270Q482 334 458 383T388 459T280 487Q222 487 176 459T103 382T73 270H480Z" />
			<glyph unicode="&#xe9;" horiz-adv-x="554"
				d="M358 694V671L185 551V570L358 694ZM280 -7Q212 -7 161 26T80 118T51 255Q51 329 80 386T161 475T280 507Q344 507 394 479T473 402T502 291Q502 284 502 273T502 250H73Q74 180 100 127T173 43T280 13Q350 13 401
45T477 136L495 129Q470 64 414 29T280 -7ZM480 270Q482 334 458 383T388 459T280 487Q222 487 176 459T103 382T73 270H480Z" />
			<glyph unicode="&#xea;" horiz-adv-x="554"
				d="M399 582L284 657L170 582V603L284 678L399 603V582ZM280 -7Q212 -7 161 26T80 118T51 255Q51 329 80 386T161 475T280 507Q344 507 394 479T473 402T502 291Q502 284 502 273T502 250H73Q74 180 100 127T173 43T280
13Q350 13 401 45T477 136L495 129Q470 64 414 29T280 -7ZM480 270Q482 334 458 383T388 459T280 487Q222 487 176 459T103 382T73 270H480Z" />
			<glyph unicode="&#xeb;" horiz-adv-x="554" d="M222 592Q211 592 203 600T195 619Q195 631 203 639T222 648Q234 648 242 640T251 619Q251 608 243 600T222 592ZM347 592Q335 592 327 600T319 619Q319 631 327 639T347 648Q358 648 366 640T375 619Q375 608 367
600T347 592ZM280 -7Q212 -7 161 26T80 118T51 255Q51 329 80 386T161 475T280 507Q344 507 394 479T473 402T502 291Q502 284 502 273T502 250H73Q74 180 100 127T173 43T280 13Q350 13 401 45T477 136L495 129Q470 64 414 29T280 -7ZM480 270Q482 334 458 383T388
459T280 487Q222 487 176 459T103 382T73 270H480Z" />
			<glyph unicode="&#xec;" horiz-adv-x="193" d="M-2 695L171 571V552L-2 672V695ZM86 500H108V0H86V500Z" />
			<glyph unicode="&#xed;" horiz-adv-x="193" d="M171 695V672L-2 552V571L171 695ZM86 500H108V0H86V500Z" />
			<glyph unicode="&#xee;" horiz-adv-x="193"
				d="M211 583L96 658L-18 583V604L96 679L211 604V583ZM86 500H108V0H86V500Z" />
			<glyph unicode="&#xef;" horiz-adv-x="193" d="M35 593Q23 593 15 601T7 620Q7 632 15 640T35 649Q46 649 54 641T63 620Q63 609 55 601T35 593ZM159 593Q148 593 140 601T131 620Q131 632 139 640T159 649Q171 649 179 641T187 620Q187 609 179 601T159 593ZM86
500H108V0H86V500Z" />
			<glyph unicode="&#xf0;" horiz-adv-x="594"
				d="M513 688V668L400 627Q475 551 508 466T542 285Q542 187 511 122T424 25T296 -7Q220 -7 165 26T81 119T51 259Q51 333 81 389T167 476T296 507Q345 507 389 491T468 438T521 340Q510 423 476 486T381 620L230 565V585L367
635Q350 651 332 667T292 700H317Q355 672 386 642L513 688ZM296 13Q358 13 408 41T488 122T518 251Q518 329 488 381T408 460T296 487Q233 487 183 461T103 383T74 259Q74 180 102 125T181 42T296 13Z" />
			<glyph unicode="&#xf1;" horiz-adv-x="562"
				d="M161 559Q165 588 179 604T218 621Q241 621 255 610T282 587T318 575Q332 575 344 586T358 618H376Q375 593 358 575T318 557Q294 557 279 568T251 592T218 604Q202 604 192 593T179 559H161ZM86 500H108V370Q124
433 169 470T293 507Q347 507 390 483T460 410T486 282V0H464V283Q464 382 418 435T292 488Q208 488 158 430T108 256V0H86V500Z" />
			<glyph unicode="&#xf2;" horiz-adv-x="581" d="M198 694L371 570V551L198 671V694ZM291 -7Q222 -7 168 24T83 112T51 250Q51 329 82 387T168 476T291 507Q360 507 413 476T498 387T529 250Q529 170 498 113T414 24T291 -7ZM291 13Q347 13 396 38T476 116T507 250Q507
331 477 383T397 461T291 487Q235 487 186 462T105 384T74 250Q74 169 105 117T185 39T291 13Z" />
			<glyph unicode="&#xf3;" horiz-adv-x="581" d="M371 694V671L198 551V570L371 694ZM291 -7Q222 -7 168 24T83 112T51 250Q51 329 82 387T168 476T291 507Q360 507 413 476T498 387T529 250Q529 170 498 113T414 24T291 -7ZM291 13Q347 13 396 38T476 116T507 250Q507
331 477 383T397 461T291 487Q235 487 186 462T105 384T74 250Q74 169 105 117T185 39T291 13Z" />
			<glyph unicode="&#xf4;" horiz-adv-x="581" d="M412 582L297 657L183 582V603L297 678L412 603V582ZM291 -7Q222 -7 168 24T83 112T51 250Q51 329 82 387T168 476T291 507Q360 507 413 476T498 387T529 250Q529 170 498 113T414 24T291 -7ZM291 13Q347 13 396
38T476 116T507 250Q507 331 477 383T397 461T291 487Q235 487 186 462T105 384T74 250Q74 169 105 117T185 39T291 13Z" />
			<glyph unicode="&#xf5;" horiz-adv-x="581"
				d="M189 559Q193 588 207 604T245 621Q269 621 283 610T310 587T345 575Q360 575 371 586T386 618H404Q402 593 386 575T345 557Q321 557 307 568T279 592T245 604Q230 604 220 593T207 559H189ZM291 -7Q222 -7 168
24T83 112T51 250Q51 329 82 387T168 476T291 507Q360 507 413 476T498 387T529 250Q529 170 498 113T414 24T291 -7ZM291 13Q347 13 396 38T476 116T507 250Q507 331 477 383T397 461T291 487Q235 487 186 462T105 384T74 250Q74 169 105 117T185 39T291 13Z" />
			<glyph unicode="&#xf6;" horiz-adv-x="581" d="M235 592Q224 592 216 600T208 619Q208 631 216 639T235 648Q247 648 255 640T264 619Q264 608 256 600T235 592ZM360 592Q348 592 340 600T332 619Q332 631 340 639T360 648Q371 648 379 640T388 619Q388 608 380
600T360 592ZM291 -7Q222 -7 168 24T83 112T51 250Q51 329 82 387T168 476T291 507Q360 507 413 476T498 387T529 250Q529 170 498 113T414 24T291 -7ZM291 13Q347 13 396 38T476 116T507 250Q507 331 477 383T397 461T291 487Q235 487 186 462T105 384T74 250Q74
169 105 117T185 39T291 13Z" />
			<glyph unicode="&#xf7;" horiz-adv-x="651" d="M71 362H580V343H71V362ZM333 112Q323 112 317 119T310 136Q310 147 316 154T333 161Q343 161 350 154T357 136Q357 126 350 119T333 112ZM333 540Q323 540 317 547T310 564Q310 575 316 582T333 589Q343 589 350
582T357 564Q357 554 350 547T333 540Z" />
			<glyph unicode="&#xf8;" horiz-adv-x="581" d="M454 434L467 420L141 62L126 74L454 434ZM291 -7Q222 -7 168 24T83 112T51 250Q51 329 82 387T168 476T291 507Q360 507 413 476T498 387T529 250Q529 170 498 113T414 24T291 -7ZM291 13Q347 13 396 38T476 116T507
250Q507 331 477 383T397 461T291 487Q235 487 186 462T105 384T74 250Q74 169 105 117T185 39T291 13Z" />
			<glyph unicode="&#xf9;" horiz-adv-x="561"
				d="M172 694L345 570V551L172 671V694ZM476 0H455L454 124Q438 62 393 28T270 -7Q216 -7 172 15T103 87T77 213V500H99V211Q99 112 143 63T270 13Q355 13 404 68T454 239V500H476V0Z" />
			<glyph unicode="&#xfa;" horiz-adv-x="561"
				d="M345 694V671L172 551V570L345 694ZM476 0H455L454 124Q438 62 393 28T270 -7Q216 -7 172 15T103 87T77 213V500H99V211Q99 112 143 63T270 13Q355 13 404 68T454 239V500H476V0Z" />
			<glyph unicode="&#xfb;" horiz-adv-x="561"
				d="M386 582L271 657L156 582V603L271 678L386 603V582ZM476 0H455L454 124Q438 62 393 28T270 -7Q216 -7 172 15T103 87T77 213V500H99V211Q99 112 143 63T270 13Q355 13 404 68T454 239V500H476V0Z" />
			<glyph unicode="&#xfc;" horiz-adv-x="561"
				d="M209 592Q197 592 189 600T181 619Q181 631 189 639T209 648Q221 648 229 640T238 619Q238 608 230 600T209 592ZM334 592Q322 592 314 600T305 619Q305 631 313 639T334 648Q345 648 353 640T362 619Q362 608 354
600T334 592ZM476 0H455L454 124Q438 62 393 28T270 -7Q216 -7 172 15T103 87T77 213V500H99V211Q99 112 143 63T270 13Q355 13 404 68T454 239V500H476V0Z" />
			<glyph unicode="&#xfd;" horiz-adv-x="475"
				d="M312 694V671L139 551V570L312 694ZM431 500H453L180 -200H157L236 0L21 500H43L246 25L431 500Z" />
			<glyph unicode="&#xfe;" horiz-adv-x="626" d="M107 -234H86V687H107V346Q126 417 185 462T331 508Q402 508 457 477T543 388T575 251Q575 172 544 114T457 25T331 -7Q275 -7 230 14T153 73T107 155V-234ZM553 251Q553 324 525 377T447 459T331 488Q267 488 217
459T137 376T107 251Q107 180 136 126T216 43T331 13Q397 13 447 42T525 124T553 251Z" />
			<glyph unicode="&#xff;" horiz-adv-x="475" d="M176 592Q165 592 157 600T149 619Q149 631 157 639T176 648Q188 648 196 640T205 619Q205 608 197 600T176 592ZM301 592Q289 592 281 600T273 619Q273 631 281 639T301 648Q312 648 320 640T329 619Q329 608 321
600T301 592ZM431 500H453L180 -200H157L236 0L21 500H43L246 25L431 500Z" />
			<glyph unicode="&#x2013;" horiz-adv-x="625" d="M62 290H564V270H62V290Z" />
			<glyph unicode="&#x2014;" horiz-adv-x="809" d="M62 290H748V270H62V290Z" />
			<glyph unicode="&#x2018;" horiz-adv-x="202" d="M155 700L101 510H67L136 700H155Z" />
			<glyph unicode="&#x2019;" horiz-adv-x="202" d="M48 510L102 700H136L67 510H48Z" />
			<glyph unicode="&#x201a;" horiz-adv-x="203" d="M48 -100L103 90H137L68 -100H48Z" />
			<glyph unicode="&#x201c;" horiz-adv-x="310"
				d="M155 700L101 510H67L136 700H155ZM263 700L209 510H175L244 700H263Z" />
			<glyph unicode="&#x201d;" horiz-adv-x="310"
				d="M156 510L210 700H244L175 510H156ZM48 510L102 700H136L67 510H48Z" />
			<glyph unicode="&#x201e;" horiz-adv-x="313"
				d="M48 -100L103 90H137L68 -100H48ZM159 -100L213 90H247L178 -100H159Z" />
			<glyph unicode="&#x2022;" horiz-adv-x="426"
				d="M213 235Q186 235 164 248T128 284T114 333Q114 361 127 383T163 419T213 433Q241 433 263 420T298 384T312 333Q312 306 299 284T263 249T213 235Z" />
			<glyph unicode="&#x2039;" horiz-adv-x="240" d="M183 75H154L48 250L154 425H183L74 250L183 75Z" />
			<glyph unicode="&#x203a;" horiz-adv-x="239" d="M57 75L166 250L57 425H86L192 250L86 75H57Z" />
		</font>
</defs>
</svg>
