<?xml version="1.0" standalone="no"?>
<!DOCTYPE svg PUBLIC "-//W3C//DTD SVG 1.1//EN" "http://www.w3.org/Graphics/SVG/1.1/DTD/svg11.dtd">
<svg xmlns="http://www.w3.org/2000/svg">
	<defs>
		<font id="AlbertSans" horiz-adv-x="563">
			<font-face font-family="Albert Sans ExtraLight" units-per-em="1000" panose-1="0 0 0 0 0 0 0 0 0 0"
				ascent="950" descent="-250" alphabetic="0" />
			<glyph unicode=" " horiz-adv-x="280" />
			<glyph unicode="!" horiz-adv-x="230"
				d="M180 700H222L112 167H78L180 700ZM65 -1Q51 -1 44 8T40 32Q43 46 54 55T78 65Q92 65 99 56T104 32Q100 18 89 9T65 -1Z" />
			<glyph unicode="&quot;" horiz-adv-x="253"
				d="M145 700H190L145 517H118L145 700ZM243 700H288L243 517H216L243 700Z" />
			<glyph unicode="#" horiz-adv-x="770"
				d="M391 700H428L342 488H582L669 700H706L620 488H771L764 454H606L531 267H683L677 233H517L422 0H385L480 233H239L145 0H107L202 233H43L50 267H216L291 454H129L136 488H305L391 700ZM253 267H493L569 454H328L253 267Z" />
			<glyph unicode="$" horiz-adv-x="552"
				d="M366 775H395L226 -75H197L366 775ZM71 156Q72 127 86 98T136 48T237 28Q326 28 378 69T444 172Q453 222 435 253T379 303T293 338Q254 349 219 362T158 395T121 445T118 520Q129 576 163 618T250 683T368 707Q427 707
465 689T524 641T549 577L513 564Q510 588 494 613T445 656T362 674Q314 674 271 657T198 606T157 526Q148 477 168 449T226 405T313 373Q352 361 387 346T446 309T481 255T482 176Q473 127 443 86T361 19T231 -7Q163 -7 121 13T57 67T34 142L71 156Z" />
			<glyph unicode="%" horiz-adv-x="700" d="M119 573Q127 612 150 642T206 690T278 707Q334 707 364 670T383 573Q376 533 353 503T296 456T224 438Q168 438 138 476T119 573ZM272 679Q229 679 196 650T153 573Q143 525 165 496T230 466Q273 466 306 495T349 573Q359
620 338 649T272 679ZM629 700H669L111 0H71L629 700ZM358 127Q365 167 388 197T444 244T515 262Q573 262 602 224T621 127Q613 88 590 58T533 11T462 -7Q405 -7 375 30T358 127ZM510 234Q466 234 433 204T390 127Q381 80 402 51T468 21Q511 21 544 50T587 127Q596
174 575 204T510 234Z" />
			<glyph unicode="&amp;" horiz-adv-x="716"
				d="M509 620Q487 647 452 660T374 673Q293 673 243 632T180 526Q171 479 188 446T252 396T381 378H590L584 343H375Q261 343 188 305T99 182Q90 139 102 104T149 49T245 29Q336 29 387 70T458 207L480 315H517L496 207Q480
128 445 81T357 14T239 -7Q163 -7 121 18T64 86T60 180Q76 262 134 305T271 359L272 364Q213 371 183 395T144 455T142 529Q152 578 183 618T264 683T380 707Q437 707 478 690T543 642L509 620ZM543 642L509 620L543 642ZM462 377Q473 377 480 381T493 393T500
411L518 500H554L529 377H556L550 343H523L483 142Q473 92 499 62T574 31Q582 31 591 32T611 34L604 3Q593 0 582 -1T559 -3Q521 -3 492 14T450 64T445 142L485 343H405L411 377H462Z" />
			<glyph unicode="&apos;" horiz-adv-x="170" d="M149 700H200L152 517H125L149 700Z" />
			<glyph unicode="(" horiz-adv-x="366"
				d="M196 -100Q150 -44 118 22T75 168T84 350Q104 450 147 530T249 677T380 800H421L420 795Q337 730 277 661T178 515T121 350Q104 262 112 186T152 40T239 -95L238 -100H196Z" />
			<glyph unicode=")" horiz-adv-x="367"
				d="M31 -100H-10L-9 -95Q72 -29 131 40T229 185T285 350Q302 438 294 514T253 660T164 795V800H206Q254 744 287 678T331 531T322 350Q302 249 260 169T159 22T31 -100Z" />
			<glyph unicode="*" horiz-adv-x="466"
				d="M307 565L462 649L473 619L313 546L446 473L423 442L299 526L271 360H238L276 526L120 442L109 473L270 546L140 619L163 649L284 565L312 729H346L307 565Z" />
			<glyph unicode="+" horiz-adv-x="647" d="M412 605L310 95H274L376 605H412ZM92 366H601L595 333H86L92 366Z" />
			<glyph unicode="," horiz-adv-x="232" d="M88 102H133L-8 -152H-39L88 102Z" />
			<glyph unicode="-" horiz-adv-x="511" d="M78 296H451L445 263H72L78 296Z" />
			<glyph unicode="." horiz-adv-x="203"
				d="M51 -3Q37 -3 30 6T26 30Q29 44 39 53T64 63Q77 63 84 54T90 30Q87 16 76 7T51 -3Z" />
			<glyph unicode="/" horiz-adv-x="279" d="M349 800H388L-32 -100H-70L349 800Z" />
			<glyph unicode="0" horiz-adv-x="609"
				d="M94 350Q109 426 131 491T188 605T272 680T395 707Q466 707 506 680T562 605T574 492T555 350Q540 273 518 208T461 94T375 20T253 -7Q181 -7 142 19T87 94T75 207T94 350ZM517 350Q530 418 534 477T528 579T484 648T388
673Q326 673 283 648T212 580T165 477T132 350Q118 280 114 222T120 119T165 51T260 27Q322 27 365 51T437 119T484 221T517 350Z" />
			<glyph unicode="1" horiz-adv-x="280" d="M233 666H129L136 700H278L139 0H100L233 666Z" />
			<glyph unicode="2" horiz-adv-x="603" d="M18 26L288 241Q367 305 416 350T490 433T524 513Q538 585 502 629T386 673Q325 673 278 647T200 576T157 474H120Q135 548 174 600T270 679T393 707Q456 707 498 683T557 615T563 513Q554 468 528 427T451 338T315 222L80
34H489L483 0H12L18 26Z" />
			<glyph unicode="3" horiz-adv-x="595"
				d="M126 512Q143 572 181 615T274 683T397 707Q463 707 503 683T559 619T565 529Q557 491 535 456T471 396T369 364L368 359Q417 352 452 331T503 272T508 180Q497 129 466 86T383 18T254 -7Q183 -7 136 13T66 79T51 199H89Q81
113 123 71T262 29Q323 29 366 49T435 104T470 182Q487 266 430 304T258 343H239L246 378H265Q346 378 400 395T485 446T525 526Q538 590 504 631T389 673Q342 673 297 656T217 604T163 512H126Z" />
			<glyph unicode="4" horiz-adv-x="651"
				d="M422 183H32L39 212L520 700H564L467 217H583L576 183H461L425 0H386L422 183ZM430 217L516 652L84 217H430Z" />
			<glyph unicode="5" horiz-adv-x="618" d="M602 700L595 666H207L149 375Q184 414 240 438T361 463Q423 463 463 444T524 393T549 320T546 237Q533 174 498 118T403 28T261 -7Q196 -7 151 17T83 86T62 192H99Q100 111 145 70T267 29Q335 29 384 56T465 130T507
236Q525 326 485 377T350 429Q285 429 229 401T136 324H100L176 700H602Z" />
			<glyph unicode="6" horiz-adv-x="601" d="M254 -7Q177 -7 129 25T64 113T59 233Q68 279 90 322T154 412L405 700H446L187 402L96 305Q131 378 198 422T351 467Q422 467 469 438T536 355T542 232Q528 162 488 108T387 24T254 -7ZM98 234Q85 172 101 126T157 53T261
27Q322 27 372 53T457 125T504 232Q516 293 500 337T444 407T341 433Q280 433 229 408T143 339T98 234Z" />
			<glyph unicode="7" horiz-adv-x="550" d="M594 700L587 670L175 0H136L552 666H129L136 700H594Z" />
			<glyph unicode="8" horiz-adv-x="634"
				d="M253 369Q182 387 156 429T141 530Q152 582 187 622T278 684T408 707Q481 707 528 685T594 622T603 530Q592 472 549 430T428 369Q501 355 535 310T557 193Q544 131 505 87T405 18T266 -7Q188 -7 137 17T64 86T55 193Q69
264 122 309T253 369ZM564 527Q579 600 534 636T401 673Q315 673 255 637T179 527Q166 457 210 421T344 384Q432 384 491 420T564 527ZM337 351Q280 351 229 336T141 287T94 193Q77 112 126 70T273 27Q369 27 435 70T518 193Q530 251 508 286T440 336T337 351Z" />
			<glyph unicode="9" horiz-adv-x="601" d="M387 707Q464 707 512 675T577 588T583 467Q573 422 551 379T487 288L236 0H195L455 298L545 395Q509 322 443 278T291 233Q219 233 172 262T105 345T99 468Q113 539 154 592T255 676T387 707ZM544 466Q556 528 540 574T483
647T381 673Q319 673 269 647T184 575T138 468Q125 408 141 363T197 293T300 267Q362 267 413 292T498 362T544 466Z" />
			<glyph unicode=":" horiz-adv-x="212"
				d="M56 -3Q42 -3 35 6T30 30Q33 44 44 53T69 63Q82 63 89 54T94 30Q92 16 81 7T56 -3ZM144 444Q130 444 123 453T119 476Q122 490 133 500T157 510Q171 510 178 501T183 476Q181 463 170 454T144 444Z" />
			<glyph unicode=";" horiz-adv-x="248"
				d="M181 445Q167 445 160 454T156 478Q159 492 169 501T194 511Q208 511 215 502T220 478Q217 464 206 455T181 445ZM92 102H137L-4 -152H-34L92 102Z" />
			<glyph unicode="&lt;" horiz-adv-x="477" d="M358 115H309L89 350L403 585H451L136 350L358 115Z" />
			<glyph unicode="=" horiz-adv-x="659" d="M85 259H578L571 226H78L85 259ZM122 446H615L608 412H115L122 446Z" />
			<glyph unicode="&gt;" horiz-adv-x="477" d="M379 350L159 585H207L428 350L114 115H65L379 350Z" />
			<glyph unicode="?" horiz-adv-x="544" d="M361 707Q423 707 466 682T527 613T534 508Q518 429 476 382T372 315T234 294L205 161H173L204 323H222Q266 323 309 329T390 355T455 411T496 508Q510 585 471 629T354 673Q275 673 220 631T150 515H114Q126 576 162
619T250 684T361 707ZM159 -3Q146 -3 139 6T134 30Q137 44 147 53T172 63Q186 63 193 54T198 30Q195 16 184 7T159 -3Z" />
			<glyph unicode="@" horiz-adv-x="957"
				d="M587 161L595 147Q555 75 491 35T360 -5Q285 -5 252 41T235 164Q246 218 272 267T338 356T426 417T527 440Q593 440 625 402T645 290L629 280L684 426H717L607 132Q590 85 599 55T648 24Q684 24 717 48T777 111T824 198T854
293Q872 386 846 454T754 560T589 598Q495 598 409 563T252 466T133 321T65 146Q45 50 71 -18T163 -123T325 -159Q369 -159 412 -151T497 -127V-156Q453 -172 406 -180T311 -189Q208 -189 138 -149T38 -35T29 140Q49 243 102 331T232 487T403 591T600 628Q706 628
777 586T878 470T889 297Q878 241 855 187T798 90T724 21T638 -5Q584 -5 570 32T574 125L587 161ZM520 409Q474 409 433 389T359 335T304 257T272 168Q259 103 286 65T376 26Q422 26 467 49T549 116T609 224Q628 275 626 317T598 384T520 409Z" />
			<glyph unicode="A" horiz-adv-x="630"
				d="M415 666H382L-2 0H-40L363 700H446L571 0H532L415 666ZM109 237H517L510 203H102L109 237Z" />
			<glyph unicode="B" horiz-adv-x="641" d="M580 521Q588 563 576 595T530 647T435 666H214L156 376H382Q464 376 515 415T580 521ZM42 0L182 700H444Q517 700 558 676T614 613T619 524Q609 475 584 442T525 389T454 362L453 356Q514 347 548 302T568 186Q557 135
524 93T437 25T306 0H42ZM87 34H312Q400 34 458 75T530 188Q544 260 502 301T371 342H149L87 34Z" />
			<glyph unicode="C" horiz-adv-x="761" d="M66 350Q82 429 120 494T212 607T332 681T470 707Q589 707 657 654T746 510L712 498Q702 551 670 590T586 650T464 672Q382 672 308 634T179 523T104 350Q85 250 110 178T195 67T335 28Q407 27 468 50T579 115T661 213L690
201Q632 104 541 49T328 -7Q257 -7 201 19T110 93T63 206T66 350Z" />
			<glyph unicode="D" horiz-adv-x="722"
				d="M394 700Q515 700 589 658T691 538T696 349Q674 239 616 161T467 42T254 0H42L182 700H394ZM261 34Q428 34 528 118T657 349Q686 497 620 581T388 666H214L87 34H261Z" />
			<glyph unicode="E" horiz-adv-x="605"
				d="M616 666H214L156 376H458L451 342H149L87 34H490L483 0H42L182 700H623L616 666Z" />
			<glyph unicode="F" horiz-adv-x="581"
				d="M182 700H623L616 666H214L156 376H458L451 342H149L80 0H42L182 700Z" />
			<glyph unicode="G" horiz-adv-x="765" d="M709 499Q690 577 629 625T470 673Q386 673 310 634T179 523T104 350Q85 250 110 178T197 67T342 28Q409 28 471 53T585 125T669 238L687 331H404L410 363H732L707 236Q672 163 615 109T487 24T335 -7Q262 -7 205 19T112
92T63 205T66 350Q82 429 120 494T213 607T336 681T477 707Q550 707 605 683T694 615T743 511L709 499Z" />
			<glyph unicode="H" horiz-adv-x="688"
				d="M182 700H220L156 376H582L647 700H686L546 0H507L576 342H149L80 0H42L182 700Z" />
			<glyph unicode="I" horiz-adv-x="223" d="M182 700H220L80 0H42L182 700Z" />
			<glyph unicode="J" horiz-adv-x="482"
				d="M446 700H484L377 163Q368 118 341 79T271 17T177 -7Q107 -7 73 30T38 134L74 146Q74 114 83 87T117 43T184 27Q232 27 264 49T315 102T339 163L446 700Z" />
			<glyph unicode="K" horiz-adv-x="559"
				d="M182 700H220L156 376H190L584 700H635L220 359L496 0H444L182 342H149L80 0H42L182 700Z" />
			<glyph unicode="L" horiz-adv-x="504" d="M220 700L87 34H430L423 0H42L182 700H220Z" />
			<glyph unicode="M" horiz-adv-x="832"
				d="M80 0H42L182 700H223L377 52L789 700H829L689 0H651L774 618L381 0H350L204 618L80 0Z" />
			<glyph unicode="N" horiz-adv-x="688"
				d="M686 700L546 0H508L207 636L80 0H42L182 700H220L520 64L647 700H686Z" />
			<glyph unicode="O" horiz-adv-x="772" d="M335 -7Q262 -7 205 19T112 92T63 205T66 350Q82 429 120 494T213 607T336 681T477 707Q551 707 607 681T700 608T749 495T745 350Q730 271 692 206T598 93T476 19T335 -7ZM342 27Q426 27 501 66T631 177T706 350Q726
451 700 523T614 634T470 673Q386 673 310 634T180 523T105 350Q86 250 111 178T197 66T342 27Z" />
			<glyph unicode="P" horiz-adv-x="588"
				d="M329 334Q398 334 444 355T517 414T553 500Q563 551 552 588T503 646T395 666H214L147 334H329ZM591 500Q579 439 545 394T454 325T322 300H140L80 0H42L182 700H402Q485 700 530 674T589 603T591 500Z" />
			<glyph unicode="Q" horiz-adv-x="772"
				d="M344 119H382L338 -100H300L344 119ZM335 -7Q262 -7 205 19T112 92T63 205T66 350Q82 429 120 494T213 607T336 681T477 707Q551 707 607 681T700 608T749 495T745 350Q730 271 692 206T598 93T476 19T335 -7ZM342 27Q426
27 501 66T631 177T706 350Q726 451 700 523T614 634T470 673Q386 673 310 634T180 523T105 350Q86 250 111 178T197 66T342 27Z" />
			<glyph unicode="R" horiz-adv-x="598"
				d="M552 500Q563 551 551 588T501 645T393 666H214L147 334H329Q429 334 483 381T552 500ZM400 700Q483 700 529 674T589 603T591 500Q579 440 545 395T454 325T322 300H140L80 0H42L182 700H400ZM369 314L502 0H459L327 314H369Z" />
			<glyph unicode="S" horiz-adv-x="552"
				d="M71 156Q72 127 86 98T136 48T237 28Q326 28 378 69T444 172Q453 222 435 253T379 303T293 338Q254 349 219 362T158 395T121 445T118 520Q129 576 163 618T250 683T368 707Q427 707 465 689T524 641T549 577L513 564Q510
588 494 613T445 656T362 674Q314 674 271 657T198 606T157 526Q148 477 168 449T226 405T313 373Q352 361 387 346T446 309T481 255T482 176Q473 127 443 86T361 19T231 -7Q163 -7 121 13T57 67T34 142L71 156Z" />
			<glyph unicode="T" horiz-adv-x="593" d="M136 700H636L629 666H399L266 0H228L360 666H129L136 700Z" />
			<glyph unicode="U" horiz-adv-x="679"
				d="M177 700H215L128 263Q112 177 130 125T193 50T297 27Q356 27 408 50T500 125T555 263L643 700H681L594 263Q580 192 551 141T481 57T391 9T290 -7Q220 -7 168 21T94 109T90 263L177 700Z" />
			<glyph unicode="V" horiz-adv-x="639" d="M657 700H698L290 0H248L120 700H162L279 47L657 700Z" />
			<glyph unicode="W" horiz-adv-x="920"
				d="M212 0H172L120 700H162L204 57L529 700H571L639 57L938 700H979L648 0H608L538 640L212 0Z" />
			<glyph unicode="X" horiz-adv-x="666"
				d="M151 700H194L359 380L651 700H693L373 350L554 0H512L347 320L55 0H12L332 350L151 700Z" />
			<glyph unicode="Y" horiz-adv-x="601"
				d="M620 700H660L328 287L271 0H233L289 287L120 700H162L316 324L620 700Z" />
			<glyph unicode="Z" horiz-adv-x="588"
				d="M601 667L62 35H484L477 0H12L18 32L557 665H153L161 700H608L601 667Z" />
			<glyph unicode="[" horiz-adv-x="259" d="M197 800H314L307 767H228L62 -67H141L135 -100H18L197 800Z" />
			<glyph unicode="\" horiz-adv-x="281" d="M211 -100H172L109 800H149L211 -100Z" />
			<glyph unicode="]" horiz-adv-x="259" d="M281 800L102 -100H-15L-8 -67H72L237 767H158L164 800H281Z" />
			<glyph unicode="^" horiz-adv-x="613" d="M387 650L99 250H60L380 700H411L553 250H514L387 650Z" />
			<glyph unicode="_" horiz-adv-x="469" d="M1 -32H474L468 -67H-5L1 -32Z" />
			<glyph unicode="`" horiz-adv-x="221" d="M113 750L280 618L274 586L106 712L113 750Z" />
			<glyph unicode="a" horiz-adv-x="525" d="M365 0L389 125Q357 61 302 27T171 -7Q117 -7 82 9T33 55T28 129Q40 192 94 230T249 278L423 297L432 342Q445 405 413 439T312 473Q245 473 197 443T123 355L92 367Q124 435 181 471T318 507Q406 507 445 465T470 346L400
0H365ZM417 264L241 245Q159 237 117 209T66 131Q56 81 84 53T177 25Q239 25 286 50T365 121T409 229L417 264Z" />
			<glyph unicode="b" horiz-adv-x="602" d="M140 367Q171 426 230 466T372 507Q442 507 487 475T550 386T552 250Q537 172 497 114T398 25T269 -7Q192 -7 148 32T96 130L69 0H33L176 720H213L143 364L140 367ZM514 250Q534 353 493 413T361 473Q302 473 252 445T168
367T119 250Q107 183 121 133T174 55T272 27Q333 27 382 54T466 131T514 250Z" />
			<glyph unicode="c" horiz-adv-x="554" d="M239 -7Q166 -7 119 24T53 113T50 249Q65 326 106 384T208 475T340 507Q417 507 466 471T526 372L491 361Q482 413 441 443T335 473Q274 473 223 445T137 367T88 249Q68 148 110 88T246 27Q308 27 360 55T448 137L479
127Q439 63 377 28T239 -7Z" />
			<glyph unicode="d" horiz-adv-x="602" d="M509 367L505 364L576 720H613L470 0H435L459 130Q427 72 368 33T230 -7Q161 -7 115 24T52 114T50 250Q65 328 105 385T204 475T332 507Q415 507 458 467T509 367ZM88 250Q68 147 109 87T242 27Q300 27 350 55T434 133T482
250Q496 317 482 367T428 445T330 473Q270 473 221 446T137 369T88 250Z" />
			<glyph unicode="e" horiz-adv-x="557" d="M231 -7Q162 -7 117 26T54 119T51 255Q65 329 106 386T206 475T332 507Q398 507 443 478T507 400T513 286Q512 278 510 267T504 243H87Q76 179 91 131T144 55T237 27Q304 27 358 56T446 140L474 127Q435 63 372 28T231
-7ZM473 275Q486 333 472 377T420 447T325 473Q272 473 225 448T143 377T94 275H473Z" />
			<glyph unicode="f" horiz-adv-x="326"
				d="M182 566Q197 643 242 685T381 719L375 685Q300 691 266 660T219 566L205 500H338L331 465H198L106 0H69L162 465H80L87 500H168L182 566Z" />
			<glyph unicode="g" horiz-adv-x="602"
				d="M534 500H569L492 110Q472 11 418 -58T278 -163T82 -200L83 -166Q238 -165 333 -95T455 110L460 135L463 134Q431 76 373 36T230 -7Q160 -7 115 24T52 114T50 250Q65 328 105 385T204 475T332 507Q388 507 424 488T481
439T507 371L534 500ZM88 250Q68 147 109 87T243 27Q301 27 350 55T434 133T482 250Q496 317 482 367T429 445T331 473Q270 473 221 446T137 369T88 250Z" />
			<glyph unicode="h"
				d="M176 720H213L147 387Q179 446 232 476T349 507Q404 507 442 484T496 410T495 282L439 0H401L456 281Q475 374 444 423T336 473Q258 473 200 418T121 255L70 0H33L176 720Z" />
			<glyph unicode="i" horiz-adv-x="227"
				d="M145 500H181L82 0H46L145 500ZM188 625Q176 625 169 633T163 656Q167 670 177 678T201 687Q213 687 220 679T224 656Q222 642 212 634T188 625Z" />
			<glyph unicode="j" horiz-adv-x="223"
				d="M43 -11Q29 -81 -12 -121T-117 -166L-118 -200Q-74 -197 -33 -176T38 -113T80 -12L181 500H144L43 -11ZM188 625Q175 625 168 633T163 656Q167 670 177 678T200 687Q213 687 220 679T224 656Q222 642 212 634T188 625Z" />
			<glyph unicode="k" horiz-adv-x="472"
				d="M176 720H214L124 269H181L450 500H501L208 252L405 0H354L174 236H117L71 0H33L176 720Z" />
			<glyph unicode="l" horiz-adv-x="203" d="M175 714H212L70 0H33L175 714Z" />
			<glyph unicode="m" horiz-adv-x="905" d="M132 500H168L147 387Q175 440 222 473T339 506Q400 506 440 473T485 372Q518 443 573 474T693 506Q747 506 784 482T837 409T837 283L781 0H744L800 281Q819 374 788 423T683 473Q608 473 552 418T474 254L423 0H386L442
281Q461 374 431 423T327 473Q252 473 197 418T121 254L70 0H33L132 500Z" />
			<glyph unicode="n" horiz-adv-x="562"
				d="M132 500H168L146 387Q176 442 226 474T347 507Q402 507 440 483T494 410T495 284L439 0H402L457 282Q476 375 444 424T336 474Q257 474 200 420T122 259L70 0H33L132 500Z" />
			<glyph unicode="o" horiz-adv-x="584" d="M241 -7Q171 -7 123 24T54 112T50 250Q66 329 109 387T213 476T343 507Q413 507 461 476T529 387T533 250Q517 170 475 113T371 24T241 -7ZM247 27Q300 27 351 51T441 124T495 250Q510 327 491 376T431 449T336 473Q283
473 232 449T143 376T89 250Q74 173 93 124T153 51T247 27Z" />
			<glyph unicode="p" horiz-adv-x="602" d="M94 134L97 136L30 -200H-7L132 500H168L144 371Q164 408 196 439T273 488T372 507Q441 507 487 476T550 387T552 250Q537 172 497 115T399 25T270 -7Q190 -7 146 33T94 134ZM514 250Q534 353 493 413T361 473Q302 473
252 445T168 367T119 250Q107 183 121 133T175 55T272 27Q333 27 383 54T466 131T514 250Z" />
			<glyph unicode="q" horiz-adv-x="602" d="M463 134Q432 74 372 34T230 -7Q160 -7 114 25T51 114T50 250Q66 329 106 386T204 475T332 507Q387 507 423 489T480 439T507 371L534 500H569L430 -200H393L460 136L463 134ZM88 250Q68 147 109 87T241 27Q300 27 350
55T434 133T482 250Q496 317 482 367T428 445T330 473Q270 473 221 446T137 369T88 250Z" />
			<glyph unicode="r" horiz-adv-x="349"
				d="M132 500H168L148 393Q170 428 204 455T282 496T371 500L364 464Q323 473 284 463T213 426T157 361T124 274L69 0H32L132 500Z" />
			<glyph unicode="s" horiz-adv-x="465"
				d="M62 137Q62 101 75 77T116 40T189 27Q261 27 302 56T353 130Q360 167 343 187T295 219T230 238Q208 243 180 250T126 272T87 309T81 372Q89 412 117 443T188 490T282 507Q343 507 385 480T432 392L397 381Q393 420 374
439T328 466T276 473Q214 473 172 447T120 374Q114 346 123 329T153 301T197 284T248 272Q275 266 303 257T354 232T387 192T391 129Q382 87 354 56T281 9T181 -7Q107 -7 67 25T25 126L62 137Z" />
			<glyph unicode="t" horiz-adv-x="340"
				d="M167 500L195 640H232L204 500H353L346 466H197L132 142Q124 99 140 73T188 36T260 34L254 3Q218 -6 186 -1T130 22T97 70T96 142L160 466H80L87 500H167Z" />
			<glyph unicode="u" horiz-adv-x="561"
				d="M429 0H395L415 109Q386 54 336 24T216 -7Q161 -7 122 16T68 87T67 212L125 500H161L104 213Q85 120 117 74T226 27Q306 27 362 78T440 236L492 500H529L429 0Z" />
			<glyph unicode="v" horiz-adv-x="508" d="M117 500L214 47L491 500H530L222 0H187L77 500H117Z" />
			<glyph unicode="w" horiz-adv-x="763"
				d="M167 0H136L77 500H115L163 53L416 500H447L523 54L747 500H784L529 0H496L419 441L167 0Z" />
			<glyph unicode="x" horiz-adv-x="451"
				d="M83 500H125L232 279L426 500H468L247 252L368 0H327L221 225L26 0H-17L206 252L83 500Z" />
			<glyph unicode="y" horiz-adv-x="486" d="M477 500H514L99 -200H62L182 2L70 500H109L210 45L477 500Z" />
			<glyph unicode="z" horiz-adv-x="475"
				d="M456 465L56 34H378L371 0H5L12 34L412 466H105L112 500H462L456 465Z" />
			<glyph unicode="{" horiz-adv-x="364"
				d="M73 365Q126 377 153 395T191 435T206 475Q212 508 212 543T213 614T221 687Q233 748 276 774T385 800H423L417 773H384Q334 773 301 754T259 686Q251 649 251 612T250 540T243 473Q235 431 201 398T101 352L100 350Q161
338 182 305T194 227Q188 196 175 161T147 89T125 15Q115 -33 140 -53T216 -73H249L244 -100H206Q141 -100 108 -73T87 13Q94 51 108 87T136 158T157 226Q161 246 158 267T135 306T68 337L73 365Z" />
			<glyph unicode="|" horiz-adv-x="260" d="M258 800L79 -100H41L220 800H258Z" />
			<glyph unicode="}" horiz-adv-x="364"
				d="M336 365L331 337Q279 325 252 307T214 267T199 226Q192 194 192 159T191 87T183 13Q171 -46 128 -73T19 -100H-19L-13 -73H20Q71 -73 103 -53T146 15Q153 52 153 89T154 161T161 227Q170 272 204 305T303 350L304 352Q244
364 223 397T210 473Q216 505 230 540T258 612T279 686Q289 734 264 753T188 773H154L160 800H198Q263 800 296 774T317 687Q310 651 296 615T268 543T248 475Q244 456 246 435T269 396T336 365Z" />
			<glyph unicode="~" horiz-adv-x="490"
				d="M74 299Q93 347 122 374T194 402Q220 402 239 392T275 368T308 344T346 333Q375 333 394 353T423 401H455Q439 353 410 326T337 298Q311 298 293 308T258 333T224 357T184 367Q157 367 137 346T106 299H74Z" />
			<glyph unicode="&#xa0;" horiz-adv-x="280" />
			<glyph unicode="&#xa1;" horiz-adv-x="230"
				d="M11 -147L122 386H155L54 -147H11ZM175 555Q189 555 196 546T201 522Q199 507 188 498T162 488Q148 488 142 497T137 522Q140 536 151 545T175 555Z" />
			<glyph unicode="&#xa2;" horiz-adv-x="554" d="M349 600H378L357 492H328L349 600ZM233 18H262L238 -100H209L233 18ZM239 -7Q166 -7 119 24T53 113T50 249Q65 326 106 384T208 475T340 507Q417 507 466 471T526 372L491 361Q482 413 441 443T335 473Q274 473
223 445T137 367T88 249Q68 148 110 88T246 27Q308 27 360 55T448 137L479 127Q439 63 377 28T239 -7Z" />
			<glyph unicode="&#xa3;" horiz-adv-x="590" d="M416 707Q480 707 519 681T575 612T587 516H551Q558 585 522 630T411 675Q369 675 330 659T262 608T220 516Q212 473 215 436T225 363T235 292T232 217Q221 162 192 120T114 34H487L481 0H75L73 27Q116 70 149 111T195
213Q204 253 200 288T188 358T178 431T183 518Q195 573 227 616T308 683T416 707ZM421 352L415 323H79L85 352H421Z" />
			<glyph unicode="&#xa4;" horiz-adv-x="518"
				d="M318 550Q361 550 392 529T438 469T442 377Q432 325 403 286T333 226T249 204Q182 204 148 251T128 377Q138 430 167 468T235 528T318 550ZM313 522Q261 522 218 484T162 377Q148 308 176 270T255 232Q287 232 319
249T375 299T408 377Q417 422 406 454T371 504T313 522ZM195 477L134 551L159 571L215 502L195 477ZM403 502L486 571L503 551L412 476L403 502ZM374 279L435 205L409 185L355 253L374 279ZM166 255L82 185L66 205L156 280L166 255Z" />
			<glyph unicode="&#xa5;" horiz-adv-x="601"
				d="M354 355H541L536 325H339L354 355ZM78 228H516L510 196H72L78 228ZM103 355H293L298 325H98L103 355ZM620 700H660L328 287L271 0H233L289 287L120 700H162L316 324L620 700Z" />
			<glyph unicode="&#xa6;" horiz-adv-x="259"
				d="M153 271L79 -100H41L115 271H153ZM146 430L220 800H258L184 430H146Z" />
			<glyph unicode="&#xa7;" horiz-adv-x="440"
				d="M143 600Q149 630 169 654T222 693T297 707Q360 707 394 673T423 575H395Q398 600 390 625T358 667T292 684Q246 684 213 664T170 601Q164 564 186 541T273 499Q315 487 348 469T397 424T405 350Q398 316 373 285T309
236T217 219L220 223Q251 215 280 202T327 164T337 101Q331 71 311 46T259 7T186 -7Q121 -7 86 27T56 124H84Q82 98 90 73T122 32T191 16Q235 16 267 36T309 100Q314 125 306 143T274 175T207 202Q165 214 132 231T82 277T75 350Q82 386 107 416T171 465T263 481L260
477Q230 486 200 499T153 537T143 600ZM376 350Q385 399 355 430T260 461Q194 461 153 428T104 350Q94 302 124 271T220 239Q285 239 326 273T376 350Z" />
			<glyph unicode="&#xa8;" horiz-adv-x="240" d="M124 627Q109 627 101 637T96 662Q99 677 111 687T138 698Q153 698 161 688T167 662Q164 648 152 638T124 627ZM266 627Q251 627 242 637T237 662Q239 677 252 687T280 698Q294 698 302 688T308 662Q305 648 293
638T266 627Z" />
			<glyph unicode="&#xa9;" horiz-adv-x="810" d="M496 707Q599 707 666 661T761 535T768 351Q753 274 715 209T622 95T499 20T354 -7Q253 -7 185 39T89 167T82 351Q98 429 135 494T228 606T352 680T496 707ZM492 683Q394 683 314 640T180 521T107 351Q89 257 112
181T199 61T359 17Q432 17 495 42T609 112T693 219T742 351Q761 446 737 521T651 639T492 683ZM373 94Q301 94 253 125T187 214T184 349Q199 427 240 485T342 575T475 608Q551 608 600 572T661 472L626 461Q617 513 575 543T469 573Q408 573 357 546T271 468T223
350Q202 248 245 188T381 128Q443 128 495 156T583 238L614 228Q574 163 512 129T373 94Z" />
			<glyph unicode="&#xaa;" horiz-adv-x="435" d="M94 528Q105 582 133 622T203 686T293 709Q349 709 380 682T417 611L436 703H470L400 354H366L384 445Q362 401 320 374T221 347Q172 347 140 370T96 434T94 528ZM127 528Q113 458 143 417T231 375Q292 375 339 416T401
528Q415 599 384 640T292 681Q234 681 188 640T127 528Z" />
			<glyph unicode="&#xab;" horiz-adv-x="403"
				d="M158 75H115L47 250L184 425H227L87 250L158 75ZM312 75H269L201 250L338 425H381L241 250L312 75Z" />
			<glyph unicode="&#xac;" horiz-adv-x="653" d="M76 426H632L597 246H561L590 393H70L76 426Z" />
			<glyph unicode="&#xad;" horiz-adv-x="492" d="M69 296H443L436 263H63L69 296Z" />
			<glyph unicode="&#xae;" horiz-adv-x="503" d="M114 512Q126 567 158 611T239 681T342 707Q398 707 435 681T489 611T494 512Q482 458 449 414T368 344T265 318Q209 318 172 343T119 413T114 512ZM140 512Q130 464 143 426T188 365T270 343Q319 343 360 365T429
425T468 512Q477 561 464 599T419 660T337 683Q288 683 247 660T178 599T140 512ZM255 620L213 406H241L258 497H316Q348 497 369 513T397 559Q403 588 388 604T341 620H255ZM338 406L371 407L320 505H289L338 406ZM333 594Q352 594 362 586T368 558Q365 539 351
531T319 522H263L278 594H333Z" />
			<glyph unicode="&#xaf;" horiz-adv-x="348" d="M100 685H420L414 654H94L100 685Z" />
			<glyph unicode="&#xb0;" horiz-adv-x="366" d="M82 525Q92 578 120 617T187 678T273 700Q342 700 375 652T393 525Q383 473 356 434T288 372T202 350Q134 350 101 398T82 525ZM359 525Q373 595 348 634T267 673Q212 673 171 634T116 525Q102 456 127 417T208 377Q262
377 303 416T359 525Z" />
			<glyph unicode="&#xb1;" horiz-adv-x="767"
				d="M475 618L381 150H345L439 618H475ZM160 405H669L662 373H153L160 405ZM102 116H611L605 83H96L102 116Z" />
			<glyph unicode="&#xb2;" horiz-adv-x="319" d="M111 598Q122 642 156 674T249 707Q279 707 300 695T331 660T334 607Q328 577 312 553T271 505T214 457L100 367L96 378H297L292 350H62L66 371L200 479Q233 505 261 534T299 606Q307 644 289 661T243 679Q206 679
182 659T145 598H111Z" />
			<glyph unicode="&#xb3;" horiz-adv-x="326"
				d="M116 616Q125 642 144 662T190 695T253 707Q301 707 328 680T347 609Q341 579 320 557T264 527V525Q291 517 306 494T314 436Q307 401 272 372T178 343Q127 343 101 368T79 442H113Q109 400 129 385T183 370Q222
370 247 389T279 438Q286 473 266 493T208 513H153L158 539H216Q252 539 278 556T312 608Q318 639 301 658T247 678Q209 678 185 661T149 616H116Z" />
			<glyph unicode="&#xb4;" horiz-adv-x="221" d="M306 750L299 712L81 586L87 618L306 750Z" />
			<glyph unicode="&#xb5;" horiz-adv-x="592"
				d="M459 0H421L444 117Q410 50 354 20T242 -10Q207 -10 175 0T121 37T93 110L31 -200H-7L132 500H170L118 240Q103 167 116 119T166 47T254 23Q329 23 387 74T468 233L520 500H558L459 0Z" />
			<glyph unicode="&#xb6;" horiz-adv-x="548"
				d="M546 700L407 0H371L503 669H403L271 0H235L296 309H293Q213 309 166 334T102 403T96 504Q108 562 143 606T235 675T371 700H546Z" />
			<glyph unicode="&#xb7;" horiz-adv-x="187"
				d="M107 320Q94 320 87 329T81 352Q85 367 96 376T120 386Q134 386 141 377T146 352Q143 339 132 330T107 320Z" />
			<glyph unicode="&#xb8;" horiz-adv-x="215"
				d="M7 -81Q49 -79 75 -88T112 -116T117 -165Q112 -192 95 -212T51 -244T-11 -255H-87L-81 -226H-11Q34 -226 55 -210T83 -165Q88 -141 73 -125T12 -109H-29L-6 7H25L7 -81Z" />
			<glyph unicode="&#xb9;" horiz-adv-x="179" d="M168 672H114L120 700H207L138 350H105L168 672Z" />
			<glyph unicode="&#xba;" horiz-adv-x="418" d="M92 526Q103 582 134 622T208 686T301 709Q350 709 384 686T432 623T436 526Q425 472 395 431T321 367T228 344Q179 344 145 367T96 431T92 526ZM402 526Q417 601 384 640T295 680Q238 680 190 641T126 526Q112 452
144 413T234 373Q291 373 339 412T402 526Z" />
			<glyph unicode="&#xbb;" horiz-adv-x="402"
				d="M174 75L316 250L244 425H287L356 250L217 75H174ZM20 75L162 250L90 425H133L202 250L63 75H20Z" />
			<glyph unicode="&#xbc;" horiz-adv-x="543"
				d="M521 700H557L37 0H0L521 700ZM477 101L470 74H417L403 0H369L384 74H209L214 98L438 355H474L423 101H477ZM391 101L431 304L252 101H391ZM168 672H114L120 700H207L138 350H105L168 672Z" />
			<glyph unicode="&#xbd;" horiz-adv-x="618" d="M513 700H550L30 0H-7L513 700ZM168 672H114L120 700H207L138 350H105L168 672ZM326 248Q338 292 372 324T464 357Q494 357 515 345T546 310T549 257Q543 227 527 203T487 155T430 107L315 17L312 28H513L507 0H277L281
21L416 129Q448 155 477 184T514 256Q522 294 504 311T458 329Q421 329 397 309T360 248H326Z" />
			<glyph unicode="&#xbe;" horiz-adv-x="626" d="M610 700H647L128 0H92L610 700ZM566 101L561 74H508L493 0H460L475 74H299L304 98L527 355H563L513 101H566ZM480 101L520 304L341 101H480ZM105 616Q114 642 133 662T180 695T243 707Q291 707 318 680T336 609Q331
579 310 557T254 527L253 525Q282 517 296 494T303 436Q297 401 261 372T167 343Q116 343 91 368T69 442H102Q99 400 119 385T173 370Q212 370 237 389T269 438Q276 473 256 493T199 513H143L148 539H205Q242 539 268 556T301 608Q307 639 290 658T236 678Q198
678 174 661T138 616H105Z" />
			<glyph unicode="&#xbf;" horiz-adv-x="544"
				d="M191 -167Q129 -167 86 -142T25 -72T18 32Q34 112 76 158T180 226T318 247L347 379H379L349 217H330Q286 217 243 211T161 186T96 130T57 32Q42 -45 81 -89T198 -133Q277 -133 332 -90T402 25H438Q426 -35 390 -78T302
-144T191 -167ZM393 543Q406 543 413 534T418 510Q415 496 405 487T380 477Q366 477 359 486T354 510Q357 525 368 534T393 543Z" />
			<glyph unicode="&#xc0;" horiz-adv-x="630"
				d="M415 666H382L-2 0H-40L363 700H446L571 0H532L415 666ZM109 237H517L510 203H102L109 237ZM340 917L507 786L501 754L333 880L340 917Z" />
			<glyph unicode="&#xc1;" horiz-adv-x="630"
				d="M415 666H382L-2 0H-40L363 700H446L571 0H532L415 666ZM109 237H517L510 203H102L109 237ZM533 917L526 880L308 754L314 786L533 917Z" />
			<glyph unicode="&#xc2;" horiz-adv-x="630"
				d="M415 666H382L-2 0H-40L363 700H446L571 0H532L415 666ZM109 237H517L510 203H102L109 237ZM550 781L439 863L295 781L302 815L445 896L556 815L550 781Z" />
			<glyph unicode="&#xc3;" horiz-adv-x="630" d="M415 666H382L-2 0H-40L363 700H446L571 0H532L415 666ZM109 237H517L510 203H102L109 237ZM294 764Q305 799 327 818T378 838Q398 838 409 831T430 814T450 798T478 790Q494 790 508 801T531 835H558Q548 802 524
782T471 761Q452 761 440 768T418 785T398 802T372 809Q355 809 342 798T321 764H294Z" />
			<glyph unicode="&#xc4;" horiz-adv-x="630" d="M415 666H382L-2 0H-40L363 700H446L571 0H532L415 666ZM109 237H517L510 203H102L109 237ZM355 794Q339 794 331 804T326 829Q329 845 341 855T369 866Q383 866 391 856T398 829Q394 815 382 805T355 794ZM496 794Q481
794 473 804T467 829Q470 845 482 855T510 866Q524 866 532 856T539 829Q535 815 523 805T496 794Z" />
			<glyph unicode="&#xc5;" horiz-adv-x="630" d="M415 666H382L-2 0H-40L363 700H446L571 0H532L415 666ZM109 237H517L510 203H102L109 237ZM529 847Q520 803 488 779T416 754Q377 754 354 778T341 847Q349 890 382 915T453 941Q491 941 514 916T529 847ZM501 847Q507
879 492 897T448 915Q420 915 398 897T369 847Q363 816 378 798T421 780Q450 780 472 798T501 847Z" />
			<glyph unicode="&#xc6;" horiz-adv-x="872"
				d="M569 666L511 376H734L727 342H504L443 34H757L750 0H398L439 203H165L3 0H-40L522 700H889L882 666H569ZM192 237H445L528 655L192 237Z" />
			<glyph unicode="&#xc7;" horiz-adv-x="761"
				d="M66 350Q82 429 120 494T212 607T332 681T470 707Q589 707 657 654T746 510L712 498Q702 551 670 590T586 650T464 672Q382 672 308 634T179 523T104 350Q85 250 110 178T195 67T335 28Q407 27 468 50T579 115T661
213L690 201Q632 104 541 49T328 -7Q257 -7 201 19T110 93T63 206T66 350ZM348 -80Q390 -79 416 -88T453 -116T459 -165Q454 -191 437 -211T393 -243T331 -255H255L260 -226H330Q375 -226 397 -209T425 -165Q429 -140 414 -124T353 -108H312L335 7H366L348 -80Z" />
			<glyph unicode="&#xc8;" horiz-adv-x="605"
				d="M616 666H214L156 376H458L451 342H149L87 34H490L483 0H42L182 700H623L616 666ZM336 917L503 786L496 754L329 880L336 917Z" />
			<glyph unicode="&#xc9;" horiz-adv-x="605"
				d="M616 666H214L156 376H458L451 342H149L87 34H490L483 0H42L182 700H623L616 666ZM529 917L522 880L304 754L311 786L529 917Z" />
			<glyph unicode="&#xca;" horiz-adv-x="605"
				d="M616 666H214L156 376H458L451 342H149L87 34H490L483 0H42L182 700H623L616 666ZM546 781L434 863L291 781L297 815L441 896L552 815L546 781Z" />
			<glyph unicode="&#xcb;" horiz-adv-x="605" d="M616 666H214L156 376H458L451 342H149L87 34H490L483 0H42L182 700H623L616 666ZM350 794Q335 794 328 804T322 829Q325 845 337 855T365 866Q380 866 388 856T394 829Q391 815 379 805T350 794ZM492 794Q477 794
469 804T463 829Q466 845 478 855T506 866Q520 866 529 856T534 829Q532 815 519 805T492 794Z" />
			<glyph unicode="&#xcc;" horiz-adv-x="377"
				d="M272 700H311L171 0H132L272 700ZM225 917L392 786L385 754L217 880L225 917Z" />
			<glyph unicode="&#xcd;" horiz-adv-x="377"
				d="M272 700H311L171 0H132L272 700ZM418 917L410 880L192 754L199 786L418 917Z" />
			<glyph unicode="&#xce;" horiz-adv-x="439"
				d="M291 700H329L189 0H151L291 700ZM453 781L341 863L198 781L204 815L348 896L459 815L453 781Z" />
			<glyph unicode="&#xcf;" horiz-adv-x="396" d="M269 700H307L167 0H129L269 700ZM236 794Q221 794 213 804T208 830Q211 845 223 855T250 866Q265 866 273 856T279 829Q276 815 264 805T236 794ZM377 794Q362 794 354 804T348 829Q351 845 363 855T391 866Q405
866 414 856T420 829Q417 815 405 805T377 794Z" />
			<glyph unicode="&#xd0;" horiz-adv-x="791"
				d="M96 367H203L269 700H463Q583 700 657 658T759 538T764 349Q742 239 684 161T534 42T323 0H129L196 332H89L96 367ZM175 31H330Q496 31 596 116T725 349Q755 497 689 582T457 668H301L241 367H464L457 332H234L175 31Z" />
			<glyph unicode="&#xd1;" horiz-adv-x="688" d="M686 700L546 0H508L207 636L80 0H42L182 700H220L520 64L647 700H686ZM323 764Q334 799 356 818T407 838Q427 838 439 831T459 814T479 798T508 790Q523 790 538 801T561 835H587Q578 802 554 782T501 761Q481 761
469 768T447 785T427 802T401 809Q384 809 371 798T350 764H323Z" />
			<glyph unicode="&#xd2;" horiz-adv-x="772"
				d="M335 -7Q262 -7 205 19T112 92T63 205T66 350Q82 429 120 494T213 607T336 681T477 707Q551 707 607 681T700 608T749 495T745 350Q730 271 692 206T598 93T476 19T335 -7ZM342 27Q426 27 501 66T631 177T706 350Q726
451 700 523T614 634T470 673Q386 673 310 634T180 523T105 350Q86 250 111 178T197 66T342 27ZM418 917L585 786L579 754L411 880L418 917Z" />
			<glyph unicode="&#xd3;" horiz-adv-x="772"
				d="M335 -7Q262 -7 205 19T112 92T63 205T66 350Q82 429 120 494T213 607T336 681T477 707Q551 707 607 681T700 608T749 495T745 350Q730 271 692 206T598 93T476 19T335 -7ZM342 27Q426 27 501 66T631 177T706 350Q726
451 700 523T614 634T470 673Q386 673 310 634T180 523T105 350Q86 250 111 178T197 66T342 27ZM611 917L604 880L386 754L392 786L611 917Z" />
			<glyph unicode="&#xd4;" horiz-adv-x="772"
				d="M335 -7Q262 -7 205 19T112 92T63 205T66 350Q82 429 120 494T213 607T336 681T477 707Q551 707 607 681T700 608T749 495T745 350Q730 271 692 206T598 93T476 19T335 -7ZM342 27Q426 27 501 66T631 177T706 350Q726
451 700 523T614 634T470 673Q386 673 310 634T180 523T105 350Q86 250 111 178T197 66T342 27ZM628 781L517 863L373 781L380 815L523 896L634 815L628 781Z" />
			<glyph unicode="&#xd5;" horiz-adv-x="772" d="M335 -7Q262 -7 205 19T112 92T63 205T66 350Q82 429 120 494T213 607T336 681T477 707Q551 707 607 681T700 608T749 495T745 350Q730 271 692 206T598 93T476 19T335 -7ZM342 27Q426 27 501 66T631 177T706 350Q726
451 700 523T614 634T470 673Q386 673 310 634T180 523T105 350Q86 250 111 178T197 66T342 27ZM372 764Q384 799 405 818T457 838Q476 838 487 831T508 814T528 798T556 790Q572 790 587 801T609 835H636Q626 802 602 782T549 761Q530 761 518 768T496 785T476
802T450 809Q433 809 420 798T399 764H372Z" />
			<glyph unicode="&#xd6;" horiz-adv-x="772" d="M335 -7Q262 -7 205 19T112 92T63 205T66 350Q82 429 120 494T213 607T336 681T477 707Q551 707 607 681T700 608T749 495T745 350Q730 271 692 206T598 93T476 19T335 -7ZM342 27Q426 27 501 66T631 177T706 350Q726
451 700 523T614 634T470 673Q386 673 310 634T180 523T105 350Q86 250 111 178T197 66T342 27ZM433 794Q418 794 410 804T405 829Q407 845 419 855T447 866Q461 866 470 856T476 829Q472 815 460 805T433 794ZM574 794Q559 794 551 804T545 829Q548 845 560 855T588
866Q602 866 610 856T617 829Q613 815 601 805T574 794Z" />
			<glyph unicode="&#xd7;" horiz-adv-x="539"
				d="M155 550L455 175L424 150L124 525L155 550ZM55 176L504 550L523 525L75 151L55 176Z" />
			<glyph unicode="&#xd8;" horiz-adv-x="772"
				d="M677 609L701 590L147 96L121 113L677 609ZM335 -7Q262 -7 205 19T112 92T63 205T66 350Q82 429 120 494T213 607T336 681T477 707Q551 707 607 681T700 608T749 495T745 350Q730 271 692 206T598 93T476 19T335
-7ZM342 27Q426 27 501 66T631 177T706 350Q726 451 700 523T614 634T470 673Q386 673 310 634T180 523T105 350Q86 250 111 178T197 66T342 27Z" />
			<glyph unicode="&#xd9;" horiz-adv-x="679" d="M177 700H215L128 263Q112 177 130 125T193 50T297 27Q356 27 408 50T500 125T555 263L643 700H681L594 263Q580 192 551 141T481 57T391 9T290 -7Q220 -7 168 21T94 109T90 263L177 700ZM362 917L530 786L523 754L355
880L362 917Z" />
			<glyph unicode="&#xda;" horiz-adv-x="679" d="M177 700H215L128 263Q112 177 130 125T193 50T297 27Q356 27 408 50T500 125T555 263L643 700H681L594 263Q580 192 551 141T481 57T391 9T290 -7Q220 -7 168 21T94 109T90 263L177 700ZM555 917L548 880L330 754L337
786L555 917Z" />
			<glyph unicode="&#xdb;" horiz-adv-x="679" d="M177 700H215L128 263Q112 177 130 125T193 50T297 27Q356 27 408 50T500 125T555 263L643 700H681L594 263Q580 192 551 141T481 57T391 9T290 -7Q220 -7 168 21T94 109T90 263L177 700ZM572 781L461 863L317 781L324
815L467 896L579 815L572 781Z" />
			<glyph unicode="&#xdc;" horiz-adv-x="679"
				d="M177 700H215L128 263Q112 177 130 125T193 50T297 27Q356 27 408 50T500 125T555 263L643 700H681L594 263Q580 192 551 141T481 57T391 9T290 -7Q220 -7 168 21T94 109T90 263L177 700ZM376 794Q362 794 354 804T348
829Q352 845 364 855T391 866Q406 866 414 856T420 829Q417 815 404 805T376 794ZM518 794Q503 794 495 804T489 829Q492 845 505 855T532 866Q546 866 555 856T560 829Q558 815 545 805T518 794Z" />
			<glyph unicode="&#xdd;" horiz-adv-x="601"
				d="M620 700H660L328 287L271 0H233L289 287L120 700H162L316 324L620 700ZM518 917L511 880L293 754L299 786L518 917Z" />
			<glyph unicode="&#xde;" horiz-adv-x="556"
				d="M270 189Q375 189 426 233T492 350Q507 427 473 470T334 513H182L118 189H270ZM530 350Q518 289 484 245T395 178T263 155H112L80 0H42L182 700H220L188 546H340Q421 546 466 521T526 452T530 350Z" />
			<glyph unicode="&#xdf;" horiz-adv-x="593"
				d="M136 515Q147 572 177 615T254 682T361 707Q418 707 454 689T506 639T513 567Q507 537 490 516T451 479T406 446Q378 426 356 407T330 362Q324 335 344 317T428 277Q488 257 508 220T519 132Q507 69 460 31T340 -7Q268
-7 229 36T196 153H235Q230 95 259 60T347 25Q400 25 435 53T480 130Q489 171 470 201T398 249Q330 272 307 296T291 359Q298 395 325 420T383 467Q415 489 441 509T474 566Q484 613 453 643T354 674Q306 674 269 654T207 598T172 513L70 0H33L136 515Z" />
			<glyph unicode="&#xe0;" horiz-adv-x="525"
				d="M365 0L389 125Q357 61 302 27T171 -7Q117 -7 82 9T33 55T28 129Q40 192 94 230T249 278L423 297L432 342Q445 405 413 439T312 473Q245 473 197 443T123 355L92 367Q124 435 181 471T318 507Q405 507 445 465T470
346L400 0H365ZM417 264L241 245Q159 237 117 209T66 131Q56 81 84 53T177 25Q239 25 286 50T365 121T409 229L417 264ZM251 700L405 579L399 550L245 666L251 700Z" />
			<glyph unicode="&#xe1;" horiz-adv-x="525"
				d="M365 0L389 125Q357 61 302 27T171 -7Q117 -7 82 9T33 55T28 129Q40 192 94 230T249 278L423 297L432 342Q445 405 413 439T312 473Q245 473 197 443T123 355L92 367Q124 435 181 471T318 507Q405 507 445 465T470
346L400 0H365ZM417 264L241 245Q159 237 117 209T66 131Q56 81 84 53T177 25Q239 25 286 50T365 121T409 229L417 264ZM428 700L422 666L222 550L228 579L428 700Z" />
			<glyph unicode="&#xe2;" horiz-adv-x="525"
				d="M366 0L389 125Q357 61 302 27T171 -7Q117 -7 82 9T33 55T28 129Q40 192 94 230T249 278L423 297L432 342Q445 405 413 439T312 473Q245 473 197 443T123 355L92 367Q124 435 181 471T318 507Q406 507 445 465T470
346L401 0H366ZM417 264L241 245Q159 237 117 209T66 131Q56 81 84 53T177 25Q239 25 286 50T365 121T409 229L417 264ZM444 575L342 651L210 575L216 607L348 681L450 607L444 575Z" />
			<glyph unicode="&#xe3;" horiz-adv-x="525" d="M365 0L389 125Q357 61 302 27T171 -7Q117 -7 82 9T33 55T28 129Q40 192 94 230T249 278L423 297L432 342Q445 405 413 439T312 473Q245 473 197 443T123 355L92 367Q124 435 181 471T318 507Q405 507 445 465T470
346L400 0H365ZM417 264L241 245Q159 237 117 209T66 131Q56 81 84 53T177 25Q239 25 286 50T365 121T409 229L417 264ZM208 558Q219 591 239 609T286 627Q310 627 322 616T345 594T378 583Q392 583 406 593T427 624H451Q443 594 421 575T372 556Q348 556 335 567T311
589T280 601Q264 601 252 591T233 558H208Z" />
			<glyph unicode="&#xe4;" horiz-adv-x="525" d="M365 0L389 125Q357 61 302 27T171 -7Q117 -7 82 9T33 55T28 129Q40 192 94 230T249 278L423 297L432 342Q445 405 413 439T312 473Q245 473 197 443T123 355L92 367Q124 435 181 471T318 507Q405 507 445 465T470
346L400 0H365ZM417 264L241 245Q159 237 117 209T66 131Q56 81 84 53T177 25Q239 25 286 50T365 121T409 229L417 264ZM265 588Q251 588 244 597T239 619Q241 633 252 643T278 653Q291 653 298 643T304 619Q301 606 290 597T265 588ZM395 588Q381 588 373 597T368
619Q371 633 382 643T407 653Q420 653 428 643T433 619Q431 606 419 597T395 588Z" />
			<glyph unicode="&#xe5;" horiz-adv-x="525" d="M365 0L389 125Q357 61 302 27T171 -7Q117 -7 82 9T33 55T28 129Q40 192 94 230T249 278L423 297L432 342Q445 405 413 439T312 473Q245 473 197 443T123 355L92 367Q124 435 181 471T318 507Q405 507 445 465T470
346L400 0H365ZM417 264L241 245Q159 237 117 209T66 131Q56 81 84 53T177 25Q239 25 286 50T365 121T409 229L417 264ZM425 635Q417 595 387 573T321 550Q286 550 265 572T252 635Q260 676 290 699T355 722Q390 722 411 699T425 635ZM399 635Q405 665 391 681T351
698Q325 698 305 682T277 635Q272 607 286 590T325 573Q352 573 372 590T399 635Z" />
			<glyph unicode="&#xe6;" horiz-adv-x="917"
				d="M593 -7Q523 -7 479 25T418 116T417 255Q440 373 514 440T694 507Q769 507 812 476T871 394T874 286Q873 278 871 267T865 243H449Q436 169 453 121T509 50T599 27Q668 27 721 56T807 140L835 127Q798 67 738 30T593
-7ZM835 275Q852 340 836 383T780 450T687 473Q638 473 591 452T509 388T456 275H835ZM429 236L421 165Q395 102 355 65T268 10T171 -7Q122 -7 87 9T35 56T28 133Q37 177 63 205T123 248T190 269T249 278L423 295L433 346Q444 400 415 436T312 473Q253 473 202
446T123 355L92 367Q125 438 183 472T318 507Q401 507 442 466T467 346L449 257L429 236ZM417 262L241 245Q170 238 124 213T66 134Q56 80 90 54T178 27Q239 27 287 53T366 126T410 231L417 262Z" />
			<glyph unicode="&#xe7;" horiz-adv-x="554"
				d="M238 -7Q166 -7 119 24T53 113T50 249Q65 326 106 384T208 475T340 507Q417 507 466 471T526 372L491 361Q482 413 441 443T335 473Q274 473 223 445T137 367T88 249Q68 148 110 88T246 27Q308 27 360 55T448 137L479
127Q439 63 377 28T238 -7ZM237 -72Q275 -71 299 -79T333 -106T338 -150Q334 -175 318 -193T278 -222T221 -233H150L156 -206H220Q261 -206 281 -191T306 -150Q311 -128 297 -113T241 -98H204L225 8H253L237 -72Z" />
			<glyph unicode="&#xe8;" horiz-adv-x="557"
				d="M231 -7Q162 -7 117 26T54 119T51 255Q65 329 106 386T206 475T332 507Q398 507 443 478T507 400T513 286Q512 278 510 267T504 243H87Q76 179 91 131T144 55T237 27Q304 27 358 56T446 140L474 127Q435 63 372 28T231
-7ZM473 275Q486 333 472 377T420 447T325 473Q272 473 225 448T143 377T94 275H473ZM274 700L427 579L421 550L267 666L274 700Z" />
			<glyph unicode="&#xe9;" horiz-adv-x="557"
				d="M231 -7Q162 -7 117 26T54 119T51 255Q65 329 106 386T206 475T332 507Q398 507 443 478T507 400T513 286Q512 278 510 267T504 243H87Q76 179 91 131T144 55T237 27Q304 27 358 56T446 140L474 127Q435 63 372 28T231
-7ZM473 275Q486 333 472 377T420 447T325 473Q272 473 225 448T143 377T94 275H473ZM451 700L445 666L244 550L250 579L451 700Z" />
			<glyph unicode="&#xea;" horiz-adv-x="557"
				d="M231 -7Q162 -7 117 26T54 119T51 255Q65 329 106 386T206 475T332 507Q398 507 443 478T507 400T513 286Q512 278 510 267T504 243H87Q76 179 91 131T144 55T237 27Q304 27 358 56T446 140L474 127Q435 63 372 28T231
-7ZM473 275Q486 333 472 377T420 447T325 473Q272 473 225 448T143 377T94 275H473ZM466 575L364 651L233 575L239 607L370 681L472 607L466 575Z" />
			<glyph unicode="&#xeb;" horiz-adv-x="557" d="M231 -7Q162 -7 117 26T54 119T51 255Q65 329 106 386T206 475T332 507Q398 507 443 478T507 400T513 286Q512 278 510 267T504 243H87Q76 179 91 131T144 55T237 27Q304 27 358 56T446 140L474 127Q435 63 372 28T231
-7ZM473 275Q486 333 472 377T420 447T325 473Q272 473 225 448T143 377T94 275H473ZM287 588Q273 588 266 597T261 619Q264 633 275 643T300 653Q314 653 322 643T326 619Q324 606 313 597T287 588ZM417 588Q403 588 396 597T391 619Q393 633 405 643T430 653Q443
653 451 643T456 619Q453 606 442 597T417 588Z" />
			<glyph unicode="&#xec;" horiz-adv-x="343"
				d="M213 500H252L153 0H114L213 500ZM173 700L325 579L320 550L165 666L173 700Z" />
			<glyph unicode="&#xed;" horiz-adv-x="343"
				d="M213 500H252L153 0H114L213 500ZM350 700L343 666L143 550L148 579L350 700Z" />
			<glyph unicode="&#xee;" horiz-adv-x="400"
				d="M231 500H269L169 0H131L231 500ZM382 575L279 651L148 575L154 607L285 682L388 607L382 575Z" />
			<glyph unicode="&#xef;" horiz-adv-x="360" d="M211 500H249L150 0H111L211 500ZM182 588Q169 588 162 597T156 619Q159 633 170 643T196 653Q209 653 217 643T222 619Q219 606 208 597T182 588ZM312 588Q299 588 291 597T286 619Q288 633 300 643T326 653Q339
653 346 643T351 619Q348 606 337 597T312 588Z" />
			<glyph unicode="&#xf0;" horiz-adv-x="595"
				d="M599 685L594 658L484 621Q539 546 554 462T551 285Q532 188 487 123T380 25T245 -7Q170 -7 121 25T54 118T51 258Q66 332 108 388T211 476T346 507Q391 507 428 493T491 447T525 363Q527 433 509 490T451 610L294
557L300 585L435 631Q422 648 407 665T373 700H414Q445 672 470 642L599 685ZM252 26Q309 26 361 52T452 129T505 251Q519 325 501 374T440 449T341 474Q282 474 231 449T142 376T91 258Q68 145 115 86T252 26Z" />
			<glyph unicode="&#xf1;" horiz-adv-x="562"
				d="M132 500H168L146 387Q176 442 226 474T347 507Q402 507 440 483T494 410T495 284L439 0H402L457 282Q476 375 444 424T336 474Q257 474 200 420T122 259L70 0H33L132 500ZM222 558Q232 591 252 609T300 627Q323
627 335 616T358 594T391 583Q406 583 419 593T440 624H464Q456 594 434 575T385 556Q361 556 348 567T324 589T293 601Q277 601 265 591T246 558H222Z" />
			<glyph unicode="&#xf2;" horiz-adv-x="584" d="M241 -7Q171 -7 123 24T54 112T50 250Q66 329 109 387T213 476T343 507Q413 507 461 476T529 387T533 250Q517 170 475 113T371 24T241 -7ZM247 27Q300 27 351 51T441 124T495 250Q510 327 491 376T431 449T336 473Q283
473 232 449T143 376T89 250Q74 173 93 124T153 51T247 27ZM287 700L440 579L434 550L280 666L287 700Z" />
			<glyph unicode="&#xf3;" horiz-adv-x="584" d="M241 -7Q171 -7 123 24T54 112T50 250Q66 329 109 387T213 476T343 507Q413 507 461 476T529 387T533 250Q517 170 475 113T371 24T241 -7ZM247 27Q300 27 351 51T441 124T495 250Q510 327 491 376T431 449T336 473Q283
473 232 449T143 376T89 250Q74 173 93 124T153 51T247 27ZM464 700L458 666L257 550L263 579L464 700Z" />
			<glyph unicode="&#xf4;" horiz-adv-x="584" d="M241 -7Q171 -7 123 24T54 112T50 250Q66 329 109 387T213 476T343 507Q413 507 461 476T529 387T533 250Q517 170 475 113T371 24T241 -7ZM247 27Q300 27 351 51T441 124T495 250Q510 327 491 376T431 449T336 473Q283
473 232 449T143 376T89 250Q74 173 93 124T153 51T247 27ZM479 575L377 651L246 575L252 607L383 681L485 607L479 575Z" />
			<glyph unicode="&#xf5;" horiz-adv-x="584"
				d="M241 -7Q171 -7 123 24T54 112T50 250Q66 329 109 387T213 476T343 507Q413 507 461 476T529 387T533 250Q517 170 475 113T371 24T241 -7ZM247 27Q300 27 351 51T441 124T495 250Q510 327 491 376T431 449T336 473Q283
473 232 449T143 376T89 250Q74 173 93 124T153 51T247 27ZM245 558Q255 591 275 609T322 627Q345 627 357 616T381 594T414 583Q429 583 442 593T462 624H487Q478 594 456 575T408 556Q383 556 371 567T347 589T316 601Q300 601 288 591T269 558H245Z" />
			<glyph unicode="&#xf6;" horiz-adv-x="584" d="M241 -7Q171 -7 123 24T54 112T50 250Q66 329 109 387T213 476T343 507Q413 507 461 476T529 387T533 250Q517 170 475 113T371 24T241 -7ZM247 27Q300 27 351 51T441 124T495 250Q510 327 491 376T431 449T336 473Q283
473 232 449T143 376T89 250Q74 173 93 124T153 51T247 27ZM300 588Q286 588 279 597T274 619Q277 633 288 643T313 653Q327 653 335 643T339 619Q337 606 326 597T300 588ZM430 588Q416 588 409 597T404 619Q406 633 418 643T443 653Q456 653 464 643T469 619Q466
606 455 597T430 588Z" />
			<glyph unicode="&#xf7;" horiz-adv-x="647" d="M93 368H602L596 336H86L93 368ZM302 103Q288 103 281 112T276 136Q279 150 290 159T315 169Q328 169 335 160T340 136Q338 122 327 113T302 103ZM387 532Q373 532 366 541T362 565Q364 578 375 588T400 598Q413
598 420 589T426 564Q423 551 412 542T387 532Z" />
			<glyph unicode="&#xf8;" horiz-adv-x="584" d="M485 437L506 416L113 62L90 81L485 437ZM241 -7Q171 -7 123 24T54 112T50 250Q66 329 109 387T213 476T343 507Q413 507 461 476T529 387T533 250Q517 170 475 113T371 24T241 -7ZM247 27Q300 27 351 51T441 124T495
250Q510 327 491 376T431 449T336 473Q283 473 232 449T143 376T89 250Q74 173 93 124T153 51T247 27Z" />
			<glyph unicode="&#xf9;" horiz-adv-x="561"
				d="M429 0H395L415 109Q386 54 336 24T216 -7Q161 -7 122 16T68 87T67 212L125 500H161L104 213Q86 120 118 74T226 27Q306 27 362 78T440 236L492 500H529L429 0ZM260 700L414 579L408 550L254 666L260 700Z" />
			<glyph unicode="&#xfa;" horiz-adv-x="561"
				d="M429 0H395L415 109Q386 54 336 24T216 -7Q161 -7 122 16T68 87T67 212L125 500H161L104 213Q86 120 118 74T226 27Q306 27 362 78T440 236L492 500H529L429 0ZM437 700L431 666L231 550L237 579L437 700Z" />
			<glyph unicode="&#xfb;" horiz-adv-x="561"
				d="M429 0H395L415 109Q386 54 336 24T216 -7Q161 -7 122 16T68 87T67 212L125 500H161L104 213Q85 120 117 74T226 27Q306 27 362 78T440 236L492 500H529L429 0ZM453 575L351 651L219 575L225 607L357 681L459 607L453 575Z" />
			<glyph unicode="&#xfc;" horiz-adv-x="561"
				d="M429 0H395L415 109Q386 54 336 24T216 -7Q161 -7 122 16T68 87T67 212L125 500H161L104 213Q86 120 118 74T226 27Q306 27 362 78T440 236L492 500H529L429 0ZM274 588Q260 588 253 597T248 619Q250 633 261 643T287
653Q300 653 308 643T313 619Q311 606 300 597T274 588ZM404 588Q390 588 382 597T377 619Q380 633 391 643T417 653Q429 653 437 643T442 619Q440 606 429 597T404 588Z" />
			<glyph unicode="&#xfd;" horiz-adv-x="486"
				d="M477 500H514L99 -200H62L182 2L70 500H109L210 45L477 500ZM410 700L403 666L203 550L209 579L410 700Z" />
			<glyph unicode="&#xfe;" horiz-adv-x="625" d="M24 -228H-12L171 693H207L141 361Q174 425 238 466T384 508Q454 508 502 477T571 388T576 251Q560 173 517 115T413 25T281 -7Q229 -7 190 12T128 66T98 141L24 -228ZM537 251Q551 321 535 370T476 447T374 474Q314
474 261 447T171 369T119 251Q105 183 123 133T183 54T284 26Q346 26 398 53T486 131T537 251Z" />
			<glyph unicode="&#xff;" horiz-adv-x="486" d="M477 500H514L99 -200H62L182 2L70 500H109L210 45L477 500ZM246 588Q232 588 225 597T220 619Q222 633 233 643T259 653Q272 653 280 643T286 619Q282 606 271 597T246 588ZM375 588Q362 588 355 597T349 619Q351
633 363 643T388 653Q402 653 409 643T415 619Q412 606 400 597T375 588Z" />
			<glyph unicode="&#x2013;" horiz-adv-x="628" d="M69 296H577L571 263H63L69 296Z" />
			<glyph unicode="&#x2014;" horiz-adv-x="818" d="M69 296H767L760 263H63L69 296Z" />
			<glyph unicode="&#x2018;" horiz-adv-x="215" d="M259 700L164 502H114L229 700H259Z" />
			<glyph unicode="&#x2019;" horiz-adv-x="215" d="M96 502L191 700H240L126 502H96Z" />
			<glyph unicode="&#x201a;" horiz-adv-x="216" d="M-23 -100L72 98H122L7 -100H-23Z" />
			<glyph unicode="&#x201c;" horiz-adv-x="336"
				d="M259 700L164 502H114L229 700H259ZM379 700L285 502H235L350 700H379Z" />
			<glyph unicode="&#x201d;" horiz-adv-x="336"
				d="M217 502L311 700H361L246 502H217ZM96 502L191 700H240L126 502H96Z" />
			<glyph unicode="&#x201e;" horiz-adv-x="339"
				d="M-23 -100L72 98H122L7 -100H-23ZM100 -100L195 98H245L130 -100H100Z" />
			<glyph unicode="&#x2022;" horiz-adv-x="430"
				d="M211 229Q182 229 161 243T131 281T128 333Q133 363 152 386T197 424T252 438Q282 438 302 424T332 387T337 333Q331 304 312 281T267 244T211 229Z" />
			<glyph unicode="&#x2039;" horiz-adv-x="249" d="M158 75H115L47 250L184 425H227L87 250L158 75Z" />
			<glyph unicode="&#x203a;" horiz-adv-x="248" d="M20 75L162 250L90 425H133L202 250L63 75H20Z" />
		</font>
</defs>
</svg>
