<?xml version="1.0" standalone="no"?>
<!DOCTYPE svg PUBLIC "-//W3C//DTD SVG 1.1//EN" "http://www.w3.org/Graphics/SVG/1.1/DTD/svg11.dtd">
<svg xmlns="http://www.w3.org/2000/svg">
	<defs>
		<font id="AlbertSans" horiz-adv-x="556">
			<font-face font-family="Albert Sans Medium" units-per-em="1000" panose-1="0 0 0 0 0 0 0 0 0 0" ascent="950"
				descent="-250" alphabetic="0" />
			<glyph unicode=" " horiz-adv-x="280" />
			<glyph unicode="!" horiz-adv-x="272"
				d="M82 700H187L176 202H93L82 700ZM136 -6Q109 -6 90 13T71 60Q71 87 90 106T136 125Q163 125 182 106T201 60Q201 32 182 13T136 -6Z" />
			<glyph unicode="&quot;" horiz-adv-x="328"
				d="M48 700H139L128 504H60L48 700ZM188 700H280L269 504H201L188 700Z" />
			<glyph unicode="#" horiz-adv-x="835"
				d="M298 700H393L358 530H562L598 700H693L658 530H796V443H640L606 278H745V190H588L549 0H454L493 190H288L249 0H154L193 190H40V278H211L245 443H91V530H263L298 700ZM306 278H510L544 443H340L306 278Z" />
			<glyph unicode="$" horiz-adv-x="578"
				d="M258 775H316V-75H258V775ZM139 185Q145 157 163 133T214 94T293 79Q363 79 396 111T430 188Q430 224 410 247T354 287T272 317Q232 329 194 342T124 376T75 429T57 511Q57 572 86 616T167 683T289 707Q347 707 393 691T470
644T517 570L426 537Q420 559 401 578T353 610T288 622Q251 623 222 611T175 575T157 520Q157 485 177 465T230 432T304 407Q346 394 386 379T458 341T511 284T531 197Q531 141 505 95T427 21T295 -7Q230 -7 178 13T93 68T48 151L139 185Z" />
			<glyph unicode="%" horiz-adv-x="782"
				d="M48 555Q48 627 90 667T196 707Q259 707 301 667T344 555Q344 483 302 443T196 402Q132 402 90 442T48 555ZM196 646Q164 646 145 624T126 555Q126 509 145 486T196 463Q227 463 246 486T265 555Q265 602 246 624T196
646ZM543 700H641L238 0H140L543 700ZM439 145Q439 217 481 257T587 298Q650 298 692 258T735 145Q735 74 693 34T587 -7Q524 -7 482 33T439 145ZM587 236Q555 236 536 214T517 145Q517 99 536 77T587 55Q617 55 636 77T656 145Q656 192 637 214T587 236Z" />
			<glyph unicode="&amp;" horiz-adv-x="697" d="M404 582Q387 600 361 610T300 621Q237 621 208 586T178 501Q178 464 197 442T254 408T350 396H577V311H351Q257 311 211 287T165 194Q165 158 178 133T219 93T295 79Q364 79 392 112T421 216V352H518V216Q518 136
491 87T413 16T294 -7Q218 -7 167 17T90 85T63 186Q63 233 80 266T127 321T198 353V358Q163 367 136 389T92 442T76 512Q76 564 101 608T176 680T296 707Q355 707 403 689T484 635L404 582ZM484 635L404 582L484 635ZM379 396Q393 396 404 400T421 418T427 458V519H519V396H644V311H519V170Q519
122 541 102T605 82Q613 82 623 83T644 85V4Q630 1 616 -1T589 -3Q545 -3 507 14T445 69T421 170V312H347V396H379Z" />
			<glyph unicode="&apos;" horiz-adv-x="196" d="M52 700H144L132 504H64L52 700Z" />
			<glyph unicode="(" horiz-adv-x="426"
				d="M259 -100Q194 -49 149 21T80 175T56 348Q56 438 80 521T154 676T276 800H379V792Q301 734 251 662T176 510T152 348Q152 268 175 189T245 38T362 -92V-100H259Z" />
			<glyph unicode=")" horiz-adv-x="426"
				d="M168 -100H65V-92Q134 -34 180 37T250 188T274 348Q274 430 250 509T176 661T48 792V800H151Q224 747 273 676T346 522T370 348Q370 259 347 176T278 22T168 -100Z" />
			<glyph unicode="*" horiz-adv-x="478"
				d="M263 585L383 674L422 603L284 548L423 492L382 420L263 509L281 360H201L217 509L98 418L56 493L194 549L56 602L96 674L218 585L201 735H282L263 585Z" />
			<glyph unicode="+" horiz-adv-x="628" d="M360 605V95H268V605H360ZM59 392H569V308H59V392Z" />
			<glyph unicode="," horiz-adv-x="276" d="M108 130H217L101 -142H36L108 130Z" />
			<glyph unicode="-" horiz-adv-x="523" d="M59 320H463V236H59V320Z" />
			<glyph unicode="." horiz-adv-x="248"
				d="M124 -6Q97 -6 78 13T59 59Q59 87 78 106T124 125Q151 125 170 106T189 59Q189 32 170 13T124 -6Z" />
			<glyph unicode="/" horiz-adv-x="339" d="M240 800H339L98 -100H0L240 800Z" />
			<glyph unicode="0" horiz-adv-x="635"
				d="M63 350Q63 428 75 493T115 606T193 680T318 707Q394 707 443 681T520 607T560 494T572 350Q572 271 561 206T521 93T443 19T318 -7Q243 -7 193 19T115 92T75 205T63 350ZM471 350Q471 404 466 453T447 540T401 599T318
621Q266 621 235 600T189 540T170 453T165 350Q165 293 169 244T189 158T235 100T318 79Q370 79 401 100T446 158T466 244T471 350Z" />
			<glyph unicode="1" horiz-adv-x="314" d="M135 616H40V700H235V0H135V616Z" />
			<glyph unicode="2" horiz-adv-x="598" d="M54 73L260 265Q319 319 353 358T402 430T417 500Q417 553 387 587T288 621Q245 621 215 602T169 549T152 468H56Q58 548 89 601T172 680T289 707Q361 707 412 681T491 609T518 500Q518 455 502 413T445 322T336 209L200
84H537V0H54V73Z" />
			<glyph unicode="3" horiz-adv-x="597"
				d="M63 510Q67 573 98 617T182 684T301 707Q372 707 421 680T495 609T521 512Q521 474 505 443T462 389T399 358V353Q439 343 469 322T517 267T534 186Q534 129 508 86T431 18T303 -7Q230 -7 175 15T89 84T53 206H149Q154
144 190 112T303 79Q348 79 377 93T419 132T433 194Q433 262 387 286T246 311H221V396H247Q304 397 342 408T400 441T420 501Q420 551 390 586T298 621Q256 621 227 607T181 567T160 510H63Z" />
			<glyph unicode="4" horiz-adv-x="654"
				d="M407 160H40V233L385 700H506V245H602V160H506V0H407V160ZM409 245V597L154 245H409Z" />
			<glyph unicode="5" horiz-adv-x="623" d="M516 700V616H178V407Q199 436 239 454T330 472Q395 472 439 450T510 393T550 318T563 240Q563 172 535 116T450 27T314 -7Q242 -7 189 18T104 88T63 190H160Q173 138 213 109T315 79Q365 79 398 99T446 154T462 238Q462
308 424 347T316 386Q263 386 226 361T173 293H79V700H516Z" />
			<glyph unicode="6" horiz-adv-x="607" d="M307 -7Q233 -7 176 25T86 113T54 239Q54 294 74 349T139 461L322 700H430L222 430L106 311Q127 382 183 426T320 470Q390 470 444 441T528 359T559 237Q559 167 527 112T437 25T307 -7ZM155 237Q155 189 172 154T224
99T307 79Q356 79 389 98T440 153T458 237Q458 286 441 320T390 372T307 390Q259 390 225 372T173 320T155 237Z" />
			<glyph unicode="7" horiz-adv-x="557" d="M517 700V626L239 0H139L420 616H40V700H517Z" />
			<glyph unicode="8" horiz-adv-x="628"
				d="M187 368Q135 389 105 427T75 524Q75 575 102 616T181 682T314 707Q393 707 446 682T525 616T552 524Q552 469 521 429T440 368Q500 349 535 305T571 197Q571 134 538 89T448 18T314 -7Q238 -7 180 18T90 88T57 197Q57
261 92 305T187 368ZM450 513Q450 570 415 595T314 621Q250 621 214 596T177 512Q177 461 214 432T314 402Q377 402 413 431T450 513ZM314 324Q269 324 234 311T178 271T158 200Q158 142 198 111T314 79Q388 79 429 111T470 200Q470 242 450 269T395 310T314 324Z" />
			<glyph unicode="9" horiz-adv-x="607" d="M299 707Q373 707 430 675T520 587T553 461Q553 406 532 351T467 239L285 0H177L385 270L500 389Q480 318 424 274T287 230Q216 230 163 259T79 341T48 463Q48 534 80 589T169 675T299 707ZM452 463Q452 512 434 547T382
601T299 621Q250 621 217 602T166 547T149 463Q149 415 166 381T216 328T299 310Q347 310 381 328T434 380T452 463Z" />
			<glyph unicode=":" horiz-adv-x="256"
				d="M128 -6Q101 -6 82 13T63 59Q63 87 82 106T128 125Q155 125 174 106T193 59Q193 32 174 13T128 -6ZM128 419Q101 419 82 438T63 484Q63 512 82 531T128 550Q155 550 174 531T193 484Q193 457 174 438T128 419Z" />
			<glyph unicode=";" horiz-adv-x="293"
				d="M165 419Q138 419 119 438T100 484Q100 512 119 531T165 550Q192 550 211 531T230 484Q230 457 211 438T165 419ZM112 130H221L105 -142H40L112 130Z" />
			<glyph unicode="&lt;" horiz-adv-x="502" d="M422 121H297L59 350L297 579H422L184 350L422 121Z" />
			<glyph unicode="=" horiz-adv-x="667" d="M72 283H596V199H72V283ZM72 502H596V418H72V502Z" />
			<glyph unicode="&gt;" horiz-adv-x="501" d="M317 350L79 579H205L442 350L205 121H79L317 350Z" />
			<glyph unicode="?" horiz-adv-x="547"
				d="M272 707Q338 707 388 682T466 611T495 500Q495 428 464 383T379 317T256 295L253 205H167L162 363H192Q235 363 271 368T335 388T378 429T394 500Q394 538 380 565T339 606T273 621Q215 621 181 591T146 504H53Q52 565
79 610T156 681T272 707ZM214 -6Q186 -6 168 13T149 59Q149 87 167 106T214 125Q241 125 259 106T278 59Q278 32 260 13T214 -6Z" />
			<glyph unicode="@" horiz-adv-x="989"
				d="M586 152L607 119Q580 63 526 28T408 -7Q330 -7 288 40T245 166Q245 222 262 273T313 364T391 427T491 450Q552 450 587 421T633 334L606 320L627 441H714L663 153Q657 112 665 86T712 60Q743 60 767 83T806 144T829 223T837
303Q837 390 803 450T702 541T541 573Q451 573 375 540T243 448T157 311T126 140Q125 53 160 -7T263 -99T424 -130Q465 -130 508 -122T590 -96L603 -162Q557 -182 507 -191T404 -200Q295 -200 214 -160T89 -44T44 132Q44 239 81 332T186 494T348 603T553 643Q667
643 749 601T874 483T918 308Q918 251 904 195T861 94T791 21T697 -7Q635 -7 608 28T585 119L586 152ZM491 374Q443 374 409 346T356 273T337 180Q337 132 362 101T438 70Q481 70 517 95T574 160T597 251Q599 285 588 313T553 357T491 374Z" />
			<glyph unicode="A" horiz-adv-x="692"
				d="M365 616H330L110 0H8L260 700H433L685 0H583L365 616ZM137 262H545V178H137V262Z" />
			<glyph unicode="B" horiz-adv-x="666" d="M497 506Q497 557 464 586T367 616H179V397H368Q429 397 463 426T497 506ZM79 0V700H376Q450 700 499 675T572 609T597 518Q597 471 580 439T534 388T469 361V354Q512 348 544 329T595 274T614 187Q614 135 587 92T510
25T387 0H79ZM179 84H378Q442 84 478 113T515 198Q515 254 477 283T375 313H179V84Z" />
			<glyph unicode="C" horiz-adv-x="764" d="M40 350Q40 429 67 494T142 607T253 681T391 707Q496 707 578 658T704 517L624 488Q600 535 563 564T482 607T393 621Q322 621 265 588T175 494T142 350Q142 268 174 207T264 113T393 79Q439 79 484 94T568 142T632 230L712
202Q667 96 583 45T391 -7Q317 -7 254 19T142 93T67 206T40 350Z" />
			<glyph unicode="D" horiz-adv-x="729"
				d="M319 700Q433 700 515 657T643 535T689 347Q689 239 644 162T516 42T319 0H79V700H319ZM319 84Q451 84 519 153T588 347Q588 473 520 544T319 616H179V84H319Z" />
			<glyph unicode="E" horiz-adv-x="606" d="M547 616H179V397H455V313H179V84H547V0H79V700H547V616Z" />
			<glyph unicode="F" horiz-adv-x="586" d="M79 700H547V616H179V397H455V313H179V0H79V700Z" />
			<glyph unicode="G" horiz-adv-x="768" d="M618 486Q580 557 522 589T394 621Q324 621 266 587T175 493T141 350Q141 269 174 208T264 113T393 79Q444 79 489 97T567 147T620 223V299H400V381H721V218Q697 154 650 103T537 23T393 -7Q319 -7 255 19T142 92T67 205T40
350Q40 428 67 493T142 607T254 681T393 707Q460 707 521 685T630 621T705 518L618 486Z" />
			<glyph unicode="H" horiz-adv-x="710" d="M79 700H179V397H531V700H630V0H531V313H179V0H79V700Z" />
			<glyph unicode="I" horiz-adv-x="258" d="M79 700H179V0H79V700Z" />
			<glyph unicode="J" horiz-adv-x="516"
				d="M341 700H441V193Q441 133 415 88T344 18T240 -7Q167 -7 119 28T53 128L138 157Q145 134 158 116T191 88T240 77Q274 77 296 93T329 134T341 189V700Z" />
			<glyph unicode="K" horiz-adv-x="631"
				d="M79 700H179V397H215L489 700H615L304 355L619 0H488L214 313H179V0H79V700Z" />
			<glyph unicode="L" horiz-adv-x="525" d="M179 700V84H499V0H79V700H179Z" />
			<glyph unicode="M" horiz-adv-x="874"
				d="M179 0H79V700H189L438 133L686 700H795V0H696V506L474 0H401L179 506V0Z" />
			<glyph unicode="N" horiz-adv-x="709" d="M630 700V0H528L179 542V0H79V700H181L530 160V700H630Z" />
			<glyph unicode="O" horiz-adv-x="783" d="M393 -7Q319 -7 255 19T142 92T67 205T40 350Q40 429 67 494T142 607T254 681T393 707Q466 707 530 681T642 607T717 494T744 350Q744 271 717 206T642 93T530 19T393 -7ZM393 79Q464 79 520 112T610 206T643 350Q643
434 610 494T521 588T393 621Q321 621 264 588T175 495T142 350Q142 267 174 206T264 112T393 79Z" />
			<glyph unicode="P" horiz-adv-x="622"
				d="M340 367Q389 367 420 382T467 426T482 491Q482 550 448 583T340 616H179V367H340ZM582 491Q582 453 569 416T527 348T452 301T340 283H179V0H79V700H340Q422 700 475 672T555 596T582 491Z" />
			<glyph unicode="Q" horiz-adv-x="783" d="M345 184H445V-100H345V184ZM393 -7Q319 -7 255 19T142 92T67 205T40 350Q40 429 67 494T142 607T254 681T393 707Q466 707 530 681T642 607T717 494T744 350Q744 271 717 206T642 93T530 19T393 -7ZM393 79Q464 79 520
112T610 206T643 350Q643 434 610 494T521 588T393 621Q321 621 264 588T175 495T142 350Q142 267 174 206T264 112T393 79Z" />
			<glyph unicode="R" horiz-adv-x="636"
				d="M481 491Q481 548 447 582T339 616H179V367H340Q389 367 420 382T466 426T481 491ZM339 700Q422 700 475 672T555 596T582 491Q582 453 569 416T527 349T452 301T340 283H179V0H79V700H339ZM403 317L596 0H483L297 317H403Z" />
			<glyph unicode="S" horiz-adv-x="578"
				d="M139 185Q145 157 163 133T214 94T293 79Q363 79 396 111T430 188Q430 224 410 247T354 287T272 317Q232 329 194 342T124 376T75 429T57 511Q57 572 86 616T167 683T289 707Q347 707 393 691T470 644T517 570L426 537Q420
559 401 578T353 610T288 622Q251 623 222 611T175 575T157 520Q157 485 177 465T230 432T304 407Q346 394 386 379T458 341T511 284T531 197Q531 141 505 95T427 21T295 -7Q230 -7 178 13T93 68T48 151L139 185Z" />
			<glyph unicode="T" horiz-adv-x="616" d="M40 700H577V616H359V0H259V616H40V700Z" />
			<glyph unicode="U" horiz-adv-x="702"
				d="M75 700H175V255Q175 195 198 156T261 98T351 79Q402 79 441 97T504 155T527 255V700H627V257Q627 189 605 140T543 58T454 9T350 -7Q278 -7 215 21T114 108T75 257V700Z" />
			<glyph unicode="V" horiz-adv-x="693" d="M561 700H666L403 0H288L26 700H132L346 103L561 700Z" />
			<glyph unicode="W" horiz-adv-x="994"
				d="M337 0H226L26 700H133L282 116L442 700H553L712 118L862 700H967L768 0H656L497 551L337 0Z" />
			<glyph unicode="X" horiz-adv-x="726"
				d="M53 700H163L363 430L562 700H673L419 350L673 0H562L363 270L163 0H53L307 350L53 700Z" />
			<glyph unicode="Y" horiz-adv-x="670" d="M532 700H643L384 260V0H285V259L26 700H137L334 351L532 700Z" />
			<glyph unicode="Z" horiz-adv-x="597" d="M543 624L170 84H545V0H53V76L425 616H55V700H543V624Z" />
			<glyph unicode="[" horiz-adv-x="313" d="M75 800H265V718H169V-17H265V-100H75V800Z" />
			<glyph unicode="\" horiz-adv-x="339" d="M339 -100H241L0 800H98L339 -100Z" />
			<glyph unicode="]" horiz-adv-x="313" d="M238 800V-100H48V-17H144V718H48V800H238Z" />
			<glyph unicode="^" horiz-adv-x="669" d="M335 579L154 250H52L287 700H380L617 250H513L335 579Z" />
			<glyph unicode="_" horiz-adv-x="538" d="M-2 -38H540V-131H-2V-38Z" />
			<glyph unicode="`" horiz-adv-x="240" d="M12 787L227 664V590L12 703V787Z" />
			<glyph unicode="a" horiz-adv-x="527" d="M377 0L369 73Q346 35 310 15T215 -6Q161 -6 123 11T65 60T44 134Q44 197 91 238T227 290L369 306V345Q369 377 343 399T268 422Q222 422 190 401T147 337L63 367Q82 433 137 470T272 507Q366 507 415 460T464 336V0H377ZM369
229L232 212Q188 206 166 188T144 139Q144 111 165 93T226 74Q274 74 306 92T353 142T369 218V229Z" />
			<glyph unicode="b" horiz-adv-x="600" d="M156 415Q179 454 224 480T335 507Q403 507 454 475T533 385T562 250Q562 173 533 115T453 25T335 -7Q274 -7 232 17T165 75L158 0H72V720H166V412L156 415ZM460 250Q460 327 420 374T314 421Q272 421 239 401T186 342T166
250Q166 196 186 158T239 99T314 79Q379 79 419 126T460 250Z" />
			<glyph unicode="c" horiz-adv-x="553" d="M286 -7Q214 -7 159 25T74 115T43 248Q43 325 74 383T160 474T288 507Q365 507 423 471T508 374L423 344Q408 379 373 400T292 421Q246 421 213 400T162 340T144 249Q144 171 184 125T292 79Q337 79 372 99T426 154L510
124Q482 64 422 29T286 -7Z" />
			<glyph unicode="d" horiz-adv-x="604" d="M449 415L438 412V720H533V0H447L440 75Q415 41 373 17T269 -7Q201 -7 151 25T72 115T43 250Q43 327 71 385T150 475T269 507Q334 507 379 481T449 415ZM144 250Q144 173 184 126T291 79Q332 79 365 99T418 157T438 250Q438
304 418 342T365 400T291 421Q225 421 185 374T144 250Z" />
			<glyph unicode="e" horiz-adv-x="563" d="M289 -7Q217 -7 162 26T75 119T43 254Q43 327 74 384T159 474T283 507Q353 507 407 477T491 392T520 266Q520 254 519 242T516 214H146Q149 174 168 144T218 96T288 79Q338 79 375 98T427 151L509 122Q479 61 422 27T289
-7ZM417 295Q417 331 399 360T351 405T282 422Q248 422 220 406T172 361T147 295H417Z" />
			<glyph unicode="f" horiz-adv-x="323"
				d="M96 556Q96 613 115 652T176 708T284 720V637Q232 642 212 621T191 556V500H290V416H191V0H96V416H32V500H96V556Z" />
			<glyph unicode="g" horiz-adv-x="604"
				d="M447 500H533V82Q533 -6 491 -69T371 -166T181 -200L166 -117Q300 -114 369 -64T438 82V87L449 86Q425 48 381 21T270 -7Q203 -7 152 25T72 115T43 250Q43 327 71 385T151 475T270 507Q311 507 343 496T400 467T440 425L447
500ZM144 250Q144 173 184 126T293 79Q333 79 366 99T418 158T438 250Q438 304 419 342T366 400T293 421Q225 421 185 374T144 250Z" />
			<glyph unicode="h" horiz-adv-x="565"
				d="M72 720H166V445Q190 474 228 490T312 507Q368 507 410 483T477 410T501 289V0H402V277Q402 347 373 384T288 421Q230 421 198 383T166 272V0H72V720Z" />
			<glyph unicode="i" horiz-adv-x="268"
				d="M87 500H182V0H87V500ZM135 588Q108 588 90 606T72 650Q72 677 90 695T135 714Q161 714 179 696T198 650Q198 624 180 606T135 588Z" />
			<glyph unicode="j" horiz-adv-x="262"
				d="M84 25Q84 -37 53 -74T-36 -117L-21 -200Q31 -198 76 -172T150 -96T179 24V500H84V25ZM131 588Q105 588 87 606T68 650Q68 677 86 695T131 714Q158 714 176 696T194 650Q194 624 176 606T131 588Z" />
			<glyph unicode="k" horiz-adv-x="538"
				d="M72 720H167V291H208L395 500H523L291 250L524 0H395L208 210H167V0H72V720Z" />
			<glyph unicode="l" horiz-adv-x="237" d="M72 720H166V0H72V720Z" />
			<glyph unicode="m" horiz-adv-x="890" d="M72 500H158L164 442Q188 472 224 489T305 507Q356 507 397 485T463 418Q488 462 534 484T635 507Q692 507 735 483T803 410T827 290V0H732V278Q732 348 702 384T616 421Q559 421 526 383T493 272V0H398V278Q398 348 370
384T286 421Q229 421 198 383T166 272V0H72V500Z" />
			<glyph unicode="n" horiz-adv-x="561"
				d="M72 500H158L164 442Q188 473 225 490T307 507Q365 507 407 483T473 410T497 290V0H403V278Q403 348 374 384T288 421Q230 421 198 384T166 273V0H72V500Z" />
			<glyph unicode="o" horiz-adv-x="589" d="M291 -7Q220 -7 164 24T75 113T43 249Q43 328 76 386T166 475T294 507Q365 507 422 476T513 387T546 251Q546 172 513 114T421 25T291 -7ZM290 79Q330 79 365 97T422 154T445 251Q445 309 424 346T367 402T292 421Q253
421 220 403T165 346T144 249Q144 191 164 154T218 98T290 79Z" />
			<glyph unicode="p" horiz-adv-x="604" d="M156 85L166 88V-200H72V500H158L165 425Q189 459 231 483T335 507Q401 507 452 475T532 386T562 250Q562 173 534 115T454 25T335 -7Q270 -7 225 19T156 85ZM460 250Q460 327 420 374T314 421Q272 421 239 401T186 343T166
250Q166 196 186 158T239 100T314 79Q379 79 419 126T460 250Z" />
			<glyph unicode="q" horiz-adv-x="604" d="M449 85Q425 46 380 20T269 -7Q201 -7 151 25T72 115T43 250Q43 328 71 385T150 475T269 507Q330 507 372 483T440 425L447 500H533V-200H438V88L449 85ZM144 250Q144 173 184 126T291 79Q332 79 365 99T418 158T438 250Q438
305 418 343T365 401T291 421Q224 421 184 374T144 250Z" />
			<glyph unicode="r" horiz-adv-x="363"
				d="M72 500H158L164 433Q185 459 212 476T272 501T340 500V411Q307 419 276 413T221 388T181 336T166 259V0H72V500Z" />
			<glyph unicode="s" horiz-adv-x="480"
				d="M128 158Q135 128 152 111T192 87T242 79Q287 79 312 97T337 142Q337 165 322 178T281 200T226 215Q200 222 170 231T113 255T69 295T52 358Q52 403 76 436T144 488T243 507Q307 507 355 480T426 397L341 369Q334 388
318 400T282 416T241 421Q203 421 178 406T153 362Q153 346 161 336T183 319T218 307T261 296Q291 287 322 277T379 250T421 208T438 144Q438 100 414 66T345 13T239 -7Q165 -7 113 26T43 128L128 158Z" />
			<glyph unicode="t" horiz-adv-x="357"
				d="M104 500V640H199V500H324V416H199V170Q199 124 217 105T264 84T324 85V4Q283 -5 244 -2T173 21T123 76T104 170V416H32V500H104Z" />
			<glyph unicode="u" horiz-adv-x="561"
				d="M490 0H404L397 59Q373 27 337 10T255 -7Q197 -7 154 17T88 89T64 208V500H159V220Q159 151 187 115T274 79Q331 79 363 116T396 226V500H490V0Z" />
			<glyph unicode="v" horiz-adv-x="538" d="M126 500L270 101L415 500H515L320 0H218L24 500H126Z" />
			<glyph unicode="w" horiz-adv-x="756"
				d="M271 0H181L24 500H120L225 112L337 500H427L535 114L639 500H732L577 0H486L379 363L271 0Z" />
			<glyph unicode="x" horiz-adv-x="508"
				d="M29 500H137L254 325L371 500H479L305 250L479 0H371L254 177L137 0H29L202 250L29 500Z" />
			<glyph unicode="y" horiz-adv-x="529" d="M413 500H511L221 -200H128L216 10L18 500H122L267 121L413 500Z" />
			<glyph unicode="z" horiz-adv-x="478" d="M430 423L165 84H431V0H47V77L313 416H48V500H430V423Z" />
			<glyph unicode="{" horiz-adv-x="380"
				d="M44 381Q79 385 101 396T133 424T144 461Q144 493 140 531T131 608T126 681Q126 740 167 770T274 800H336V731H294Q259 731 241 718T222 675Q222 646 226 608T235 532T240 458Q240 418 215 390T134 351V350Q190 340 215
311T240 242Q240 208 236 169T227 93T222 26Q222 -4 240 -17T294 -30H336V-100H274Q209 -100 168 -69T126 20Q126 54 130 93T139 170T144 239Q144 260 134 276T101 304T44 320V381Z" />
			<glyph unicode="|" horiz-adv-x="290" d="M195 800V-100H95V800H195Z" />
			<glyph unicode="}" horiz-adv-x="379"
				d="M336 381V320Q300 315 278 304T246 277T235 239Q235 209 240 171T249 93T254 20Q254 -38 213 -69T105 -100H44V-30H85Q121 -30 139 -17T157 26Q157 56 153 93T144 169T139 242Q139 282 164 311T246 350V351Q189 361 164
389T139 458Q139 493 143 531T152 608T157 675Q157 705 139 718T85 731H44V800H105Q171 800 212 770T254 681Q254 648 250 609T240 531T235 461Q235 441 245 425T278 397T336 381Z" />
			<glyph unicode="~" horiz-adv-x="569"
				d="M56 274Q70 354 108 391T204 428Q232 428 254 418T295 395T333 372T373 362Q398 362 417 378T440 426H514Q500 346 461 310T366 273Q336 273 315 282T274 305T237 329T196 339Q171 339 152 322T128 274H56Z" />
			<glyph unicode="&#xa0;" horiz-adv-x="280" />
			<glyph unicode="&#xa1;" horiz-adv-x="272"
				d="M136 564Q163 564 182 546T201 499Q201 471 182 453T136 434Q109 434 90 452T71 499Q71 527 90 545T136 564ZM82 -141L93 357H176L187 -141H82Z" />
			<glyph unicode="&#xa2;" horiz-adv-x="553" d="M266 600H324V458H266V600ZM266 60H324V-100H266V60ZM286 -7Q214 -7 159 25T74 115T43 248Q43 325 74 383T160 474T288 507Q365 507 423 471T508 374L423 344Q408 379 373 400T292 421Q246 421 213 400T162 340T144
249Q144 171 184 125T292 79Q337 79 372 99T426 154L510 124Q482 64 422 29T286 -7Z" />
			<glyph unicode="&#xa3;" horiz-adv-x="610" d="M341 707Q414 707 461 678T532 602T558 498H467Q466 552 436 587T341 623Q306 623 277 610T231 567T214 489Q214 453 222 423T241 365T260 310T269 251Q269 202 252 161T200 82H562V0H110L92 55Q117 83 136 110T165
171T175 251Q175 284 167 309T148 360T129 418T120 494Q120 560 148 607T226 681T341 707ZM434 376V306H55V376H434Z" />
			<glyph unicode="&#xa4;" horiz-adv-x="545"
				d="M272 554Q323 554 364 533T429 472T453 377Q453 323 429 284T364 222T271 200Q219 200 179 222T116 283T93 377Q93 432 116 471T180 532T272 554ZM272 492Q233 492 205 463T176 377Q176 321 204 292T271 263Q296
263 318 276T355 314T370 377Q370 415 356 440T320 479T272 492ZM149 459L64 543L109 588L196 502L149 459ZM350 501L436 588L481 543L394 455L350 501ZM399 295L481 213L436 168L353 251L399 295ZM198 257L109 168L64 213L149 299L198 257Z" />
			<glyph unicode="&#xa5;" horiz-adv-x="670"
				d="M394 387H584V315H380L394 387ZM85 223H584V151H85V223ZM85 387H290L303 315H85V387ZM532 700H643L384 260V0H285V259L26 700H137L334 351L532 700Z" />
			<glyph unicode="&#xa6;" horiz-adv-x="289" d="M194 279V-100H95V279H194ZM95 422V800H194V422H95Z" />
			<glyph unicode="&#xa7;" horiz-adv-x="461"
				d="M71 582Q71 633 112 670T227 707Q295 707 339 674T385 578H310Q308 598 299 615T272 642T227 653Q190 653 168 637T145 588Q145 569 155 555T192 528T265 497Q311 481 345 462T396 416T414 350Q414 317 398 289T349
240T268 211L275 241Q306 229 332 213T374 175T390 119Q390 67 349 30T235 -7Q167 -7 123 26T76 122H151Q153 101 162 84T189 57T235 47Q272 47 293 63T315 112Q315 131 305 145T269 172T196 203Q149 219 116 238T66 285T48 350Q48 384 64 413T112 462T193 487L186
459Q155 472 129 488T87 526T71 582ZM337 350Q337 387 308 412T229 437Q179 437 152 411T124 350Q124 314 152 289T232 263Q282 263 309 289T337 350Z" />
			<glyph unicode="&#xa8;" horiz-adv-x="301"
				d="M67 621Q44 621 28 637T12 676Q12 699 28 715T67 732Q90 732 106 716T123 676Q123 653 107 637T67 621ZM233 621Q210 621 194 637T178 676Q178 699 194 715T233 732Q256 732 272 716T289 676Q289 653 273 637T233 621Z" />
			<glyph unicode="&#xa9;" horiz-adv-x="802" d="M402 707Q505 707 582 661T704 534T748 349Q748 244 704 164T583 39T401 -7Q298 -7 220 38T98 164T54 349Q54 453 98 534T220 661T402 707ZM402 665Q309 665 241 626T136 515T99 349Q99 255 136 185T241 75T402 35Q494
35 562 74T666 184T703 349Q703 443 667 514T562 625T402 665ZM396 90Q324 90 270 122T184 211T153 346Q153 422 184 480T270 571T398 604Q475 604 534 568T618 471L533 441Q518 476 483 497T402 518Q357 518 324 497T273 437T254 346Q254 268 294 222T402 176Q447
176 483 196T536 251L620 221Q592 161 533 126T396 90Z" />
			<glyph unicode="&#xaa;" horiz-adv-x="456" d="M33 530Q33 583 55 623T115 686T199 709Q248 709 280 691T329 647V703H407V353H329V408Q314 383 282 365T202 347Q154 347 116 370T56 435T33 530ZM113 529Q113 472 145 440T221 408Q265 408 297 439T329 528Q329
585 297 616T221 648Q178 648 146 617T113 529Z" />
			<glyph unicode="&#xab;" horiz-adv-x="463"
				d="M231 75H134L40 250L134 425H231L133 250L231 75ZM416 75H318L224 250L318 425H416L318 250L416 75Z" />
			<glyph unicode="&#xac;" horiz-adv-x="649" d="M36 433H601V215H502V355H36V433Z" />
			<glyph unicode="&#xad;" horiz-adv-x="507" d="M52 320H455V236H52V320Z" />
			<glyph unicode="&#xae;" horiz-adv-x="517"
				d="M54 501Q54 561 80 607T152 680T259 707Q318 707 364 680T437 607T463 501Q463 441 437 395T365 321T259 294Q199 294 153 321T80 394T54 501ZM99 501Q99 453 118 416T174 358T259 337Q307 337 343 358T399 416T419
501Q419 550 400 586T344 644T259 665Q210 665 174 644T119 587T99 501ZM176 611V396H232V473H274Q308 473 328 492T349 542Q349 573 329 592T274 611H176ZM292 396H360L295 495L233 494L292 396ZM271 560Q280 560 287 556T294 540Q294 530 287 525T271 520H232V560H271Z" />
			<glyph unicode="&#xaf;" horiz-adv-x="381" d="M12 713H369V639H12V713Z" />
			<glyph unicode="&#xb0;" horiz-adv-x="407" d="M23 525Q23 580 47 619T111 679T203 700Q255 700 296 679T359 619T382 525Q382 471 359 432T295 372T201 350Q122 350 73 397T23 525ZM302 525Q302 584 273 613T202 642Q162 642 132 613T102 525Q102 466 131 438T201
409Q241 409 271 437T302 525Z" />
			<glyph unicode="&#xb1;" horiz-adv-x="731"
				d="M412 601V144H319V601H412ZM111 436H620V353H111V436ZM111 183H620V99H111V183Z" />
			<glyph unicode="&#xb2;" horiz-adv-x="340" d="M36 600Q38 647 71 677T167 707Q207 707 236 692T281 651T296 596Q296 570 287 549T259 509T208 466L105 387L102 414H299V350H37V407L147 494Q176 517 195 539T214 592Q214 618 200 632T165 647Q142 647 130 635T115
600H36Z" />
			<glyph unicode="&#xb3;" horiz-adv-x="358"
				d="M39 607Q42 636 59 658T107 694T178 707Q215 707 246 693T295 656T313 603Q313 572 296 554T251 527V525Q277 516 296 495T316 441Q316 400 277 372T174 343Q114 343 76 371T35 451H113Q117 425 133 413T173 401Q199
401 215 414T231 451Q231 474 215 488T171 502H131V553H169Q195 553 211 564T228 599Q228 621 213 634T172 647Q147 647 133 636T114 607H39Z" />
			<glyph unicode="&#xb4;" horiz-adv-x="240" d="M227 787V701L12 590V664L227 787Z" />
			<glyph unicode="&#xb5;" horiz-adv-x="597"
				d="M526 0H427V71Q401 32 360 12T271 -8Q252 -8 234 -4T199 10T170 33V-200H72V500H170V225Q170 152 205 115T298 77Q355 77 391 114T427 225V500H526V0Z" />
			<glyph unicode="&#xb6;" horiz-adv-x="617"
				d="M539 700V0H450V622H377V0H289V291H277Q195 291 143 318T65 392T40 495Q40 552 65 598T142 672T277 700H539Z" />
			<glyph unicode="&#xb7;" horiz-adv-x="235"
				d="M118 273Q91 273 72 292T53 338Q53 366 72 385T118 404Q145 404 164 385T183 338Q183 311 164 292T118 273Z" />
			<glyph unicode="&#xb8;" horiz-adv-x="269"
				d="M127 -54Q165 -54 194 -65T240 -99T257 -156Q257 -188 241 -211T196 -248T133 -261H12V-197H113Q144 -197 159 -188T174 -156Q174 -133 159 -124T113 -115H61V7H127V-54Z" />
			<glyph unicode="&#xb9;" horiz-adv-x="211" d="M80 642H26V700H158V350H80V642Z" />
			<glyph unicode="&#xba;" horiz-adv-x="439" d="M32 528Q32 584 57 624T124 687T220 709Q273 709 315 687T382 625T407 528Q407 474 382 433T314 370T218 347Q164 347 122 369T56 433T32 528ZM325 527Q325 587 293 617T218 648Q177 648 145 618T113 527Q113 469
144 439T218 409Q260 409 292 439T325 527Z" />
			<glyph unicode="&#xbb;" horiz-adv-x="463"
				d="M232 75L329 250L232 425H329L424 250L329 75H232ZM48 75L145 250L48 425H144L239 250L144 75H48Z" />
			<glyph unicode="&#xbc;" horiz-adv-x="651"
				d="M444 700H538L158 0H63L444 700ZM619 119V68H573V0H494V68H310V113L466 353H573V119H619ZM496 119V289L389 119H496ZM80 641H26V699H158V349H80V641Z" />
			<glyph unicode="&#xbd;" horiz-adv-x="689" d="M441 700H536L156 0H62L441 700ZM80 641H26V699H158V349H80V641ZM373 250Q375 297 408 327T505 357Q545 357 574 342T618 301T634 246Q634 220 625 199T596 159T546 116L442 37L440 64H636V0H375V57L484 144Q513
167 532 189T551 242Q551 268 537 282T502 297Q480 297 468 285T452 250H373Z" />
			<glyph unicode="&#xbe;" horiz-adv-x="725"
				d="M525 700H619L239 0H146L525 700ZM699 119V68H653V0H574V68H390V113L546 353H653V119H699ZM576 119V289L469 119H576ZM30 607Q33 636 51 658T99 694T169 707Q207 707 237 693T286 656T304 603Q304 572 287 554T242
527V525Q269 516 288 495T307 441Q307 400 268 372T165 343Q105 343 67 371T26 451H104Q108 425 124 413T165 401Q191 401 207 414T223 451Q223 474 206 488T162 502H122V553H160Q187 553 203 564T220 599Q220 621 205 634T163 647Q138 647 124 636T105 607H30Z" />
			<glyph unicode="&#xbf;" horiz-adv-x="547"
				d="M333 558Q360 558 379 539T398 492Q398 465 379 446T333 427Q306 427 288 446T269 492Q269 520 287 539T333 558ZM275 -156Q210 -156 160 -131T81 -59T53 51Q53 124 84 169T169 235T292 256L295 346H381L386 188H356Q313
188 277 183T213 164T170 122T154 51Q154 13 168 -13T209 -55T275 -70Q333 -70 367 -39T402 48H495Q495 -12 468 -58T392 -130T275 -156Z" />
			<glyph unicode="&#xc0;" horiz-adv-x="692"
				d="M231 949L446 825V751L231 864V949ZM365 616H330L110 0H8L260 700H433L685 0H583L365 616ZM137 262H545V178H137V262Z" />
			<glyph unicode="&#xc1;" horiz-adv-x="692"
				d="M446 949V862L231 751V825L446 949ZM365 616H330L110 0H8L260 700H433L685 0H583L365 616ZM137 262H545V178H137V262Z" />
			<glyph unicode="&#xc2;" horiz-adv-x="692"
				d="M487 755L347 841L207 755V834L347 918L487 834V755ZM365 616H330L110 0H8L260 700H433L685 0H583L365 616ZM137 262H545V178H137V262Z" />
			<glyph unicode="&#xc3;" horiz-adv-x="692" d="M191 760Q198 814 226 841T296 868Q322 868 340 857T374 835T410 823Q426 823 438 833T454 865H511Q503 811 475 784T406 757Q379 757 361 768T327 791T291 803Q273 803 262 793T248 760H191ZM365 616H330L110 0H8L260
700H433L685 0H583L365 616ZM137 262H545V178H137V262Z" />
			<glyph unicode="&#xc4;" horiz-adv-x="692" d="M264 782Q240 782 224 798T208 837Q208 860 224 876T264 893Q286 893 302 877T319 837Q319 814 303 798T264 782ZM430 782Q406 782 391 798T375 837Q375 860 390 876T430 893Q452 893 468 877T485 837Q485 814 469
798T430 782ZM365 616H330L110 0H8L260 700H433L685 0H583L365 616ZM137 262H545V178H137V262Z" />
			<glyph unicode="&#xc5;" horiz-adv-x="692" d="M456 854Q456 805 424 776T347 747Q302 747 270 776T238 854Q238 904 270 933T347 962Q392 962 424 933T456 854ZM399 855Q399 880 384 894T347 909Q325 909 310 895T295 855Q295 830 310 816T347 801Q369 801 384
815T399 855ZM365 616H330L110 0H8L260 700H433L685 0H583L365 616ZM137 262H545V178H137V262Z" />
			<glyph unicode="&#xc6;" horiz-adv-x="899"
				d="M563 616V397H750V312H563V84H840V0H463V177H214L116 0H8L398 700H840V616H563ZM260 262H463V627L260 262Z" />
			<glyph unicode="&#xc7;" horiz-adv-x="765"
				d="M426 -54Q463 -54 492 -65T538 -99T555 -156Q555 -189 539 -212T495 -249T431 -262H310V-198H412Q442 -198 457 -189T473 -156Q473 -133 458 -124T412 -115H359V7H426V-54ZM40 350Q40 429 67 494T142 607T253 681T391
707Q496 707 578 658T704 517L624 488Q600 535 563 564T482 607T393 621Q322 621 265 588T175 494T142 350Q142 268 174 207T264 113T393 79Q439 79 484 94T568 142T632 230L712 202Q667 96 583 45T391 -7Q317 -7 254 19T142 93T67 206T40 350Z" />
			<glyph unicode="&#xc8;" horiz-adv-x="606"
				d="M197 949L412 825V751L197 864V949ZM547 616H179V397H455V313H179V84H547V0H79V700H547V616Z" />
			<glyph unicode="&#xc9;" horiz-adv-x="606"
				d="M412 949V862L197 751V825L412 949ZM547 616H179V397H455V313H179V84H547V0H79V700H547V616Z" />
			<glyph unicode="&#xca;" horiz-adv-x="606"
				d="M453 755L313 841L173 755V834L313 918L453 834V755ZM547 616H179V397H455V313H179V84H547V0H79V700H547V616Z" />
			<glyph unicode="&#xcb;" horiz-adv-x="606" d="M230 782Q206 782 190 798T174 837Q174 860 190 876T230 893Q253 893 269 877T285 837Q285 814 269 798T230 782ZM396 782Q373 782 357 798T341 837Q341 860 357 876T396 893Q419 893 435 877T451 837Q451 814 435
798T396 782ZM547 616H179V397H455V313H179V84H547V0H79V700H547V616Z" />
			<glyph unicode="&#xcc;" horiz-adv-x="258" d="M12 949L228 825V751L12 864V949ZM79 700H179V0H79V700Z" />
			<glyph unicode="&#xcd;" horiz-adv-x="258" d="M228 949V862L12 751V825L228 949ZM79 700H179V0H79V700Z" />
			<glyph unicode="&#xce;" horiz-adv-x="258"
				d="M269 755L129 841L-11 755V834L129 918L269 834V755ZM79 700H179V0H79V700Z" />
			<glyph unicode="&#xcf;" horiz-adv-x="258" d="M46 782Q22 782 6 798T-10 837Q-10 860 6 876T46 893Q68 893 84 877T101 837Q101 814 85 798T46 782ZM212 782Q188 782 172 798T156 837Q156 860 172 876T212 893Q234 893 250 877T267 837Q267 814 251 798T212 782ZM79
700H179V0H79V700Z" />
			<glyph unicode="&#xd0;" horiz-adv-x="772"
				d="M59 394H142V700H363Q477 700 559 657T687 535T732 347Q732 240 687 162T560 42T363 0H142V302H59V394ZM242 76H363Q494 75 562 149T630 347Q630 473 562 546T363 619H242V394H429V302H242V76Z" />
			<glyph unicode="&#xd1;" horiz-adv-x="709" d="M209 760Q217 814 245 841T314 868Q341 868 359 857T392 835T429 823Q446 823 457 833T472 865H529Q522 811 494 784T424 757Q397 757 379 768T345 791T309 803Q293 803 281 793T266 760H209ZM630 700V0H528L179
542V0H79V700H181L530 160V700H630Z" />
			<glyph unicode="&#xd2;" horiz-adv-x="783"
				d="M278 949L493 825V751L278 864V949ZM393 -7Q319 -7 255 19T142 92T67 205T40 350Q40 429 67 494T142 607T254 681T393 707Q466 707 530 681T642 607T717 494T744 350Q744 271 717 206T642 93T530 19T393 -7ZM393
79Q464 79 520 112T610 206T643 350Q643 434 610 494T521 588T393 621Q321 621 264 588T175 495T142 350Q142 267 174 206T264 112T393 79Z" />
			<glyph unicode="&#xd3;" horiz-adv-x="783"
				d="M493 949V862L278 751V825L493 949ZM393 -7Q319 -7 255 19T142 92T67 205T40 350Q40 429 67 494T142 607T254 681T393 707Q466 707 530 681T642 607T717 494T744 350Q744 271 717 206T642 93T530 19T393 -7ZM393
79Q464 79 520 112T610 206T643 350Q643 434 610 494T521 588T393 621Q321 621 264 588T175 495T142 350Q142 267 174 206T264 112T393 79Z" />
			<glyph unicode="&#xd4;" horiz-adv-x="783"
				d="M534 755L394 841L254 755V834L394 918L534 834V755ZM393 -7Q319 -7 255 19T142 92T67 205T40 350Q40 428 67 493T142 607T254 681T393 707Q466 707 530 681T642 607T717 494T744 350Q744 271 717 206T642 93T530
19T393 -7ZM393 79Q464 79 520 112T610 206T643 350Q643 434 610 494T521 588T393 621Q321 621 264 588T175 495T142 350Q142 267 174 206T264 112T393 79Z" />
			<glyph unicode="&#xd5;" horiz-adv-x="783" d="M238 760Q245 814 273 841T343 868Q369 868 387 857T421 835T458 823Q473 823 485 833T501 865H558Q550 811 521 784T453 757Q425 757 407 768T374 791T338 803Q320 803 309 793T295 760H238ZM393 -7Q319 -7 255
19T142 92T67 205T40 350Q40 429 67 494T142 607T254 681T393 707Q466 707 530 681T642 607T717 494T744 350Q744 271 717 206T642 93T530 19T393 -7ZM393 79Q464 79 520 112T610 206T643 350Q643 434 610 494T521 588T393 621Q321 621 264 588T175 495T142 350Q142
267 174 206T264 112T393 79Z" />
			<glyph unicode="&#xd6;" horiz-adv-x="783" d="M311 782Q287 782 271 798T255 837Q255 860 271 876T311 893Q333 893 349 877T366 837Q366 814 350 798T311 782ZM477 782Q453 782 438 798T422 837Q422 860 437 876T477 893Q499 893 515 877T532 837Q532 814 516
798T477 782ZM393 -7Q319 -7 255 19T142 92T67 205T40 350Q40 429 67 494T142 607T254 681T393 707Q466 707 530 681T642 607T717 494T744 350Q744 271 717 206T642 93T530 19T393 -7ZM393 79Q464 79 520 112T610 206T643 350Q643 434 610 494T521 588T393 621Q321
621 264 588T175 495T142 350Q142 267 174 206T264 112T393 79Z" />
			<glyph unicode="&#xd7;" horiz-adv-x="561"
				d="M126 570L501 195L438 131L63 507L126 570ZM59 196L434 570L499 505L125 131L59 196Z" />
			<glyph unicode="&#xd8;" horiz-adv-x="783"
				d="M571 608L650 566L229 106L150 148L571 608ZM393 -7Q319 -7 255 19T142 92T67 205T40 350Q40 429 67 494T142 607T254 681T393 707Q466 707 530 681T642 607T717 494T744 350Q744 271 717 206T642 93T530 19T393
-7ZM393 79Q464 79 520 112T610 206T643 350Q643 434 610 494T521 588T393 621Q321 621 264 588T175 495T142 350Q142 267 174 206T264 112T393 79Z" />
			<glyph unicode="&#xd9;" horiz-adv-x="702"
				d="M234 949L450 825V751L234 864V949ZM75 700H175V255Q175 195 198 156T261 98T351 79Q402 79 441 97T504 155T527 255V700H627V257Q627 189 605 140T543 58T454 9T350 -7Q278 -7 215 21T114 108T75 257V700Z" />
			<glyph unicode="&#xda;" horiz-adv-x="702"
				d="M450 949V862L234 751V825L450 949ZM75 700H175V255Q175 195 198 156T261 98T351 79Q402 79 441 97T504 155T527 255V700H627V257Q627 189 605 140T543 58T454 9T350 -7Q278 -7 215 21T114 108T75 257V700Z" />
			<glyph unicode="&#xdb;" horiz-adv-x="702"
				d="M490 755L350 841L210 755V834L350 918L490 834V755ZM75 700H175V255Q175 195 198 156T261 98T351 79Q402 79 441 97T504 155T527 255V700H627V257Q627 189 605 140T543 58T454 9T350 -7Q278 -7 215 21T114 108T75 257V700Z" />
			<glyph unicode="&#xdc;" horiz-adv-x="702"
				d="M267 782Q244 782 228 798T212 837Q212 860 228 876T267 893Q290 893 306 877T323 837Q323 814 307 798T267 782ZM433 782Q410 782 394 798T378 837Q378 860 394 876T433 893Q456 893 472 877T489 837Q489 814 473
798T433 782ZM75 700H175V255Q175 195 198 156T261 98T351 79Q402 79 441 97T504 155T527 255V700H627V257Q627 189 605 140T543 58T454 9T350 -7Q278 -7 215 21T114 108T75 257V700Z" />
			<glyph unicode="&#xdd;" horiz-adv-x="670"
				d="M434 949V862L218 751V825L434 949ZM532 700H643L384 260V0H285V259L26 700H137L334 351L532 700Z" />
			<glyph unicode="&#xde;" horiz-adv-x="592"
				d="M310 224Q384 224 417 258T450 350Q450 409 417 443T310 477H178V224H310ZM552 350Q552 298 528 252T451 176T310 146H178V0H79V700H177V555H310Q392 555 445 528T525 454T552 350Z" />
			<glyph unicode="&#xdf;" horiz-adv-x="632"
				d="M72 507Q72 561 93 606T162 679T286 707Q353 707 399 684T468 625T491 548Q491 514 478 492T445 453T408 422Q391 408 379 395T366 368Q366 352 384 339T461 307Q529 284 559 240T590 141Q590 75 543 34T411 -7Q330
-7 279 37T220 162H321Q323 121 346 97T411 73Q448 73 468 88T488 134Q488 164 470 190T407 231Q333 255 300 283T266 356Q266 393 287 418T335 467Q357 486 374 500T391 541Q391 579 363 601T285 624Q242 624 216 608T178 563T166 496V0H72V507Z" />
			<glyph unicode="&#xe0;" horiz-adv-x="527"
				d="M164 721L357 611V546L164 647V721ZM377 0L369 73Q346 35 310 15T215 -6Q161 -6 123 11T65 60T44 134Q44 197 91 238T227 290L369 306V345Q369 377 343 399T268 422Q222 422 190 401T147 337L63 367Q82 433 137 470T272
507Q366 507 415 460T464 336V0H377ZM369 229L232 212Q188 206 166 188T144 139Q144 111 165 93T226 74Q274 74 306 92T353 142T369 218V229Z" />
			<glyph unicode="&#xe1;" horiz-adv-x="527"
				d="M357 721V645L164 546V611L357 721ZM377 0L369 73Q346 35 310 15T215 -6Q161 -6 123 11T65 60T44 134Q44 197 91 238T227 290L369 306V345Q369 377 343 399T268 422Q222 422 190 401T147 337L63 367Q82 433 137 470T272
507Q366 507 415 460T464 336V0H377ZM369 229L232 212Q188 206 166 188T144 139Q144 111 165 93T226 74Q274 74 306 92T353 142T369 218V229Z" />
			<glyph unicode="&#xe2;" horiz-adv-x="527"
				d="M393 550L268 626L142 550V620L268 694L393 620V550ZM377 0L369 73Q346 35 310 15T215 -6Q161 -6 123 11T65 60T44 134Q44 197 91 238T227 290L369 306V345Q369 377 343 399T268 422Q222 422 190 401T147 337L63
367Q82 433 137 470T272 507Q366 507 415 460T464 336V0H377ZM369 229L232 212Q188 206 166 188T144 139Q144 111 165 93T226 74Q274 74 306 92T353 142T369 218V229Z" />
			<glyph unicode="&#xe3;" horiz-adv-x="527" d="M129 554Q136 602 161 626T222 650Q246 650 262 640T292 620T324 610Q339 610 350 619T364 647H415Q408 598 383 575T321 551Q296 551 280 561T250 581T218 592Q203 592 193 583T180 554H129ZM377 0L369 73Q346 35
310 15T215 -6Q161 -6 123 11T65 60T44 134Q44 197 91 238T227 290L369 306V345Q369 377 343 399T268 422Q222 422 190 401T147 337L63 367Q82 433 137 470T272 507Q366 507 415 460T464 336V0H377ZM369 229L232 212Q188 206 166 188T144 139Q144 111 165 93T226
74Q274 74 306 92T353 142T369 218V229Z" />
			<glyph unicode="&#xe4;" horiz-adv-x="527" d="M194 573Q172 573 158 587T144 622Q144 643 158 657T194 672Q214 672 228 658T243 622Q243 601 229 587T194 573ZM342 573Q322 573 308 587T293 622Q293 643 307 657T342 672Q362 672 377 658T392 622Q392 601 377
587T342 573ZM377 0L369 73Q346 35 310 15T215 -6Q161 -6 123 11T65 60T44 134Q44 197 91 238T227 290L369 306V345Q369 377 343 399T268 422Q222 422 190 401T147 337L63 367Q82 433 137 470T272 507Q366 507 415 460T464 336V0H377ZM369 229L232 212Q188 206
166 188T144 139Q144 111 165 93T226 74Q274 74 306 92T353 142T369 218V229Z" />
			<glyph unicode="&#xe5;" horiz-adv-x="527" d="M366 637Q366 593 338 568T268 542Q228 542 200 567T171 637Q171 682 199 707T268 733Q309 733 337 708T366 637ZM315 638Q315 661 302 673T268 686Q249 686 236 674T222 638Q222 616 235 603T268 590Q288 590 301
603T315 638ZM377 0L369 73Q346 35 310 15T215 -6Q161 -6 123 11T65 60T44 134Q44 197 91 238T227 290L369 306V345Q369 377 343 399T268 422Q222 422 190 401T147 337L63 367Q82 433 137 470T272 507Q366 507 415 460T464 336V0H377ZM369 229L232 212Q188 206
166 188T144 139Q144 111 165 93T226 74Q274 74 306 92T353 142T369 218V229Z" />
			<glyph unicode="&#xe6;" horiz-adv-x="882"
				d="M607 -7Q535 -7 482 25T400 116T371 253Q371 371 432 439T604 507Q676 507 729 477T811 392T840 267Q840 255 839 242T836 214H465Q468 170 486 140T535 95T604 79Q658 79 693 96T747 151L829 122Q800 64 746 29T607
-7ZM739 295Q738 336 720 364T672 407T602 422Q568 422 539 407T492 364T469 295H739ZM423 199L431 127Q413 77 378 48T299 6T215 -7Q165 -7 127 9T66 56T44 134Q44 174 60 202T102 248T161 276T227 290L369 309V345Q369 375 344 398T268 422Q223 422 191 401T147
337L63 367Q82 433 136 470T272 507Q365 507 414 460T464 336V234L423 199ZM369 229L235 212Q187 207 166 188T144 139Q144 107 168 93T229 78Q270 78 302 94T351 142T369 217V229Z" />
			<glyph unicode="&#xe7;" horiz-adv-x="553"
				d="M312 -44Q346 -44 372 -54T413 -84T428 -135Q428 -164 414 -185T374 -217T317 -229H208V-172H299Q326 -172 340 -164T354 -135Q354 -114 340 -106T299 -98H252V11H312V-44ZM286 -7Q214 -7 159 25T74 115T43 248Q43
325 74 383T160 474T288 507Q365 507 423 471T508 374L423 344Q408 379 373 400T292 421Q246 421 213 400T162 340T144 249Q144 171 184 125T292 79Q337 79 372 99T426 154L510 124Q482 64 422 29T286 -7Z" />
			<glyph unicode="&#xe8;" horiz-adv-x="563"
				d="M181 721L374 611V546L181 647V721ZM289 -7Q217 -7 162 26T75 119T43 254Q43 327 74 384T159 474T283 507Q353 507 407 477T491 392T520 266Q520 254 519 242T516 214H146Q149 174 168 144T218 96T288 79Q338 79
375 98T427 151L509 122Q479 61 422 27T289 -7ZM417 295Q417 331 399 360T351 405T282 422Q248 422 220 406T172 361T147 295H417Z" />
			<glyph unicode="&#xe9;" horiz-adv-x="563"
				d="M374 721V645L181 546V611L374 721ZM289 -7Q217 -7 162 26T75 119T43 254Q43 327 74 384T159 474T283 507Q353 507 407 477T491 392T520 266Q520 254 519 242T516 214H146Q149 174 168 144T218 96T288 79Q338 79
375 98T427 151L509 122Q479 61 422 27T289 -7ZM417 295Q417 331 399 360T351 405T282 422Q248 422 220 406T172 361T147 295H417Z" />
			<glyph unicode="&#xea;" horiz-adv-x="563"
				d="M411 550L286 626L160 550V620L286 694L411 620V550ZM289 -7Q217 -7 162 26T75 119T43 254Q43 327 74 384T159 474T283 507Q353 507 407 477T491 392T520 266Q520 254 519 242T516 214H146Q149 174 168 144T218 96T288
79Q338 79 375 98T427 151L509 122Q479 61 422 27T289 -7ZM417 295Q417 331 399 360T351 405T282 422Q248 422 220 406T172 361T147 295H417Z" />
			<glyph unicode="&#xeb;" horiz-adv-x="563" d="M211 573Q190 573 176 587T162 622Q162 643 176 657T211 672Q232 672 246 658T261 622Q261 602 247 588T211 573ZM360 573Q339 573 325 587T311 622Q311 643 325 657T360 672Q380 672 395 658T410 622Q410 602 395
588T360 573ZM289 -7Q217 -7 162 26T75 119T43 254Q43 327 74 384T159 474T283 507Q353 507 407 477T491 392T520 266Q520 254 519 242T516 214H146Q149 174 168 144T218 96T288 79Q338 79 375 98T427 151L509 122Q479 61 422 27T289 -7ZM417 295Q417 331 399 360T351
405T282 422Q248 422 220 406T172 361T147 295H417Z" />
			<glyph unicode="&#xec;" horiz-adv-x="242" d="M17 718L210 608V543L17 643V718ZM72 500H171V0H72V500Z" />
			<glyph unicode="&#xed;" horiz-adv-x="242" d="M210 718V642L17 543V608L210 718ZM72 500H171V0H72V500Z" />
			<glyph unicode="&#xee;" horiz-adv-x="242"
				d="M247 547L122 623L-4 547V617L122 691L247 617V547ZM72 500H171V0H72V500Z" />
			<glyph unicode="&#xef;" horiz-adv-x="242" d="M47 570Q25 570 12 584T-2 619Q-2 639 12 654T47 669Q67 669 81 654T96 619Q96 598 82 584T47 570ZM196 570Q174 570 160 584T146 619Q146 639 160 654T196 669Q215 669 230 654T245 619Q245 598 230 584T196 570ZM72
500H171V0H72V500Z" />
			<glyph unicode="&#xf0;" horiz-adv-x="595"
				d="M512 676V618L448 597Q500 527 526 447T552 287Q552 190 519 124T427 25T295 -8Q222 -8 165 24T76 115T43 252Q43 330 75 387T164 477T289 509Q318 509 344 503T392 483T431 450Q419 478 404 508T366 570L241 528V586L331
616Q313 638 293 659T248 700H353Q384 674 412 643L512 676ZM295 76Q335 76 370 96T428 155T451 251Q451 309 429 347T372 405T296 425Q255 425 221 406T166 348T145 252Q145 194 165 155T220 96T295 76Z" />
			<glyph unicode="&#xf1;" horiz-adv-x="561"
				d="M155 554Q162 602 187 626T249 650Q273 650 289 640T319 620T352 610Q367 610 377 619T391 647H441Q435 598 410 575T348 551Q324 551 308 561T277 581T245 592Q230 592 220 583T206 554H155ZM72 500H158L164 442Q188
473 225 490T307 507Q365 507 407 483T473 410T497 290V0H403V278Q403 348 374 384T288 421Q230 421 198 384T166 273V0H72V500Z" />
			<glyph unicode="&#xf2;" horiz-adv-x="589" d="M193 721L386 611V546L193 647V721ZM291 -7Q220 -7 164 24T75 113T43 249Q43 328 76 386T166 475T294 507Q365 507 422 476T513 387T546 251Q546 172 513 114T421 25T291 -7ZM290 79Q330 79 365 97T422 154T445 251Q445
309 424 346T367 402T292 421Q253 421 220 403T165 346T144 249Q144 191 164 154T218 98T290 79Z" />
			<glyph unicode="&#xf3;" horiz-adv-x="589" d="M386 721V645L193 546V611L386 721ZM291 -7Q220 -7 164 24T75 113T43 249Q43 328 76 386T166 475T294 507Q365 507 422 476T513 387T546 251Q546 172 513 114T421 25T291 -7ZM290 79Q330 79 365 97T422 154T445 251Q445
309 424 346T367 402T292 421Q253 421 220 403T165 346T144 249Q144 191 164 154T218 98T290 79Z" />
			<glyph unicode="&#xf4;" horiz-adv-x="589" d="M423 550L298 626L172 550V620L298 694L423 620V550ZM291 -7Q220 -7 164 24T75 113T43 249Q43 328 76 386T166 475T294 507Q365 507 422 476T513 387T546 251Q546 172 513 114T421 25T291 -7ZM290 79Q330 79 365
97T422 154T445 251Q445 309 424 346T367 402T292 421Q253 421 220 403T165 346T144 249Q144 191 164 154T218 98T290 79Z" />
			<glyph unicode="&#xf5;" horiz-adv-x="589"
				d="M158 554Q165 602 190 626T252 650Q276 650 292 640T322 620T354 610Q369 610 380 619T394 647H444Q438 598 413 575T350 551Q326 551 310 561T279 581T247 592Q232 592 222 583T208 554H158ZM291 -7Q220 -7 164
24T75 113T43 249Q43 328 76 386T166 475T294 507Q365 507 422 476T513 387T546 251Q546 172 513 114T421 25T291 -7ZM290 79Q330 79 365 97T422 154T445 251Q445 309 424 346T367 402T292 421Q253 421 220 403T165 346T144 249Q144 191 164 154T218 98T290 79Z" />
			<glyph unicode="&#xf6;" horiz-adv-x="589" d="M223 573Q202 573 188 587T174 622Q174 643 188 657T223 672Q243 672 258 658T273 622Q273 602 258 588T223 573ZM372 573Q351 573 337 587T323 622Q323 643 337 657T372 672Q392 672 406 658T421 622Q421 602 407
588T372 573ZM291 -7Q220 -7 164 24T75 113T43 249Q43 328 76 386T166 475T294 507Q365 507 422 476T513 387T546 251Q546 172 513 114T421 25T291 -7ZM290 79Q330 79 365 97T422 154T445 251Q445 309 424 346T367 402T292 421Q253 421 220 403T165 346T144 249Q144
191 164 154T218 98T290 79Z" />
			<glyph unicode="&#xf7;" horiz-adv-x="629" d="M59 392H569V308H59V392ZM320 70Q293 70 274 89T255 135Q255 163 274 182T320 201Q347 201 366 182T385 135Q385 108 366 89T320 70ZM320 500Q293 500 274 519T255 565Q255 592 274 611T320 630Q347 630 366 611T385
565Q385 538 366 519T320 500Z" />
			<glyph unicode="&#xf8;" horiz-adv-x="589" d="M424 447L494 398L185 59L116 109L424 447ZM291 -7Q220 -7 164 24T75 113T43 249Q43 328 76 386T166 475T294 507Q365 507 422 476T513 387T546 251Q546 172 513 114T421 25T291 -7ZM290 79Q330 79 365 97T422 154T445
251Q445 309 424 346T367 402T292 421Q253 421 220 403T165 346T144 249Q144 191 164 154T218 98T290 79Z" />
			<glyph unicode="&#xf9;" horiz-adv-x="561"
				d="M167 721L359 611V546L167 647V721ZM490 0H404L397 59Q373 27 337 10T255 -7Q197 -7 154 17T88 89T64 208V500H159V220Q159 151 187 115T274 79Q331 79 363 116T396 226V500H490V0Z" />
			<glyph unicode="&#xfa;" horiz-adv-x="561"
				d="M359 721V645L167 546V611L359 721ZM490 0H404L397 59Q373 27 337 10T255 -7Q197 -7 154 17T88 89T64 208V500H159V220Q159 151 187 115T274 79Q331 79 363 116T396 226V500H490V0Z" />
			<glyph unicode="&#xfb;" horiz-adv-x="561"
				d="M396 550L271 626L145 550V620L271 694L396 620V550ZM490 0H404L397 59Q373 27 337 10T255 -7Q197 -7 154 17T88 89T64 208V500H159V220Q159 151 187 115T274 79Q331 79 363 116T396 226V500H490V0Z" />
			<glyph unicode="&#xfc;" horiz-adv-x="561"
				d="M196 573Q176 573 162 587T147 622Q147 643 161 657T196 672Q217 672 231 658T246 622Q246 601 232 587T196 573ZM345 573Q324 573 310 587T296 622Q296 643 310 657T345 672Q365 672 380 658T395 622Q395 601 380
587T345 573ZM490 0H404L397 59Q373 27 337 10T255 -7Q197 -7 154 17T88 89T64 208V500H159V220Q159 151 187 115T274 79Q331 79 363 116T396 226V500H490V0Z" />
			<glyph unicode="&#xfd;" horiz-adv-x="529"
				d="M353 721V645L160 546V611L353 721ZM413 500H511L221 -200H128L216 10L18 500H122L267 121L413 500Z" />
			<glyph unicode="&#xfe;" horiz-adv-x="620" d="M166 -205H72V716H166V416Q190 456 234 482T340 509Q407 509 460 477T546 388T578 253Q578 175 546 117T461 25T340 -8Q300 -8 267 4T208 39T166 89V-205ZM477 253Q477 307 455 345T398 402T321 422Q280 422 245
402T188 344T166 251Q166 197 187 158T244 99T321 78Q362 78 397 99T455 159T477 253Z" />
			<glyph unicode="&#xff;" horiz-adv-x="529" d="M190 573Q169 573 155 587T140 622Q140 643 154 657T190 672Q210 672 224 658T239 622Q239 602 225 588T190 573ZM338 573Q318 573 304 587T289 622Q289 643 303 657T338 672Q358 672 373 658T388 622Q388 602 373
588T338 573ZM413 500H511L221 -200H128L216 10L18 500H122L267 121L413 500Z" />
			<glyph unicode="&#x2013;" horiz-adv-x="633" d="M52 320H581V236H52V320Z" />
			<glyph unicode="&#x2014;" horiz-adv-x="843" d="M52 320H791V236H52V320Z" />
			<glyph unicode="&#x2018;" horiz-adv-x="264" d="M225 700L165 468H56L155 700H225Z" />
			<glyph unicode="&#x2019;" horiz-adv-x="264" d="M40 468L100 700H209L110 468H40Z" />
			<glyph unicode="&#x201a;" horiz-adv-x="265" d="M40 -100L100 129H210L111 -100H40Z" />
			<glyph unicode="&#x201c;" horiz-adv-x="433"
				d="M225 700L166 468H56L155 700H225ZM394 700L334 468H225L324 700H394Z" />
			<glyph unicode="&#x201d;" horiz-adv-x="433"
				d="M209 468L268 700H378L279 468H209ZM40 468L100 700H209L110 468H40Z" />
			<glyph unicode="&#x201e;" horiz-adv-x="435"
				d="M40 -100L100 129H210L111 -100H40ZM211 -100L271 129H381L281 -100H211Z" />
			<glyph unicode="&#x2022;" horiz-adv-x="442"
				d="M220 208Q186 208 158 225T112 270T95 333Q95 369 112 397T157 442T220 459Q256 459 284 442T330 397T347 333Q347 298 330 270T285 225T220 208Z" />
			<glyph unicode="&#x2039;" horiz-adv-x="279" d="M231 75H134L40 250L134 425H231L133 250L231 75Z" />
			<glyph unicode="&#x203a;" horiz-adv-x="279" d="M48 75L145 250L48 425H144L239 250L144 75H48Z" />
		</font>
</defs>
</svg>
