<?xml version="1.0" standalone="no"?>
<!DOCTYPE svg PUBLIC "-//W3C//DTD SVG 1.1//EN" "http://www.w3.org/Graphics/SVG/1.1/DTD/svg11.dtd">
<svg xmlns="http://www.w3.org/2000/svg">
	<defs>
		<font id="AlbertSans" horiz-adv-x="563">
			<font-face font-family="Albert Sans Thin" units-per-em="1000" panose-1="0 0 0 0 0 0 0 0 0 0" ascent="950"
				descent="-250" alphabetic="0" />
			<glyph unicode=" " horiz-adv-x="280" />
			<glyph unicode="!" horiz-adv-x="218"
				d="M182 700H208L97 158H77L182 700ZM59 0Q49 0 44 7T41 24Q43 35 51 42T69 49Q79 49 84 42T88 24Q85 14 77 7T59 0Z" />
			<glyph unicode="&quot;" horiz-adv-x="233"
				d="M147 700H180L136 520H119L147 700ZM233 700H266L223 520H206L233 700Z" />
			<glyph unicode="#" horiz-adv-x="754"
				d="M394 700H416L324 475H574L666 700H688L596 475H751L747 455H588L511 266H666L662 247H503L402 0H380L481 247H231L130 0H108L209 247H47L51 266H217L294 455H131L135 475H302L394 700ZM239 266H489L566 455H316L239 266Z" />
			<glyph unicode="$" horiz-adv-x="544"
				d="M367 775H388L219 -75H198L367 775ZM56 147Q57 118 72 87T124 35T230 14Q324 14 379 57T449 168Q459 221 440 254T381 308T291 345Q252 357 217 370T157 402T122 450T119 523Q130 577 163 618T248 683T364 707Q423 707
460 688T517 640T539 579L519 572Q516 596 500 623T449 668T361 687Q310 687 264 669T185 614T142 527Q132 475 152 446T213 399T304 365Q344 353 378 338T436 301T470 247T471 170Q462 123 434 83T354 18T227 -7Q158 -7 117 13T56 66T35 139L56 147Z" />
			<glyph unicode="%" horiz-adv-x="678" d="M122 577Q129 615 151 644T206 690T275 707Q330 707 359 670T377 577Q370 540 348 511T293 465T223 448Q169 448 140 485T122 577ZM271 688Q225 688 189 657T143 577Q133 529 157 498T227 467Q274 467 309 498T355 577Q365
625 342 656T271 688ZM627 700H652L90 0H65L627 700ZM341 122Q348 160 370 189T425 235T493 252Q549 252 578 215T596 122Q588 85 566 56T511 10T442 -7Q387 -7 358 30T341 122ZM490 233Q443 233 407 202T362 122Q352 75 375 44T446 12Q493 12 528 43T574 122Q583
170 560 201T490 233Z" />
			<glyph unicode="&amp;" horiz-adv-x="720"
				d="M519 630Q495 660 457 673T374 687Q288 687 235 644T167 532Q157 483 175 447T243 392T381 373H587L583 352H378Q258 352 180 310T84 179Q75 134 88 97T138 37T241 15Q337 15 393 58T470 204L490 305H512L492 204Q476
125 441 79T355 13T237 -7Q162 -7 121 18T66 86T62 179Q79 263 141 307T284 360L285 366Q220 372 188 397T147 459T145 533Q155 582 185 621T264 684T378 707Q434 707 474 691T539 643L519 630ZM539 643L519 630L539 643ZM476 372Q486 372 492 376T503 386T509
402L528 495H550L525 372H510L507 352H522L478 134Q468 84 496 51T575 17Q583 17 592 18T611 21L607 3Q596 0 586 -1T565 -3Q528 -3 501 14T461 63T456 134L500 352H418L421 372H476Z" />
			<glyph unicode="&apos;" horiz-adv-x="163" d="M151 700H191L144 520H127L151 700Z" />
			<glyph unicode="(" horiz-adv-x="350"
				d="M198 -100Q154 -41 121 23T77 166T86 350Q107 454 150 533T251 677T378 800H403L402 796Q321 727 262 659T165 515T108 350Q90 260 98 185T139 42T224 -96L223 -100H198Z" />
			<glyph unicode=")" horiz-adv-x="351"
				d="M13 -100H-12L-11 -96Q70 -26 129 42T226 185T282 350Q300 440 292 515T251 658T166 796V800H191Q236 742 269 677T313 533T304 350Q283 246 241 167T140 23T13 -100Z" />
			<glyph unicode="*" horiz-adv-x="462"
				d="M301 560L461 643L468 623L305 545L439 468L424 448L295 530L263 360H242L278 530L117 448L110 468L274 545L143 623L158 643L284 560L316 728H337L301 560Z" />
			<glyph unicode="+" horiz-adv-x="651" d="M407 605L305 95H284L386 605H407ZM93 359H602L598 340H89L93 359Z" />
			<glyph unicode="," horiz-adv-x="219" d="M89 94H117L-17 -155H-38L89 94Z" />
			<glyph unicode="-" horiz-adv-x="507" d="M79 290H444L440 270H75L79 290Z" />
			<glyph unicode="." horiz-adv-x="190"
				d="M44 -2Q34 -2 29 5T26 22Q28 33 36 40T54 47Q64 47 69 40T73 23Q71 12 63 5T44 -2Z" />
			<glyph unicode="/" horiz-adv-x="263" d="M349 800H372L-48 -100H-70L349 800Z" />
			<glyph unicode="0" horiz-adv-x="601"
				d="M96 350Q111 426 133 491T188 604T270 680T391 707Q461 707 500 680T553 605T564 491T545 350Q530 273 508 208T453 95T369 20T249 -7Q178 -7 140 20T87 95T77 208T96 350ZM523 350Q537 422 541 483T534 590T487 661T387
687Q322 687 277 662T202 591T152 484T118 350Q103 277 99 216T106 109T153 38T253 13Q318 13 363 38T438 108T488 215T523 350Z" />
			<glyph unicode="1" horiz-adv-x="270" d="M239 680H133L137 700H265L126 0H104L239 680Z" />
			<glyph unicode="2" horiz-adv-x="604" d="M17 13L294 235Q376 301 427 348T504 434T539 516Q554 593 514 640T392 687Q326 687 275 659T192 583T147 476H125Q139 548 178 599T273 679T396 707Q457 707 498 683T555 616T561 516Q552 472 526 431T448 342T312 225L56
20H485L481 0H14L17 13Z" />
			<glyph unicode="3" horiz-adv-x="594"
				d="M128 512Q146 572 183 615T275 683T398 707Q463 707 502 684T556 622T562 533Q554 496 532 460T466 398T355 366L354 360Q406 354 444 333T498 273T504 179Q494 129 464 87T382 19T255 -7Q184 -7 137 13T68 78T53 197H75Q67
104 112 60T260 15Q325 15 371 37T445 96T482 179Q500 267 439 309T257 352H240L244 373H262Q349 373 407 392T497 447T539 532Q553 600 517 643T394 687Q345 687 297 670T210 614T150 512H128Z" />
			<glyph unicode="4" horiz-adv-x="649"
				d="M431 189H35L39 207L532 700H555L457 209H578L574 189H453L416 0H394L431 189ZM435 209L526 666L66 209H435Z" />
			<glyph unicode="5" horiz-adv-x="615" d="M600 700L596 680H195L132 367Q169 408 229 434T357 461Q419 461 459 443T520 392T545 320T541 236Q529 174 495 119T402 28T260 -7Q197 -7 152 17T85 85T64 192H86Q86 104 134 60T263 15Q336 15 388 44T474 123T519 236Q538
330 496 385T352 441Q283 441 223 412T123 332H103L177 700H600Z" />
			<glyph unicode="6" horiz-adv-x="602" d="M254 -7Q177 -7 130 25T65 112T60 231Q69 275 89 315T148 399L404 700H428L169 394L91 303Q126 377 193 421T348 466Q420 466 468 437T535 354T541 231Q527 161 487 107T386 23T254 -7ZM83 233Q70 168 87 119T148 41T258
13Q323 13 377 41T469 118T519 231Q532 295 514 343T453 418T344 446Q279 446 224 419T132 344T83 233Z" />
			<glyph unicode="7" horiz-adv-x="548" d="M590 700L586 681L171 0H148L567 680H133L137 700H590Z" />
			<glyph unicode="8" horiz-adv-x="635"
				d="M264 369Q186 386 160 430T144 532Q155 584 190 623T280 685T408 707Q480 707 527 685T593 624T602 532Q591 474 547 430T418 369Q495 356 532 310T555 191Q543 130 505 86T406 17T266 -7Q187 -7 137 17T66 85T57 191Q71
264 126 310T264 369ZM580 531Q596 608 547 647T404 687Q312 687 247 648T166 531Q151 456 199 417T343 378Q438 378 501 417T580 531ZM339 359Q279 359 224 343T130 290T79 191Q61 103 114 58T270 13Q372 13 443 58T533 191Q545 253 521 290T449 343T339 359Z" />
			<glyph unicode="9" horiz-adv-x="602" d="M388 707Q465 707 512 675T577 588T582 469Q573 426 553 386T494 301L238 0H214L473 306L551 397Q515 323 448 279T294 234Q222 234 174 263T107 346T101 469Q115 540 155 593T256 677T388 707ZM559 467Q572 532 555 581T493
659T384 687Q319 687 265 659T173 582T123 469Q110 406 127 358T189 282T298 254Q363 254 418 281T510 356T559 467Z" />
			<glyph unicode=":" horiz-adv-x="199"
				d="M50 -2Q39 -2 34 5T31 22Q33 33 41 40T59 47Q69 47 74 40T78 22Q76 12 68 5T50 -2ZM140 450Q129 450 124 457T121 474Q123 485 131 492T149 499Q159 499 164 492T168 474Q166 464 158 457T140 450Z" />
			<glyph unicode=";" horiz-adv-x="236"
				d="M176 452Q166 452 161 459T158 476Q160 487 168 494T186 501Q196 501 201 494T205 476Q202 466 194 459T176 452ZM93 94H121L-12 -155H-33L93 94Z" />
			<glyph unicode="&lt;" horiz-adv-x="469" d="M347 113H319L91 350L413 587H441L118 350L347 113Z" />
			<glyph unicode="=" horiz-adv-x="656" d="M86 251H571L567 231H82L86 251ZM121 429H606L602 409H117L121 429Z" />
			<glyph unicode="&gt;" horiz-adv-x="469" d="M390 350L162 587H190L418 350L96 113H68L390 350Z" />
			<glyph unicode="?" horiz-adv-x="543" d="M360 707Q421 707 463 682T524 613T531 510Q515 429 472 382T366 314T226 293L195 149H177L208 312H224Q268 312 313 319T397 346T466 405T509 510Q525 592 482 639T356 687Q271 687 212 641T138 518H117Q129 579 164
621T251 685T360 707ZM157 -2Q148 -2 143 5T139 22Q141 33 149 40T167 47Q178 47 183 40T186 22Q184 12 176 5T157 -2Z" />
			<glyph unicode="@" horiz-adv-x="949"
				d="M592 164L599 154Q558 78 493 37T361 -5Q286 -5 254 41T236 163Q247 217 273 266T339 353T426 414T526 437Q593 437 626 396T643 278L631 269L688 422H707L597 127Q579 78 590 46T641 14Q678 14 712 38T775 103T824 192T855
290Q874 385 847 456T752 566T584 605Q490 605 403 569T244 470T123 324T54 147Q34 49 61 -21T154 -129T319 -167Q363 -167 406 -159T490 -135L491 -154Q448 -169 402 -177T310 -186Q208 -186 139 -146T40 -33T31 142Q51 244 103 331T231 485T399 587T591 624Q695
624 766 582T867 466T878 294Q867 238 844 185T789 89T718 21T635 -5Q583 -5 571 33T578 126L592 164ZM521 418Q472 418 429 397T350 340T292 259T258 165Q244 95 273 55T369 14Q416 14 462 37T547 105T612 217Q633 272 632 317T603 390T521 418Z" />
			<glyph unicode="A" horiz-adv-x="613"
				d="M409 680H377L-18 0H-40L367 700H426L554 0H532L409 680ZM99 230H507L503 210H95L99 230Z" />
			<glyph unicode="B" horiz-adv-x="634" d="M588 525Q596 569 584 604T535 659T433 680H203L141 370H377Q465 370 519 412T588 525ZM45 0L185 700H438Q511 700 552 677T606 614T610 526Q600 476 575 442T515 389T444 362L443 357Q503 347 537 301T558 185Q548 134
516 92T429 25T298 0H45ZM71 20H302Q397 20 459 64T536 185Q551 261 506 305T366 350H137L71 20Z" />
			<glyph unicode="C" horiz-adv-x="759" d="M67 350Q83 429 120 494T211 607T330 681T467 707Q589 707 656 653T743 508L723 501Q713 555 681 597T595 663T463 687Q379 687 301 647T167 531T89 350Q69 245 95 170T183 54T329 13Q407 12 472 37T588 108T669 208L686
201Q630 107 540 50T325 -7Q254 -7 199 19T109 93T63 206T67 350Z" />
			<glyph unicode="D" horiz-adv-x="719"
				d="M390 700Q512 700 586 659T687 539T692 350Q670 239 613 161T464 42T250 0H45L185 700H390ZM254 20Q430 20 534 108T670 350Q700 503 631 591T386 680H203L71 20H254Z" />
			<glyph unicode="E" horiz-adv-x="604"
				d="M615 680H203L141 370H450L446 350H137L71 20H483L479 0H45L185 700H619L615 680Z" />
			<glyph unicode="F" horiz-adv-x="579"
				d="M185 700H619L615 680H203L141 370H450L446 350H137L67 0H45L185 700Z" />
			<glyph unicode="G" horiz-adv-x="763" d="M720 502Q703 582 640 634T471 687Q384 687 305 647T168 531T89 350Q69 245 96 170T186 54T337 13Q408 13 474 40T594 119T683 242L702 339H402L406 359H728L705 240Q670 166 613 110T485 24T333 -7Q260 -7 204 19T111
92T64 205T67 350Q83 429 121 494T213 607T335 681T475 707Q549 707 603 683T691 614T739 509L720 502Z" />
			<glyph unicode="H" horiz-adv-x="681"
				d="M185 700H207L141 370H588L654 700H676L536 0H514L584 350H137L67 0H45L185 700Z" />
			<glyph unicode="I" horiz-adv-x="212" d="M185 700H207L67 0H45L185 700Z" />
			<glyph unicode="J" horiz-adv-x="472"
				d="M449 700H471L363 155Q355 114 329 77T264 16T174 -7Q104 -7 71 31T40 136L62 143Q61 108 70 78T105 31T178 13Q230 13 264 36T316 93T341 155L449 700Z" />
			<glyph unicode="K" horiz-adv-x="541"
				d="M185 700H207L141 370H175L587 700H617L193 360L477 0H447L171 350H137L67 0H45L185 700Z" />
			<glyph unicode="L" horiz-adv-x="498" d="M207 700L71 20H420L416 0H45L185 700H207Z" />
			<glyph unicode="M" horiz-adv-x="819"
				d="M67 0H45L185 700H207L366 29L792 700H814L674 0H652L781 647L370 0H349L196 647L67 0Z" />
			<glyph unicode="N" horiz-adv-x="681"
				d="M676 700L536 0H515L199 661L67 0H45L185 700H206L522 39L654 700H676Z" />
			<glyph unicode="O" horiz-adv-x="768" d="M333 -7Q260 -7 204 19T111 92T64 205T67 350Q83 429 121 494T213 607T335 681T475 707Q549 707 605 681T697 608T744 495T740 350Q725 271 687 206T595 93T474 19T333 -7ZM337 13Q424 13 503 53T639 169T717 350Q738
455 711 530T621 646T471 687Q384 687 305 647T168 531T90 350Q70 245 97 170T187 54T337 13Z" />
			<glyph unicode="P" horiz-adv-x="578"
				d="M319 325Q394 325 443 348T520 411T558 503Q569 557 557 597T505 658T390 680H203L132 325H319ZM580 503Q568 439 533 395T443 328T315 305H128L67 0H45L185 700H394Q478 700 522 675T579 606T580 503Z" />
			<glyph unicode="Q" horiz-adv-x="768"
				d="M347 102H369L328 -100H306L347 102ZM333 -7Q260 -7 204 19T111 92T64 205T67 350Q83 429 121 494T213 607T335 681T475 707Q549 707 605 681T697 608T744 495T740 350Q725 271 687 206T595 93T474 19T333 -7ZM337 13Q424
13 503 53T639 169T717 350Q738 455 711 530T621 646T471 687Q384 687 305 647T168 531T90 350Q70 245 97 170T187 54T337 13Z" />
			<glyph unicode="R" horiz-adv-x="588"
				d="M558 503Q569 557 557 596T504 658T388 680H203L132 325H319Q426 325 484 376T558 503ZM392 700Q476 700 521 675T579 606T580 503Q568 440 533 396T443 328T315 305H128L67 0H45L185 700H392ZM356 313L490 0H465L331 313H356Z" />
			<glyph unicode="S" horiz-adv-x="544"
				d="M56 147Q57 118 72 87T124 35T230 14Q324 14 379 57T449 168Q459 221 440 254T381 308T291 345Q252 357 217 370T157 402T122 450T119 523Q130 577 163 618T248 683T364 707Q423 707 460 688T517 640T539 579L519 572Q516
596 500 623T449 668T361 687Q310 687 264 669T185 614T142 527Q132 475 152 446T213 399T304 365Q344 353 378 338T436 301T470 247T471 170Q462 123 434 83T354 18T227 -7Q158 -7 117 13T56 66T35 139L56 147Z" />
			<glyph unicode="T" horiz-adv-x="586" d="M137 700H628L624 680H390L255 0H233L368 680H133L137 700Z" />
			<glyph unicode="U" horiz-adv-x="672"
				d="M180 700H202L115 265Q97 173 117 118T183 38T291 13Q352 13 407 37T503 117T562 265L649 700H671L584 265Q570 193 542 142T474 57T387 9T287 -7Q218 -7 168 21T96 109T93 265L180 700Z" />
			<glyph unicode="V" horiz-adv-x="624" d="M658 700H682L273 0H251L121 700H146L268 32L658 700Z" />
			<glyph unicode="W" horiz-adv-x="900"
				d="M192 0H171L121 700H146L191 41L528 700H552L627 41L934 700H958L629 0H608L533 664L192 0Z" />
			<glyph unicode="X" horiz-adv-x="649"
				d="M153 700H178L348 367L650 700H675L355 350L536 0H511L341 333L39 0H14L333 350L153 700Z" />
			<glyph unicode="Y" horiz-adv-x="583"
				d="M619 700H641L312 294L254 0H232L290 294L121 700H145L306 316L619 700Z" />
			<glyph unicode="Z" horiz-adv-x="585"
				d="M597 679L42 21H476L472 0H14L18 20L572 678H160L165 700H601L597 679Z" />
			<glyph unicode="[" horiz-adv-x="244" d="M200 800H297L293 780H218L47 -80H122L118 -100H21L200 800Z" />
			<glyph unicode="\" horiz-adv-x="266" d="M196 -100H173L109 800H134L196 -100Z" />
			<glyph unicode="]" horiz-adv-x="244" d="M263 800L84 -100H-13L-9 -80H66L237 780H162L166 800H263Z" />
			<glyph unicode="^" horiz-adv-x="598" d="M383 668L84 250H62L381 700H395L536 250H514L383 668Z" />
			<glyph unicode="_" horiz-adv-x="451" d="M0 -30H455L451 -50H-4L0 -30Z" />
			<glyph unicode="`" horiz-adv-x="216" d="M112 740L272 606L268 585L107 715L112 740Z" />
			<glyph unicode="a" horiz-adv-x="524" d="M375 0L403 138Q370 68 311 31T172 -7Q118 -7 83 8T34 54T29 128Q41 190 95 227T253 275L434 295L443 341Q458 413 424 450T314 487Q242 487 190 454T111 360L93 367Q124 436 180 471T316 507Q404 507 443 466T467 349L397
0H375ZM430 274L248 255Q154 245 108 214T51 129Q40 73 71 43T173 12Q237 12 288 38T373 114T421 231L430 274Z" />
			<glyph unicode="b" horiz-adv-x="601" d="M127 354Q158 419 219 463T368 507Q438 507 484 475T547 386T549 250Q534 172 494 114T395 25T265 -7Q184 -7 139 36T87 145L58 0H36L179 720H201L128 351L127 354ZM527 250Q549 359 505 423T364 487Q300 487 247 457T158
374T107 250Q94 180 109 127T165 43T269 13Q334 13 387 42T476 124T527 250Z" />
			<glyph unicode="c" horiz-adv-x="553" d="M239 -7Q166 -7 119 24T54 113T51 249Q67 326 108 384T208 475T340 507Q416 507 465 471T523 371L503 365Q494 422 450 454T336 487Q271 487 217 458T125 375T73 249Q52 141 97 77T243 13Q309 13 364 43T458 133L477 128Q436
63 375 28T239 -7Z" />
			<glyph unicode="d" horiz-adv-x="601" d="M515 354L513 351L587 720H609L466 0H444L472 145Q440 80 378 37T233 -7Q163 -7 117 24T53 114T51 250Q67 328 107 385T206 475T335 507Q422 507 466 463T515 354ZM73 250Q52 141 96 77T237 13Q300 13 353 43T442 126T493
250Q507 320 492 373T436 457T331 487Q267 487 214 458T125 376T73 250Z" />
			<glyph unicode="e" horiz-adv-x="554" d="M229 -7Q161 -7 116 26T54 118T52 255Q67 329 107 386T206 475T331 507Q395 507 439 479T503 402T510 291Q509 284 507 273T502 250H73Q60 180 76 127T132 43T233 13Q303 13 361 45T455 136L471 129Q433 64 370 29T229
-7ZM484 270Q499 334 484 383T429 459T327 487Q269 487 218 459T129 382T77 270H484Z" />
			<glyph unicode="f" horiz-adv-x="327"
				d="M188 569Q203 643 247 685T382 719L378 698Q297 704 260 670T210 569L196 500H338L334 478H192L97 0H75L170 478H84L88 500H174L188 569Z" />
			<glyph unicode="g" horiz-adv-x="601"
				d="M543 500H565L489 117Q469 15 415 -55T275 -163T79 -200L80 -180Q240 -179 339 -103T467 117L473 147H474Q442 84 382 40T232 -7Q162 -7 116 24T53 114T51 250Q67 328 107 385T205 475T334 507Q394 507 432 486T491 431T515
357L543 500ZM73 250Q51 140 95 77T238 13Q301 13 353 43T442 127T493 250Q507 320 492 373T436 457T332 487Q267 487 214 458T125 376T73 250Z" />
			<glyph unicode="h" horiz-adv-x="561"
				d="M179 720H201L131 369Q163 438 220 472T345 507Q400 507 438 484T492 411T491 281L435 0H413L469 282Q489 381 455 434T340 487Q256 487 194 427T108 251L58 0H36L179 720Z" />
			<glyph unicode="i" horiz-adv-x="215"
				d="M146 500H168L69 0H47L146 500ZM184 635Q175 635 170 641T166 657Q169 668 176 674T193 680Q202 680 207 674T210 657Q208 647 201 641T184 635Z" />
			<glyph unicode="j" horiz-adv-x="212"
				d="M44 -21Q29 -92 -13 -133T-120 -180L-121 -200Q-79 -197 -41 -177T26 -118T66 -21L169 500H147L44 -21ZM185 635Q176 635 171 641T167 657Q170 668 177 674T194 680Q203 680 208 674T211 657Q209 647 202 641T185 635Z" />
			<glyph unicode="k" horiz-adv-x="454"
				d="M179 720H201L110 263H171L452 500H482L186 253L387 0H357L167 243H106L58 0H36L179 720Z" />
			<glyph unicode="l" horiz-adv-x="193" d="M177 711H199L58 0H36L177 711Z" />
			<glyph unicode="m" horiz-adv-x="908" d="M135 500H157L132 371Q159 430 208 468T334 506Q398 506 438 470T481 359Q514 437 571 471T695 506Q748 506 785 482T838 409T838 281L782 0H760L816 282Q836 381 803 433T691 486Q612 486 552 427T468 250L418 0H396L452
282Q472 381 440 433T329 486Q249 486 190 427T108 250L58 0H36L135 500Z" />
			<glyph unicode="n" horiz-adv-x="562"
				d="M135 500H157L131 370Q160 433 213 470T344 507Q398 507 437 483T491 410T492 282L436 0H414L470 283Q490 382 455 435T339 488Q255 488 194 430T109 256L58 0H36L135 500Z" />
			<glyph unicode="o" horiz-adv-x="581" d="M240 -7Q171 -7 123 24T55 112T51 250Q67 329 110 387T213 476T342 507Q411 507 458 476T525 387T529 250Q513 170 471 113T369 24T240 -7ZM244 13Q300 13 354 38T450 116T507 250Q523 331 503 383T439 461T338 487Q282
487 228 462T132 384T74 250Q58 169 78 117T143 39T244 13Z" />
			<glyph unicode="p" horiz-adv-x="601" d="M86 147L87 149L18 -200H-4L135 500H157L129 357Q149 398 182 432T263 486T368 507Q438 507 484 476T547 387T549 250Q534 172 494 115T396 25T266 -7Q182 -7 137 37T86 147ZM527 250Q549 359 505 423T364 487Q300 487
247 457T158 374T107 250Q94 180 109 127T165 43T270 13Q335 13 388 42T477 124T527 250Z" />
			<glyph unicode="q" horiz-adv-x="601" d="M474 147Q443 82 380 38T232 -7Q162 -7 116 25T53 114T51 250Q67 329 107 386T206 475T335 507Q393 507 431 487T490 432T515 357L543 500H565L426 -200H404L473 149L474 147ZM73 250Q52 141 96 77T236 13Q300 13 353
43T442 126T493 250Q507 320 492 373T436 457T331 487Q267 487 214 458T125 376T73 250Z" />
			<glyph unicode="r" horiz-adv-x="345"
				d="M135 500H157L133 380Q154 418 189 449T270 495T366 500L362 479Q320 489 280 478T206 438T147 369T113 278L57 0H35L135 500Z" />
			<glyph unicode="s" horiz-adv-x="461"
				d="M48 131Q47 93 60 67T104 27T183 13Q262 13 307 45T363 127Q371 169 353 191T301 224T232 244Q211 249 183 256T128 276T89 313T82 376Q90 415 117 445T187 491T279 507Q339 507 380 480T426 390L407 385Q403 428 382
450T333 479T277 487Q209 487 162 458T105 377Q98 346 109 327T141 296T189 278T242 266Q269 260 297 251T348 227T381 188T385 126Q376 84 348 54T277 9T178 -7Q104 -7 65 24T26 125L48 131Z" />
			<glyph unicode="t" horiz-adv-x="336"
				d="M170 500L198 640H220L192 500H347L343 480H188L119 134Q111 93 127 64T177 23T252 21L248 3Q214 -6 184 -1T131 22T100 68T97 134L166 480H84L88 500H170Z" />
			<glyph unicode="u" horiz-adv-x="561"
				d="M426 0H405L429 124Q401 62 349 28T219 -7Q165 -7 126 15T70 87T70 213L127 500H149L91 211Q71 112 106 63T223 13Q308 13 368 68T452 239L504 500H526L426 0Z" />
			<glyph unicode="v" horiz-adv-x="501" d="M102 500L208 33L499 500H522L210 0H192L78 500H102Z" />
			<glyph unicode="w" horiz-adv-x="766"
				d="M154 0H137L78 500H101L154 38L424 500H441L528 38L764 500H787L531 0H513L425 461L154 0Z" />
			<glyph unicode="x" horiz-adv-x="436"
				d="M84 500H109L222 268L427 500H452L231 253L352 0H328L216 237L9 0H-16L207 253L84 500Z" />
			<glyph unicode="y" horiz-adv-x="475" d="M481 500H503L91 -200H68L186 0L71 500H93L202 25L481 500Z" />
			<glyph unicode="z" horiz-adv-x="474"
				d="M453 477L35 20H372L368 0H7L11 22L429 480H111L115 500H457L453 477Z" />
			<glyph unicode="{" horiz-adv-x="359"
				d="M74 361Q131 375 158 395T196 437T211 478Q217 512 217 546T217 616T224 689Q236 750 278 775T385 800H417L413 784H382Q328 784 292 763T246 689Q238 650 238 613T238 542T232 477Q224 434 189 400T87 352L86 350Q148
337 169 303T182 223Q176 193 162 159T134 88T111 12Q100 -40 127 -62T210 -84H241L238 -100H206Q141 -100 109 -74T89 12Q96 50 110 85T139 155T160 223Q164 242 163 264T141 307T70 341L74 361Z" />
			<glyph unicode="|" horiz-adv-x="250" d="M245 800L66 -100H44L223 800H245Z" />
			<glyph unicode="}" horiz-adv-x="359"
				d="M329 361L325 341Q269 328 241 308T203 265T189 223Q182 190 182 156T183 86T176 12Q164 -48 122 -74T15 -100H-17L-14 -84H17Q72 -84 107 -62T154 12Q162 51 162 88T162 159T167 223Q176 269 211 303T313 350L314 352Q252
365 231 399T217 477Q223 508 237 542T266 613T289 689Q299 742 272 763T189 784H158L162 800H194Q258 800 290 775T311 689Q303 652 289 617T261 547T240 478Q236 460 237 438T259 395T329 361Z" />
			<glyph unicode="~" horiz-adv-x="468"
				d="M77 305Q93 345 118 370T182 395Q207 395 226 385T262 361T295 337T333 326Q363 326 382 347T409 395H430Q417 355 393 330T328 305Q303 305 285 315T250 340T216 364T176 375Q149 375 129 353T98 305H77Z" />
			<glyph unicode="&#xa0;" horiz-adv-x="280" />
			<glyph unicode="&#xa1;" horiz-adv-x="218"
				d="M13 -148L124 394H144L39 -148H13ZM169 552Q179 552 184 546T188 528Q186 517 178 510T159 503Q149 503 144 510T141 528Q143 539 151 545T169 552Z" />
			<glyph unicode="&#xa2;" horiz-adv-x="553" d="M351 600H372L353 500H332L351 600ZM233 5H254L233 -100H212L233 5ZM239 -7Q166 -7 119 24T54 113T51 249Q67 326 108 384T208 475T340 507Q416 507 465 471T523 371L503 365Q494 422 450 454T336 487Q271 487 217
458T125 375T73 249Q52 141 97 77T243 13Q309 13 364 43T458 133L477 128Q436 63 375 28T239 -7Z" />
			<glyph unicode="&#xa3;" horiz-adv-x="585" d="M412 707Q473 707 512 682T568 615T581 521H559Q566 594 526 641T409 688Q366 688 325 672T252 619T209 523Q200 478 203 439T214 362T225 287T221 208Q210 152 180 109T100 22H476L472 0H78L77 20Q120 63 154 103T200
203Q209 245 205 283T193 358T181 435T187 524Q198 577 229 618T307 683T412 707ZM410 346L406 327H82L86 346H410Z" />
			<glyph unicode="&#xa4;" horiz-adv-x="510"
				d="M314 549Q354 549 384 528T428 468T432 377Q422 325 393 287T325 227T246 205Q181 205 148 252T130 377Q140 429 168 467T234 527T314 549ZM311 530Q256 530 211 489T151 377Q137 305 166 265T250 224Q284 224 317
242T376 295T411 377Q421 424 409 458T371 511T311 530ZM196 481L137 553L154 567L206 502L196 481ZM404 502L481 567L493 553L406 481L404 502ZM365 275L424 203L406 189L355 254L365 275ZM157 254L79 189L68 203L155 275L157 254Z" />
			<glyph unicode="&#xa5;" horiz-adv-x="583"
				d="M336 347H523L520 328H325L336 347ZM78 229H500L496 208H74L78 229ZM101 347H287L293 328H98L101 347ZM619 700H641L312 294L254 0H232L290 294L121 700H145L306 316L619 700Z" />
			<glyph unicode="&#xa6;" horiz-adv-x="250"
				d="M140 269L66 -100H44L118 269H140ZM150 432L223 800H245L172 432H150Z" />
			<glyph unicode="&#xa7;" horiz-adv-x="432"
				d="M144 604Q150 634 169 657T219 693T290 707Q352 707 385 673T414 574H398Q402 600 393 627T359 673T287 692Q239 692 204 671T159 604Q152 565 175 541T261 499Q302 488 336 471T387 426T395 350Q388 315 363 284T297
234T205 221V218Q237 211 268 198T317 161T328 97Q322 67 303 44T254 7T185 -7Q122 -7 88 27T57 125H73Q71 97 80 70T114 26T188 8Q234 8 268 29T313 97Q318 123 310 142T277 175T211 201Q170 213 136 229T84 274T77 350Q84 386 109 417T175 466T267 479V481Q237
489 206 502T155 539T144 604ZM379 350Q389 402 358 434T257 467Q187 467 145 432T93 350Q83 298 114 266T215 233Q284 233 327 268T379 350Z" />
			<glyph unicode="&#xa8;" horiz-adv-x="223" d="M120 629Q107 629 100 638T96 659Q98 672 108 681T132 690Q145 690 152 681T157 659Q154 647 143 638T120 629ZM255 629Q242 629 235 638T230 659Q232 672 243 681T267 690Q279 690 286 681T291 659Q288 647 278
638T255 629Z" />
			<glyph unicode="&#xa9;" horiz-adv-x="811" d="M497 707Q599 707 666 661T761 535T767 352Q752 275 715 210T622 96T499 20T355 -7Q254 -7 186 40T91 168T84 352Q100 429 137 494T230 606T353 680T497 707ZM493 687Q394 687 313 643T178 523T104 352Q86 257 109
180T196 58T359 12Q432 12 496 38T612 110T697 219T746 352Q765 447 741 523T654 643T493 687ZM375 95Q303 95 256 126T190 215T188 350Q203 428 244 486T345 576T477 609Q553 609 602 573T660 473L640 467Q631 523 586 556T472 589Q407 589 353 560T262 477T210
351Q188 243 234 179T379 115Q446 115 501 145T595 235L614 230Q573 164 512 130T375 95Z" />
			<glyph unicode="&#xaa;" horiz-adv-x="429" d="M95 528Q106 582 134 622T203 686T293 709Q351 709 383 680T419 601L440 703H462L392 354H370L390 455Q367 406 323 377T221 347Q172 347 140 370T96 434T95 528ZM116 528Q101 454 132 410T225 366Q291 366 340 410T405
528Q420 602 388 646T289 690Q228 690 180 646T116 528Z" />
			<glyph unicode="&#xab;" horiz-adv-x="386"
				d="M148 75H119L48 250L188 425H217L74 250L148 75ZM294 75H265L194 250L334 425H363L220 250L294 75Z" />
			<glyph unicode="&#xac;" horiz-adv-x="654" d="M77 424H631L598 254H578L607 403H73L77 424Z" />
			<glyph unicode="&#xad;" horiz-adv-x="488" d="M70 290H435L431 270H66L70 290Z" />
			<glyph unicode="&#xae;" horiz-adv-x="499" d="M117 515Q128 569 160 612T239 681T340 707Q395 707 431 682T483 613T488 515Q477 462 445 419T365 350T264 324Q209 324 173 349T121 418T117 515ZM137 515Q127 467 140 428T186 367T268 344Q317 344 358 366T428
428T467 515Q476 564 463 602T418 664T336 687Q287 687 246 664T175 603T137 515ZM256 623L214 409H235L253 503H315Q346 503 367 519T393 563Q399 592 385 607T339 623H256ZM342 409L366 410L313 508H290L342 409ZM333 603Q354 603 365 594T372 563Q368 542 353
533T317 523H257L273 603H333Z" />
			<glyph unicode="&#xaf;" horiz-adv-x="339" d="M99 678H409L405 658H95L99 678Z" />
			<glyph unicode="&#xb0;" horiz-adv-x="355" d="M83 525Q93 577 120 616T184 677T267 700Q334 700 365 651T381 525Q371 474 345 435T280 373T197 350Q131 350 100 399T83 525ZM359 525Q374 598 348 639T263 681Q205 681 163 640T105 525Q91 453 117 411T201 369Q259
369 302 411T359 525Z" />
			<glyph unicode="&#xb1;" horiz-adv-x="775"
				d="M472 622L378 152H357L451 622H472ZM162 397H671L667 378H158L162 397ZM103 98H612L608 79H99L103 98Z" />
			<glyph unicode="&#xb2;" horiz-adv-x="313" d="M112 598Q123 641 156 674T246 707Q274 707 294 696T322 663T325 610Q319 579 303 553T261 503T204 454L90 361L86 369H288L285 350H63L65 361L201 475Q234 502 264 533T303 610Q312 651 293 669T242 688Q202 688
175 665T134 598H112Z" />
			<glyph unicode="&#xb3;" horiz-adv-x="317"
				d="M117 619Q126 644 144 663T188 695T249 707Q294 707 320 681T337 611Q331 581 310 559T253 527V525Q281 517 295 494T303 435Q296 401 263 372T174 343Q125 343 101 367T80 440H102Q98 394 120 378T177 362Q220 362
247 382T281 435Q288 473 267 494T205 516H145L149 535H212Q251 535 279 554T315 611Q322 644 303 665T245 686Q204 686 178 668T139 619H117Z" />
			<glyph unicode="&#xb4;" horiz-adv-x="216" d="M299 740L294 715L81 585L85 606L299 740Z" />
			<glyph unicode="&#xb5;" horiz-adv-x="589"
				d="M454 0H432L458 130Q423 56 365 23T247 -11Q208 -11 172 1T112 45T83 130L17 -200H-4L135 500H156L105 244Q89 164 103 112T156 34T251 9Q330 9 392 64T479 235L531 500H553L454 0Z" />
			<glyph unicode="&#xb6;" horiz-adv-x="529"
				d="M524 700L385 0H363L498 681H391L256 0H234L296 313H295Q216 313 169 337T104 405T98 506Q110 565 145 608T237 676T372 700H524Z" />
			<glyph unicode="&#xb7;" horiz-adv-x="174"
				d="M103 332Q93 332 88 339T84 356Q87 367 95 374T112 381Q123 381 128 374T131 356Q129 346 121 339T103 332Z" />
			<glyph unicode="&#xb8;" horiz-adv-x="200"
				d="M-8 -88Q34 -85 60 -94T97 -121T102 -168Q97 -193 81 -212T39 -243T-22 -254H-86L-82 -234H-21Q28 -234 51 -215T80 -168Q85 -143 70 -125T4 -107H-34L-11 7H11L-8 -88Z" />
			<glyph unicode="&#xb9;" horiz-adv-x="170" d="M171 681H117L121 700H196L127 350H106L171 681Z" />
			<glyph unicode="&#xba;" horiz-adv-x="412" d="M93 526Q104 581 134 622T207 686T298 709Q346 709 379 686T425 622T428 526Q418 472 388 431T316 366T225 343Q177 343 144 366T97 430T93 526ZM407 526Q423 604 389 646T294 688Q233 688 182 646T115 526Q100 448
134 406T229 364Q290 364 341 406T407 526Z" />
			<glyph unicode="&#xbb;" horiz-adv-x="385"
				d="M168 75L312 250L238 425H267L338 250L197 75H168ZM22 75L166 250L92 425H121L192 250L51 75H22Z" />
			<glyph unicode="&#xbc;" horiz-adv-x="514"
				d="M517 700H539L19 0H-3L517 700ZM446 97L441 76H386L371 0H349L364 76H192L196 94L425 355H442L391 97H446ZM370 97L412 308L223 97H370ZM171 681H117L121 700H196L127 350H106L171 681Z" />
			<glyph unicode="&#xbd;" horiz-adv-x="599" d="M508 700H530L10 0H-12L508 700ZM171 681H117L121 700H196L127 350H106L171 681ZM313 248Q325 291 358 324T447 357Q475 357 495 346T524 313T527 260Q520 229 504 203T462 153T406 104L291 11L288 19H490L486 0H264L266
11L403 125Q435 152 465 183T505 260Q513 301 494 319T443 338Q403 338 376 315T335 248H313Z" />
			<glyph unicode="&#xbe;" horiz-adv-x="600" d="M609 700H631L112 0H91L609 700ZM538 97L534 76H479L464 0H443L458 76H285L289 94L517 355H534L483 97H538ZM462 97L504 308L315 97H462ZM106 619Q115 644 133 663T178 695T239 707Q284 707 309 681T326 611Q321
581 300 559T243 527L242 525Q271 517 285 494T292 435Q286 401 253 372T163 343Q114 343 90 367T69 440H91Q88 394 110 378T167 362Q210 362 237 382T270 435Q278 473 256 494T195 516H135L138 535H201Q240 535 268 554T304 611Q311 644 292 665T234 686Q193 686
167 668T128 619H106Z" />
			<glyph unicode="&#xbf;" horiz-adv-x="543"
				d="M190 -170Q129 -170 87 -145T26 -76T19 27Q35 109 78 156T184 223T324 244L355 388H373L342 225H326Q282 225 237 218T152 191T83 132T41 27Q25 -55 68 -102T194 -150Q278 -150 337 -104T412 19H433Q421 -41 385
-83T298 -148T190 -170ZM393 539Q402 539 407 533T411 515Q408 504 401 497T383 490Q372 490 367 497T364 515Q366 526 374 532T393 539Z" />
			<glyph unicode="&#xc0;" horiz-adv-x="613"
				d="M409 680H377L-18 0H-40L367 700H426L554 0H532L409 680ZM99 230H507L503 210H95L99 230ZM333 909L493 776L489 755L328 884L333 909Z" />
			<glyph unicode="&#xc1;" horiz-adv-x="613"
				d="M409 680H377L-18 0H-40L367 700H426L554 0H532L409 680ZM99 230H507L503 210H95L99 230ZM520 909L515 884L302 755L306 776L520 909Z" />
			<glyph unicode="&#xc2;" horiz-adv-x="613"
				d="M409 680H377L-18 0H-40L367 700H426L554 0H532L409 680ZM99 230H507L503 210H95L99 230ZM540 788L432 869L292 788L296 810L436 891L544 810L540 788Z" />
			<glyph unicode="&#xc3;" horiz-adv-x="613" d="M409 680H377L-18 0H-40L367 700H426L554 0H532L409 680ZM99 230H507L503 210H95L99 230ZM294 764Q304 794 323 812T368 830Q387 830 398 823T418 806T437 789T466 781Q482 781 497 792T519 827H538Q531 800 510
781T462 762Q443 762 431 769T410 786T390 803T364 811Q347 811 334 800T313 764H294Z" />
			<glyph unicode="&#xc4;" horiz-adv-x="613" d="M409 680H377L-18 0H-40L367 700H426L554 0H532L409 680ZM99 230H507L503 210H95L99 230ZM351 798Q338 798 331 807T327 828Q329 841 339 850T363 859Q375 859 382 850T388 828Q385 816 374 807T351 798ZM486 798Q473
798 466 807T461 828Q463 841 474 850T498 859Q510 859 517 850T522 828Q519 816 509 807T486 798Z" />
			<glyph unicode="&#xc5;" horiz-adv-x="613" d="M409 680H377L-18 0H-40L367 700H426L554 0H532L409 680ZM99 230H507L503 210H95L99 230ZM517 844Q508 802 477 779T408 755Q371 755 349 778T336 844Q344 886 375 910T444 935Q480 935 502 911T517 844ZM496 844Q502
878 486 897T440 916Q410 916 387 897T357 844Q350 811 366 793T412 774Q442 774 465 792T496 844Z" />
			<glyph unicode="&#xc6;" horiz-adv-x="864"
				d="M551 680L489 370H722L718 350H485L420 20H743L739 0H394L436 210H157L-14 0H-40L531 700H878L874 680H551ZM173 230H440L525 662L173 230Z" />
			<glyph unicode="&#xc7;" horiz-adv-x="759"
				d="M67 350Q83 429 120 494T211 607T330 681T467 707Q589 707 656 653T743 508L723 501Q713 555 681 597T595 663T463 687Q379 687 301 647T167 531T89 350Q69 245 95 170T183 54T329 13Q407 12 472 37T588 108T669
208L686 201Q630 107 540 50T325 -7Q254 -7 199 19T109 93T63 206T67 350ZM344 -87Q386 -85 412 -93T449 -121T455 -167Q450 -192 434 -211T392 -242T331 -253H267L270 -233H331Q381 -233 404 -214T433 -167Q437 -142 422 -124T357 -106H319L341 7H363L344 -87Z" />
			<glyph unicode="&#xc8;" horiz-adv-x="604"
				d="M615 680H203L141 370H450L446 350H137L71 20H483L479 0H45L185 700H619L615 680ZM336 909L497 776L492 755L331 884L336 909Z" />
			<glyph unicode="&#xc9;" horiz-adv-x="604"
				d="M615 680H203L141 370H450L446 350H137L71 20H483L479 0H45L185 700H619L615 680ZM523 909L518 884L305 755L310 776L523 909Z" />
			<glyph unicode="&#xca;" horiz-adv-x="604"
				d="M615 680H203L141 370H450L446 350H137L71 20H483L479 0H45L185 700H619L615 680ZM543 788L435 869L295 788L299 810L439 891L547 810L543 788Z" />
			<glyph unicode="&#xcb;" horiz-adv-x="604" d="M615 680H203L141 370H450L446 350H137L71 20H483L479 0H45L185 700H619L615 680ZM354 798Q341 798 335 807T330 828Q333 841 343 850T366 859Q379 859 386 850T391 828Q389 816 378 807T354 798ZM489 798Q476 798
469 807T464 828Q467 841 477 850T501 859Q513 859 520 850T525 828Q523 816 512 807T489 798Z" />
			<glyph unicode="&#xcc;" horiz-adv-x="377"
				d="M281 700H303L163 0H141L281 700ZM226 909L387 776L382 755L221 884L226 909Z" />
			<glyph unicode="&#xcd;" horiz-adv-x="377"
				d="M281 700H303L163 0H141L281 700ZM413 909L408 884L195 755L200 776L413 909Z" />
			<glyph unicode="&#xce;" horiz-adv-x="438"
				d="M298 700H320L180 0H158L298 700ZM450 788L342 869L202 788L206 810L346 891L454 810L450 788Z" />
			<glyph unicode="&#xcf;" horiz-adv-x="385" d="M271 700H293L153 0H131L271 700ZM234 798Q221 798 215 807T210 828Q213 841 223 850T246 859Q259 859 266 850T271 828Q269 816 258 807T234 798ZM369 798Q356 798 349 807T344 828Q347 841 357 850T381 859Q393
859 400 850T405 828Q403 816 392 807T369 798Z" />
			<glyph unicode="&#xd0;" horiz-adv-x="795"
				d="M97 360H211L279 700H465Q587 700 661 659T762 539T767 350Q745 239 687 161T538 42T325 0H139L207 340H93L97 360ZM165 19H329Q505 19 609 108T745 350Q775 503 706 592T461 681H297L233 360H465L461 340H229L165 19Z" />
			<glyph unicode="&#xd1;" horiz-adv-x="681" d="M676 700L536 0H515L199 661L67 0H45L185 700H206L522 39L654 700H676ZM325 764Q335 794 354 812T399 830Q418 830 429 823T449 806T469 789T498 781Q513 781 528 792T551 827H570Q563 800 541 781T494 762Q474 762
462 769T441 786T422 803T396 811Q378 811 365 800T344 764H325Z" />
			<glyph unicode="&#xd2;" horiz-adv-x="768"
				d="M333 -7Q260 -7 204 19T111 92T64 205T67 350Q83 429 121 494T213 607T335 681T475 707Q549 707 605 681T697 608T744 495T740 350Q725 271 687 206T595 93T474 19T333 -7ZM337 13Q424 13 503 53T639 169T717 350Q738
455 711 530T621 646T471 687Q384 687 305 647T168 531T90 350Q70 245 97 170T187 54T337 13ZM419 909L579 776L575 755L414 884L419 909Z" />
			<glyph unicode="&#xd3;" horiz-adv-x="768"
				d="M333 -7Q260 -7 204 19T111 92T64 205T67 350Q83 429 121 494T213 607T335 681T475 707Q549 707 605 681T697 608T744 495T740 350Q725 271 687 206T595 93T474 19T333 -7ZM337 13Q424 13 503 53T639 169T717 350Q738
455 711 530T621 646T471 687Q384 687 305 647T168 531T90 350Q70 245 97 170T187 54T337 13ZM606 909L601 884L388 755L392 776L606 909Z" />
			<glyph unicode="&#xd4;" horiz-adv-x="768"
				d="M333 -7Q260 -7 204 19T111 92T64 205T67 350Q83 429 121 494T213 607T335 681T475 707Q549 707 605 681T697 608T744 495T740 350Q725 271 687 206T595 93T474 19T333 -7ZM337 13Q424 13 503 53T639 169T717 350Q738
455 711 530T621 646T471 687Q384 687 305 647T168 531T90 350Q70 245 97 170T187 54T337 13ZM626 788L518 869L378 788L382 810L522 891L630 810L626 788Z" />
			<glyph unicode="&#xd5;" horiz-adv-x="768" d="M333 -7Q260 -7 204 19T111 92T64 205T67 350Q83 429 121 494T213 607T335 681T475 707Q549 707 605 681T697 608T744 495T740 350Q725 271 687 206T595 93T474 19T333 -7ZM337 13Q424 13 503 53T639 169T717 350Q738
455 711 530T621 646T471 687Q384 687 305 647T168 531T90 350Q70 245 97 170T187 54T337 13ZM380 764Q390 794 409 812T454 830Q473 830 484 823T504 806T523 789T552 781Q568 781 583 792T605 827H624Q617 800 596 781T548 762Q529 762 517 769T496 786T476 803T450
811Q433 811 420 800T399 764H380Z" />
			<glyph unicode="&#xd6;" horiz-adv-x="768" d="M333 -7Q260 -7 204 19T111 92T64 205T67 350Q83 429 121 494T213 607T335 681T475 707Q549 707 605 681T697 608T744 495T740 350Q725 271 687 206T595 93T474 19T333 -7ZM337 13Q424 13 503 53T639 169T717 350Q738
455 711 530T621 646T471 687Q384 687 305 647T168 531T90 350Q70 245 97 170T187 54T337 13ZM437 798Q424 798 417 807T413 828Q415 841 425 850T449 859Q461 859 468 850T474 828Q471 816 460 807T437 798ZM572 798Q559 798 552 807T547 828Q549 841 560 850T584
859Q596 859 603 850T608 828Q605 816 595 807T572 798Z" />
			<glyph unicode="&#xd7;" horiz-adv-x="533"
				d="M145 545L445 170L427 155L127 530L145 545ZM56 170L505 544L516 530L68 156L56 170Z" />
			<glyph unicode="&#xd8;" horiz-adv-x="768"
				d="M686 609L698 596L133 93L119 104L686 609ZM333 -7Q260 -7 204 19T111 92T64 205T67 350Q83 429 121 494T213 607T335 681T475 707Q549 707 605 681T697 608T744 495T740 350Q725 271 687 206T595 93T474 19T333
-7ZM337 13Q424 13 503 53T639 169T717 350Q738 455 711 530T621 646T471 687Q384 687 305 647T168 531T90 350Q70 245 97 170T187 54T337 13Z" />
			<glyph unicode="&#xd9;" horiz-adv-x="672" d="M180 700H202L115 265Q97 173 117 118T183 38T291 13Q352 13 407 37T503 117T562 265L649 700H671L584 265Q570 193 542 142T474 57T387 9T287 -7Q218 -7 168 21T96 109T93 265L180 700ZM359 909L520 776L516 755L354
884L359 909Z" />
			<glyph unicode="&#xda;" horiz-adv-x="672" d="M180 700H202L115 265Q97 173 117 118T183 38T291 13Q352 13 407 37T503 117T562 265L649 700H671L584 265Q570 193 542 142T474 57T387 9T287 -7Q218 -7 168 21T96 109T93 265L180 700ZM546 909L541 884L329 755L333
776L546 909Z" />
			<glyph unicode="&#xdb;" horiz-adv-x="672" d="M180 700H202L115 265Q97 173 117 118T183 38T291 13Q352 13 407 37T503 117T562 265L649 700H671L584 265Q570 193 542 142T474 57T387 9T287 -7Q218 -7 168 21T96 109T93 265L180 700ZM566 788L458 869L318 788L323
810L463 891L571 810L566 788Z" />
			<glyph unicode="&#xdc;" horiz-adv-x="672"
				d="M180 700H202L115 265Q97 173 117 118T183 38T291 13Q352 13 407 37T503 117T562 265L649 700H671L584 265Q570 193 542 142T474 57T387 9T287 -7Q218 -7 168 21T96 109T93 265L180 700ZM377 798Q365 798 358 807T353
828Q356 841 366 850T389 859Q402 859 409 850T414 828Q412 816 401 807T377 798ZM512 798Q500 798 493 807T487 828Q490 841 501 850T524 859Q536 859 543 850T548 828Q546 816 535 807T512 798Z" />
			<glyph unicode="&#xdd;" horiz-adv-x="583"
				d="M619 700H641L312 294L254 0H232L290 294L121 700H145L306 316L619 700ZM504 909L499 884L286 755L290 776L504 909Z" />
			<glyph unicode="&#xde;" horiz-adv-x="546"
				d="M260 180Q373 180 427 226T497 350Q513 431 477 476T328 522H171L103 180H260ZM519 350Q506 286 472 243T384 179T256 158H99L67 0H45L185 700H207L175 543H332Q412 543 457 519T516 452T519 350Z" />
			<glyph unicode="&#xdf;" horiz-adv-x="582"
				d="M139 517Q150 575 180 617T256 683T357 707Q411 707 446 690T496 643T503 572Q497 543 481 523T442 487T397 454Q367 432 343 411T314 362Q308 332 329 313T417 271Q475 251 495 215T506 129Q494 68 449 31T335 -7Q265
-7 227 36T195 151H217Q212 88 244 50T339 12Q396 12 435 44T484 129Q493 173 473 204T397 255Q329 278 307 301T292 361Q299 397 326 422T385 469Q418 492 445 513T481 572Q491 622 458 654T353 687Q303 687 264 666T198 607T161 517L58 0H36L139 517Z" />
			<glyph unicode="&#xe0;" horiz-adv-x="524"
				d="M375 0L403 138Q370 68 311 31T172 -7Q118 -7 83 8T34 54T29 128Q41 190 95 227T253 275L434 295L443 341Q458 413 424 450T314 487Q242 487 190 454T111 360L93 367Q124 436 180 471T316 507Q403 507 442 466T467
349L397 0H375ZM430 274L248 255Q154 245 108 214T51 129Q40 73 71 43T173 12Q237 12 288 38T373 114T421 231L430 274ZM249 694L398 570L394 551L245 671L249 694Z" />
			<glyph unicode="&#xe1;" horiz-adv-x="524"
				d="M375 0L403 138Q370 68 311 31T172 -7Q118 -7 83 8T34 54T29 128Q41 190 95 227T253 275L434 295L443 341Q458 413 424 450T314 487Q242 487 190 454T111 360L93 367Q124 436 180 471T316 507Q403 507 442 466T467
349L397 0H375ZM430 274L248 255Q154 245 108 214T51 129Q40 73 71 43T173 12Q237 12 288 38T373 114T421 231L430 274ZM422 694L418 671L221 551L225 570L422 694Z" />
			<glyph unicode="&#xe2;" horiz-adv-x="524"
				d="M376 0L403 138Q370 68 311 31T172 -7Q118 -7 83 8T34 54T29 128Q41 190 95 227T253 275L434 295L443 341Q458 413 424 450T314 487Q242 487 190 454T111 360L93 367Q124 436 180 471T316 507Q404 507 443 466T467
349L398 0H376ZM430 274L248 255Q154 245 108 214T51 129Q40 73 71 43T173 12Q237 12 288 38T373 114T421 231L430 274ZM441 582L341 657L211 582L215 603L345 678L445 603L441 582Z" />
			<glyph unicode="&#xe3;" horiz-adv-x="524" d="M375 0L403 138Q370 68 311 31T172 -7Q118 -7 83 8T34 54T29 128Q41 190 95 227T253 275L434 295L443 341Q458 413 424 450T314 487Q242 487 190 454T111 360L93 367Q124 436 180 471T316 507Q403 507 442 466T467
349L397 0H375ZM430 274L248 255Q154 245 108 214T51 129Q40 73 71 43T173 12Q237 12 288 38T373 114T421 231L430 274ZM213 559Q222 588 240 604T282 621Q305 621 316 610T339 587T373 575Q387 575 401 586T422 618H440Q433 593 413 575T369 557Q345 557 333 568T309
592T278 604Q262 604 250 593T231 559H213Z" />
			<glyph unicode="&#xe4;" horiz-adv-x="524" d="M375 0L403 138Q370 68 311 31T172 -7Q118 -7 83 8T34 54T29 128Q41 190 95 227T253 275L434 295L443 341Q458 413 424 450T314 487Q242 487 190 454T111 360L93 367Q124 436 180 471T316 507Q403 507 442 466T467
349L397 0H375ZM430 274L248 255Q154 245 108 214T51 129Q40 73 71 43T173 12Q237 12 288 38T373 114T421 231L430 274ZM266 592Q254 592 248 600T244 619Q246 631 255 639T277 648Q289 648 295 640T300 619Q298 608 288 600T266 592ZM391 592Q379 592 372 600T368
619Q370 631 380 639T402 648Q413 648 419 640T424 619Q422 608 412 600T391 592Z" />
			<glyph unicode="&#xe5;" horiz-adv-x="524" d="M375 0L403 138Q370 68 311 31T172 -7Q118 -7 83 8T34 54T29 128Q41 190 95 227T253 275L434 295L443 341Q458 413 424 450T314 487Q242 487 190 454T111 360L93 367Q124 436 180 471T316 507Q403 507 442 466T467
349L397 0H375ZM430 274L248 255Q154 245 108 214T51 129Q40 73 71 43T173 12Q237 12 288 38T373 114T421 231L430 274ZM420 634Q412 595 383 573T319 551Q285 551 265 573T252 634Q260 673 289 695T352 718Q386 718 406 696T420 634ZM400 634Q406 665 391 683T349
701Q321 701 300 683T271 634Q265 604 280 586T322 568Q350 568 372 586T400 634Z" />
			<glyph unicode="&#xe6;" horiz-adv-x="925"
				d="M602 -7Q532 -7 488 25T428 116T428 255Q451 373 525 440T704 507Q779 507 821 476T878 395T881 291Q880 284 878 274T873 250H446Q431 168 449 116T509 38T606 13Q679 13 735 45T827 136L842 129Q807 68 747 31T602
-7ZM857 270Q876 341 859 389T800 462T700 487Q647 487 596 464T507 394T450 270H857ZM434 250L427 180Q401 113 362 72T274 12T172 -7Q124 -7 89 9T37 56T29 132Q39 178 66 206T129 248T198 267T253 275L434 292L444 347Q457 408 426 447T314 487Q252 487 196
458T111 360L93 367Q126 440 184 473T316 507Q397 507 438 468T463 349L445 260L434 250ZM430 272L248 255Q170 247 117 221T51 132Q40 73 77 43T174 13Q239 13 290 41T375 120T422 234L430 272Z" />
			<glyph unicode="&#xe7;" horiz-adv-x="553"
				d="M238 -7Q166 -7 119 24T54 113T51 249Q67 326 108 384T208 475T340 507Q416 507 465 471T523 371L503 365Q494 422 450 454T336 487Q271 487 217 458T125 375T73 249Q52 141 97 77T243 13Q309 13 364 43T458 133L477
128Q436 63 375 28T238 -7ZM233 -80Q271 -78 295 -86T330 -111T334 -154Q330 -178 315 -195T276 -223T220 -234H160L164 -215H221Q266 -215 287 -198T314 -154Q319 -132 305 -115T244 -98H209L230 7H250L233 -80Z" />
			<glyph unicode="&#xe8;" horiz-adv-x="554"
				d="M229 -7Q161 -7 116 26T54 118T52 255Q67 329 107 386T206 475T331 507Q395 507 439 479T503 402T510 291Q509 284 507 273T502 250H73Q60 180 76 127T132 43T233 13Q303 13 361 45T455 136L471 129Q433 64 370 29T229
-7ZM484 270Q499 334 484 383T429 459T327 487Q269 487 218 459T129 382T77 270H484ZM274 694L422 570L418 551L269 671L274 694Z" />
			<glyph unicode="&#xe9;" horiz-adv-x="554"
				d="M229 -7Q161 -7 116 26T54 118T52 255Q67 329 107 386T206 475T331 507Q395 507 439 479T503 402T510 291Q509 284 507 273T502 250H73Q60 180 76 127T132 43T233 13Q303 13 361 45T455 136L471 129Q433 64 370 29T229
-7ZM484 270Q499 334 484 383T429 459T327 487Q269 487 218 459T129 382T77 270H484ZM447 694L442 671L245 551L249 570L447 694Z" />
			<glyph unicode="&#xea;" horiz-adv-x="554"
				d="M229 -7Q161 -7 116 26T54 118T52 255Q67 329 107 386T206 475T331 507Q395 507 439 479T503 402T510 291Q509 284 507 273T502 250H73Q60 180 76 127T132 43T233 13Q303 13 361 45T455 136L471 129Q433 64 370 29T229
-7ZM484 270Q499 334 484 383T429 459T327 487Q269 487 218 459T129 382T77 270H484ZM465 582L365 657L236 582L240 603L369 678L469 603L465 582Z" />
			<glyph unicode="&#xeb;" horiz-adv-x="554" d="M229 -7Q161 -7 116 26T54 118T52 255Q67 329 107 386T206 475T331 507Q395 507 439 479T503 402T510 291Q509 284 507 273T502 250H73Q60 180 76 127T132 43T233 13Q303 13 361 45T455 136L471 129Q433 64 370 29T229
-7ZM484 270Q499 334 484 383T429 459T327 487Q269 487 218 459T129 382T77 270H484ZM290 592Q278 592 272 600T268 619Q270 631 280 639T301 648Q313 648 320 640T324 619Q322 608 312 600T290 592ZM415 592Q403 592 397 600T392 619Q394 631 404 639T426 648Q437
648 444 640T448 619Q446 608 436 600T415 592Z" />
			<glyph unicode="&#xec;" horiz-adv-x="344"
				d="M223 500H245L146 0H124L223 500ZM174 695L322 571L319 552L169 672L174 695Z" />
			<glyph unicode="&#xed;" horiz-adv-x="344"
				d="M223 500H245L146 0H124L223 500ZM347 695L342 672L146 552L149 571L347 695Z" />
			<glyph unicode="&#xee;" horiz-adv-x="400"
				d="M239 500H261L161 0H139L239 500ZM381 583L281 658L152 583L156 604L285 679L385 604L381 583Z" />
			<glyph unicode="&#xef;" horiz-adv-x="351" d="M214 500H236L137 0H115L214 500ZM181 593Q170 593 164 601T159 620Q162 632 171 640T193 649Q204 649 211 641T216 620Q213 609 203 601T181 593ZM306 593Q295 593 288 601T283 620Q285 632 295 640T318 649Q329
649 335 641T340 620Q337 609 327 601T306 593Z" />
			<glyph unicode="&#xf0;" horiz-adv-x="594"
				d="M600 688L596 668L475 627Q535 551 551 466T549 285Q530 187 486 122T379 25T245 -7Q169 -7 121 26T55 119T53 259Q68 333 109 389T211 476T347 507Q396 507 437 491T505 438T539 340Q544 423 523 486T455 620L293
565L297 585L443 635Q430 651 415 667T382 700H407Q439 672 464 642L600 688ZM249 13Q311 13 367 41T463 122T519 251Q534 329 514 381T449 460T343 487Q280 487 225 461T130 383T76 259Q52 140 102 77T249 13Z" />
			<glyph unicode="&#xf1;" horiz-adv-x="562"
				d="M135 500H157L131 370Q160 433 213 470T344 507Q398 507 437 483T491 410T492 282L436 0H414L470 283Q490 382 455 435T339 488Q255 488 194 430T109 256L58 0H36L135 500ZM223 559Q232 588 249 604T292 621Q315
621 326 610T349 587T382 575Q397 575 411 586T432 618H449Q443 593 423 575T379 557Q355 557 343 568T319 592T288 604Q272 604 260 593T240 559H223Z" />
			<glyph unicode="&#xf2;" horiz-adv-x="581" d="M240 -7Q171 -7 123 24T55 112T51 250Q67 329 110 387T213 476T342 507Q411 507 458 476T525 387T529 250Q513 170 471 113T369 24T240 -7ZM244 13Q300 13 354 38T450 116T507 250Q523 331 503 383T439 461T338 487Q282
487 228 462T132 384T74 250Q58 169 78 117T143 39T244 13ZM287 694L435 570L431 551L282 671L287 694Z" />
			<glyph unicode="&#xf3;" horiz-adv-x="581" d="M240 -7Q171 -7 123 24T55 112T51 250Q67 329 110 387T213 476T342 507Q411 507 458 476T525 387T529 250Q513 170 471 113T369 24T240 -7ZM244 13Q300 13 354 38T450 116T507 250Q523 331 503 383T439 461T338 487Q282
487 228 462T132 384T74 250Q58 169 78 117T143 39T244 13ZM460 694L455 671L258 551L262 570L460 694Z" />
			<glyph unicode="&#xf4;" horiz-adv-x="581" d="M240 -7Q171 -7 123 24T55 112T51 250Q67 329 110 387T213 476T342 507Q411 507 458 476T525 387T529 250Q513 170 471 113T369 24T240 -7ZM244 13Q300 13 354 38T450 116T507 250Q523 331 503 383T439 461T338 487Q282
487 228 462T132 384T74 250Q58 169 78 117T143 39T244 13ZM478 582L378 657L249 582L253 603L382 678L482 603L478 582Z" />
			<glyph unicode="&#xf5;" horiz-adv-x="581"
				d="M240 -7Q171 -7 123 24T55 112T51 250Q67 329 110 387T213 476T342 507Q411 507 458 476T525 387T529 250Q513 170 471 113T369 24T240 -7ZM244 13Q300 13 354 38T450 116T507 250Q523 331 503 383T439 461T338 487Q282
487 228 462T132 384T74 250Q58 169 78 117T143 39T244 13ZM251 559Q260 588 277 604T319 621Q342 621 354 610T377 587T410 575Q425 575 438 586T459 618H477Q470 593 450 575T407 557Q382 557 370 568T346 592T316 604Q300 604 288 593T268 559H251Z" />
			<glyph unicode="&#xf6;" horiz-adv-x="581" d="M240 -7Q171 -7 123 24T55 112T51 250Q67 329 110 387T213 476T342 507Q411 507 458 476T525 387T529 250Q513 170 471 113T369 24T240 -7ZM244 13Q300 13 354 38T450 116T507 250Q523 331 503 383T439 461T338 487Q282
487 228 462T132 384T74 250Q58 169 78 117T143 39T244 13ZM303 592Q291 592 285 600T281 619Q283 631 293 639T314 648Q326 648 333 640T337 619Q335 608 325 600T303 592ZM428 592Q416 592 410 600T405 619Q407 631 417 639T439 648Q450 648 457 640T461 619Q459
608 449 600T428 592Z" />
			<glyph unicode="&#xf7;" horiz-adv-x="651" d="M94 362H603L599 343H90L94 362ZM306 112Q295 112 290 119T287 136Q289 147 297 154T315 161Q325 161 330 154T334 136Q332 126 324 119T306 112ZM390 540Q380 540 375 547T372 564Q374 575 382 582T400 589Q410
589 415 582T419 564Q417 554 409 547T390 540Z" />
			<glyph unicode="&#xf8;" horiz-adv-x="581" d="M490 434L500 420L104 62L91 74L490 434ZM240 -7Q171 -7 123 24T55 112T51 250Q67 329 110 387T213 476T342 507Q411 507 458 476T525 387T529 250Q513 170 471 113T369 24T240 -7ZM244 13Q300 13 354 38T450 116T507
250Q523 331 503 383T439 461T338 487Q282 487 228 462T132 384T74 250Q58 169 78 117T143 39T244 13Z" />
			<glyph unicode="&#xf9;" horiz-adv-x="561"
				d="M426 0H405L429 124Q401 62 349 28T219 -7Q165 -7 126 15T70 87T70 213L127 500H149L91 211Q72 112 106 63T223 13Q308 13 368 68T452 239L504 500H526L426 0ZM260 694L409 570L405 551L256 671L260 694Z" />
			<glyph unicode="&#xfa;" horiz-adv-x="561"
				d="M426 0H405L429 124Q401 62 349 28T219 -7Q165 -7 126 15T70 87T70 213L127 500H149L91 211Q72 112 106 63T223 13Q308 13 368 68T452 239L504 500H526L426 0ZM433 694L429 671L232 551L236 570L433 694Z" />
			<glyph unicode="&#xfb;" horiz-adv-x="561"
				d="M426 0H405L429 124Q401 62 349 28T219 -7Q165 -7 126 15T70 87T70 213L127 500H149L91 211Q71 112 106 63T223 13Q308 13 368 68T452 239L504 500H526L426 0ZM452 582L352 657L222 582L226 603L356 678L456 603L452 582Z" />
			<glyph unicode="&#xfc;" horiz-adv-x="561"
				d="M426 0H405L429 124Q401 62 349 28T219 -7Q165 -7 126 15T70 87T70 213L127 500H149L91 211Q72 112 106 63T223 13Q308 13 368 68T452 239L504 500H526L426 0ZM277 592Q265 592 259 600T255 619Q257 631 266 639T288
648Q300 648 306 640T311 619Q309 608 299 600T277 592ZM402 592Q390 592 383 600T379 619Q381 631 391 639T413 648Q424 648 430 640T435 619Q433 608 423 600T402 592Z" />
			<glyph unicode="&#xfd;" horiz-adv-x="475"
				d="M481 500H503L91 -200H68L186 0L71 500H93L202 25L481 500ZM401 694L396 671L199 551L203 570L401 694Z" />
			<glyph unicode="&#xfe;" horiz-adv-x="626" d="M10 -234H-11L172 687H193L126 346Q159 417 227 462T382 508Q453 508 501 477T570 388T575 251Q559 172 516 114T412 25T279 -7Q223 -7 182 14T117 73T88 155L10 -234ZM553 251Q567 324 550 377T489 459T378 488Q314
488 258 459T161 376T107 251Q92 180 111 126T175 43T283 13Q350 13 405 42T499 124T553 251Z" />
			<glyph unicode="&#xff;" horiz-adv-x="475" d="M481 500H503L91 -200H68L186 0L71 500H93L202 25L481 500ZM244 592Q233 592 227 600T222 619Q224 631 234 639T256 648Q267 648 274 640T279 619Q276 608 266 600T244 592ZM369 592Q357 592 351 600T346 619Q348
631 358 639T380 648Q392 648 398 640T403 619Q400 608 390 600T369 592Z" />
			<glyph unicode="&#x2013;" horiz-adv-x="626" d="M70 290H572L568 270H66L70 290Z" />
			<glyph unicode="&#x2014;" horiz-adv-x="810" d="M70 290H756L752 270H66L70 290Z" />
			<glyph unicode="&#x2018;" horiz-adv-x="202" d="M244 700L152 510H118L225 700H244Z" />
			<glyph unicode="&#x2019;" horiz-adv-x="202" d="M99 510L191 700H225L118 510H99Z" />
			<glyph unicode="&#x201a;" horiz-adv-x="203" d="M-22 -100L71 90H105L-2 -100H-22Z" />
			<glyph unicode="&#x201c;" horiz-adv-x="310"
				d="M244 700L152 510H118L225 700H244ZM352 700L260 510H226L333 700H352Z" />
			<glyph unicode="&#x201d;" horiz-adv-x="310"
				d="M207 510L299 700H333L226 510H207ZM99 510L191 700H225L118 510H99Z" />
			<glyph unicode="&#x201e;" horiz-adv-x="313"
				d="M-22 -100L71 90H105L-2 -100H-22ZM89 -100L181 90H215L108 -100H89Z" />
			<glyph unicode="&#x2022;" horiz-adv-x="426"
				d="M210 235Q183 235 163 248T134 284T131 333Q136 361 154 383T197 419T249 433Q277 433 296 420T325 384T329 333Q323 306 306 284T263 249T210 235Z" />
			<glyph unicode="&#x2039;" horiz-adv-x="240" d="M148 75H119L48 250L188 425H217L74 250L148 75Z" />
			<glyph unicode="&#x203a;" horiz-adv-x="239" d="M22 75L166 250L92 425H121L192 250L51 75H22Z" />
		</font>
</defs>
</svg>
